<svg xmlns="http://www.w3.org/2000/svg" xmlns:xlink="http://www.w3.org/1999/xlink" width="6912" zoomAndPan="magnify" viewBox="0 0 5184 2592.000001" height="3456" preserveAspectRatio="xMidYMid meet" version="1.0"><defs><g/><clipPath id="6c3820ae62"><path d="M 110.929688 120.441406 L 5073.066406 120.441406 L 5073.066406 2470.550781 L 110.929688 2470.550781 Z M 110.929688 120.441406 " clip-rule="nonzero"/></clipPath></defs><path fill="#ffffff" d="M 1 0 L 5183 0 L 5183 2591 L 1 2591 Z M 1 0 " fill-opacity="1" fill-rule="nonzero"/><path fill="#4f0805" d="M 1 0 L 5183 0 L 5183 2591 L 1 2591 Z M 1 0 " fill-opacity="1" fill-rule="nonzero"/><g clip-path="url(#6c3820ae62)"><path stroke-linecap="butt" transform="matrix(0.749711, 0, 0, 0.749711, 110.92887, 120.44282)" fill="none" stroke-linejoin="miter" d="M 0.00109065 -0.00188558 L 6618.736195 -0.00188558 L 6618.736195 3134.686314 L 0.00109065 3134.686314 Z M 0.00109065 -0.00188558 " stroke="#171612" stroke-width="116" stroke-opacity="1" stroke-miterlimit="4"/></g><g fill="#dc8c77" fill-opacity="0.6"><g transform="translate(1160.775006, 1482.777619)"><g><path d="M 25.15625 -170.953125 C 25.15625 -189.148438 27.335938 -205.335938 31.703125 -219.515625 C 36.078125 -233.691406 43.4375 -249.070312 53.78125 -265.65625 C 64.125 -282.25 76.609375 -296.117188 91.234375 -307.265625 C 105.859375 -318.410156 126.101562 -328.265625 151.96875 -336.828125 C 170.15625 -342.710938 193.160156 -345.65625 220.984375 -345.65625 C 239.710938 -345.65625 258.039062 -343.15625 275.96875 -338.15625 C 293.894531 -333.164062 310.171875 -326.210938 324.796875 -317.296875 C 339.421875 -308.378906 354.046875 -294.644531 368.671875 -276.09375 C 378.835938 -263.257812 386.503906 -249.4375 391.671875 -234.625 C 398.453125 -215.1875 401.84375 -195.125 401.84375 -174.4375 C 401.84375 -150.894531 399.566406 -131.363281 395.015625 -115.84375 C 390.472656 -100.320312 382.847656 -84.984375 372.140625 -69.828125 C 363.765625 -58.054688 349.410156 -44.5 329.078125 -29.15625 C 315.515625 -18.8125 298.65625 -10.472656 278.5 -4.140625 C 258.351562 2.179688 236.597656 5.34375 213.234375 5.34375 C 189.503906 5.34375 168.363281 2.582031 149.8125 -2.9375 C 131.269531 -8.46875 115.800781 -15.203125 103.40625 -23.140625 C 91.007812 -31.078125 78.253906 -42.800781 65.140625 -58.3125 C 52.035156 -73.832031 42.09375 -90.957031 35.3125 -109.6875 C 28.539062 -128.414062 25.15625 -148.835938 25.15625 -170.953125 Z M 210.828125 -4.546875 C 225.804688 -4.546875 241.363281 -6.640625 257.5 -10.828125 C 273.644531 -15.023438 287.957031 -21.984375 300.4375 -31.703125 C 312.925781 -41.421875 322.691406 -52.476562 329.734375 -64.875 C 336.785156 -77.269531 342.453125 -93.1875 346.734375 -112.625 C 351.015625 -132.070312 353.15625 -151.515625 353.15625 -170.953125 C 353.15625 -195.210938 349.585938 -219.203125 342.453125 -242.921875 C 336.921875 -260.941406 327.910156 -277.039062 315.421875 -291.21875 C 302.941406 -305.394531 287.875 -316.363281 270.21875 -324.125 C 252.5625 -331.882812 233.742188 -335.765625 213.765625 -335.765625 C 197.535156 -335.765625 181.660156 -333.085938 166.140625 -327.734375 C 150.617188 -322.378906 137.863281 -315.554688 127.875 -307.265625 C 117.894531 -298.972656 108.625 -287.203125 100.0625 -271.953125 C 91.5 -256.703125 84.988281 -239.890625 80.53125 -221.515625 C 76.070312 -203.148438 73.84375 -186.921875 73.84375 -172.828125 C 73.84375 -158.023438 76.070312 -141.257812 80.53125 -122.53125 C 84.988281 -103.800781 91.097656 -87.566406 98.859375 -73.828125 C 106.617188 -60.097656 116.160156 -47.925781 127.484375 -37.3125 C 138.804688 -26.707031 151.515625 -18.59375 165.609375 -12.96875 C 179.703125 -7.351562 194.773438 -4.546875 210.828125 -4.546875 Z M 210.828125 -4.546875 "/></g></g><g transform="translate(1588.842249, 1482.777619)"><g><path d="M -4.546875 -339.234375 L -2.671875 -343.78125 C 11.773438 -343.78125 26.222656 -343.601562 40.671875 -343.25 L 49.5 -343.25 C 52.175781 -343.25 55.117188 -343.335938 58.328125 -343.515625 C 69.921875 -344.054688 90.878906 -344.328125 121.203125 -344.328125 C 127.265625 -344.328125 133.148438 -344.28125 138.859375 -344.1875 C 144.566406 -344.101562 150.09375 -343.96875 155.4375 -343.78125 C 156.507812 -343.25 157.3125 -342.445312 157.84375 -341.375 L 157.3125 -337.09375 C 156.238281 -335.3125 153.5625 -334.421875 149.28125 -334.421875 L 147.140625 -334.421875 C 142.148438 -334.597656 133.945312 -334.195312 122.53125 -333.21875 C 111.113281 -332.238281 103.625 -330.410156 100.0625 -327.734375 C 97.738281 -325.773438 96.578125 -323.191406 96.578125 -319.984375 C 96.578125 -313.023438 99.519531 -302.585938 105.40625 -288.671875 L 146.078125 -194.234375 L 160.25 -162.9375 C 173.988281 -129.757812 187.546875 -95.867188 200.921875 -61.265625 C 202.347656 -57.515625 203.6875 -54.125 204.9375 -51.09375 L 222.859375 -94.984375 C 232.128906 -117.097656 241.492188 -140.640625 250.953125 -165.609375 L 269.40625 -215.90625 C 269.769531 -216.976562 270.753906 -220.546875 272.359375 -226.609375 C 289.660156 -273.867188 298.3125 -303.742188 298.3125 -316.234375 C 298.3125 -318.910156 297.101562 -321.628906 294.6875 -324.390625 C 292.28125 -327.160156 288.40625 -329.4375 283.0625 -331.21875 C 280.914062 -331.925781 273.957031 -332.992188 262.1875 -334.421875 L 242.390625 -336.828125 C 240.785156 -338.617188 239.984375 -340.132812 239.984375 -341.375 L 240.78125 -343.515625 L 327.46875 -344.328125 L 356.09375 -344.328125 C 365.726562 -344.328125 372.328125 -343.703125 375.890625 -342.453125 L 376.15625 -340.3125 C 376.15625 -338.882812 375.625 -337.007812 374.5625 -334.6875 C 370.28125 -333.257812 366.351562 -332.367188 362.78125 -332.015625 C 347.800781 -330.234375 338.523438 -328.140625 334.953125 -325.734375 C 331.390625 -323.328125 327.644531 -318.195312 323.71875 -310.34375 L 253.359375 -136.453125 C 231.421875 -84.191406 215.816406 -43.703125 206.546875 -14.984375 L 198.78125 8.296875 C 196.457031 9.722656 194.492188 10.4375 192.890625 10.4375 C 190.929688 10.4375 188.789062 10.257812 186.46875 9.90625 C 165.25 -45.03125 147.953125 -87.484375 134.578125 -117.453125 L 52.703125 -303.125 C 46.816406 -314.175781 42.398438 -320.816406 39.453125 -323.046875 C 36.515625 -325.285156 26.21875 -328.453125 8.5625 -332.546875 C 2.320312 -333.972656 -1.15625 -334.867188 -1.875 -335.234375 C -3.125 -336.117188 -4.015625 -337.453125 -4.546875 -339.234375 Z M -4.546875 -339.234375 "/></g></g><g transform="translate(1959.923038, 1482.777619)"><g><path d="M 13.375 -4.28125 C 15.15625 -5.882812 16.671875 -6.863281 17.921875 -7.21875 C 20.953125 -8.113281 26.125 -8.828125 33.4375 -9.359375 C 50.738281 -10.429688 61.441406 -12.035156 65.546875 -14.171875 C 68.046875 -17.742188 69.296875 -22.738281 69.296875 -29.15625 L 69.03125 -47.890625 L 69.296875 -115.84375 L 68.75 -147.953125 L 69.03125 -215.109375 L 67.6875 -291.34375 C 67.507812 -309.539062 66.347656 -319.800781 64.203125 -322.125 C 60.992188 -325.507812 51.453125 -327.46875 35.578125 -328 C 28.804688 -328.175781 22.832031 -328.710938 17.65625 -329.609375 C 15.332031 -330.859375 14.171875 -332.460938 14.171875 -334.421875 C 14.171875 -335.847656 14.617188 -337.546875 15.515625 -339.515625 C 17.117188 -340.398438 18.546875 -340.84375 19.796875 -340.84375 C 22.296875 -340.84375 25.328125 -340.753906 28.890625 -340.578125 C 39.410156 -339.679688 50.289062 -339.234375 61.53125 -339.234375 L 81.328125 -339.78125 L 128.421875 -338.703125 C 151.960938 -338.703125 170.332031 -338.96875 183.53125 -339.5 C 196.726562 -340.039062 205.644531 -340.3125 210.28125 -340.3125 C 214.382812 -340.3125 224.550781 -339.953125 240.78125 -339.234375 L 278.78125 -339.515625 L 283.328125 -338.703125 L 305.53125 -339.515625 L 308.203125 -338.171875 C 309.097656 -336.742188 309.722656 -335.226562 310.078125 -333.625 C 310.078125 -331.125 309.675781 -327.285156 308.875 -322.109375 C 308.070312 -316.941406 307.671875 -313.734375 307.671875 -312.484375 C 307.671875 -293.929688 308.296875 -278.238281 309.546875 -265.40625 C 309.367188 -264.332031 308.832031 -263.617188 307.9375 -263.265625 C 305.976562 -263.265625 304.195312 -263.53125 302.59375 -264.0625 C 300.625 -267.445312 297.988281 -273.421875 294.6875 -281.984375 C 291.394531 -290.546875 286.445312 -300.445312 279.84375 -311.6875 C 275.382812 -319.175781 271.90625 -323.632812 269.40625 -325.0625 C 266.914062 -326.488281 261.742188 -327.203125 253.890625 -327.203125 C 252.285156 -327.203125 244.171875 -327.378906 229.546875 -327.734375 C 225.617188 -327.910156 221.785156 -328 218.046875 -328 L 141.796875 -326.40625 L 135.109375 -326.40625 C 125.296875 -326.40625 119.410156 -325.15625 117.453125 -322.65625 C 114.421875 -318.375 112.90625 -305.800781 112.90625 -284.9375 C 112.90625 -282.789062 113.347656 -261.382812 114.234375 -220.71875 L 114.234375 -183.53125 C 116.203125 -183 118.34375 -182.734375 120.65625 -182.734375 L 125.203125 -182.734375 C 128.234375 -182.734375 132.691406 -182.644531 138.578125 -182.46875 C 147.859375 -182.101562 154.101562 -181.921875 157.3125 -181.921875 C 159.457031 -181.921875 161.332031 -182.007812 162.9375 -182.1875 C 182.195312 -182.90625 206.988281 -183.265625 237.3125 -183.265625 C 246.757812 -184.867188 252.285156 -186.742188 253.890625 -188.890625 C 256.566406 -192.097656 258.570312 -200.476562 259.90625 -214.03125 C 261.25 -227.582031 264.238281 -235.253906 268.875 -237.046875 C 271.195312 -237.046875 273.335938 -236.597656 275.296875 -235.703125 C 275.648438 -234.273438 275.828125 -232.9375 275.828125 -231.6875 C 275.828125 -230.4375 275.648438 -228.382812 275.296875 -225.53125 C 274.410156 -218.9375 273.96875 -198.25 273.96875 -163.46875 C 273.96875 -154.195312 274.457031 -143.851562 275.4375 -132.4375 C 276.414062 -121.019531 276.90625 -114.863281 276.90625 -113.96875 C 276.90625 -112.363281 276.632812 -110.222656 276.09375 -107.546875 C 274.675781 -106.835938 273.519531 -106.484375 272.625 -106.484375 L 270.75 -106.484375 C 267.894531 -111.472656 265.128906 -119.226562 262.453125 -129.75 C 257.816406 -147.769531 252.957031 -159.050781 247.875 -163.59375 C 242.789062 -168.144531 234.539062 -170.421875 223.125 -170.421875 C 220.625 -170.421875 216.070312 -170.285156 209.46875 -170.015625 C 202.875 -169.753906 193.066406 -169.625 180.046875 -169.625 L 162.671875 -169.625 C 137.867188 -169.625 121.632812 -169.085938 113.96875 -168.015625 L 113.703125 -159.1875 L 113.96875 -109.953125 L 113.703125 -78.921875 L 113.96875 -48.6875 C 114.144531 -30.5 115.304688 -19.976562 117.453125 -17.125 C 120.484375 -13.195312 127.082031 -11.234375 137.25 -11.234375 L 153.5625 -11.5 C 154.988281 -11.5 160.5625 -11.363281 170.28125 -11.09375 C 180.007812 -10.832031 192.003906 -10.703125 206.265625 -10.703125 C 240.691406 -10.703125 263.613281 -12.171875 275.03125 -15.109375 C 286.445312 -18.054688 295.851562 -23.273438 303.25 -30.765625 C 310.65625 -38.253906 319.976562 -54.394531 331.21875 -79.1875 C 334.601562 -86.5 337.988281 -90.15625 341.375 -90.15625 C 342.976562 -90.15625 344.765625 -89.441406 346.734375 -88.015625 C 341.554688 -70.359375 338.613281 -58.765625 337.90625 -53.234375 C 335.9375 -40.753906 334.773438 -28.003906 334.421875 -14.984375 C 334.421875 -9.097656 332.992188 -4.191406 330.140625 -0.265625 L 324.265625 -0.265625 L 249.078125 0.53125 L 215.375 0.265625 L 135.109375 1.34375 L 102.46875 1.34375 C 98.363281 1.34375 94.53125 1.429688 90.96875 1.609375 C 58.863281 3.035156 35.226562 3.75 20.0625 3.75 C 17.382812 3.75 15.554688 3.300781 14.578125 2.40625 C 13.597656 1.507812 13.109375 0.171875 13.109375 -1.609375 Z M 13.375 -4.28125 "/></g></g><g transform="translate(2319.499522, 1482.777619)"><g><path d="M 14.984375 -8.03125 C 41.023438 -11.0625 55.738281 -13.203125 59.125 -14.453125 C 61.445312 -15.335938 63.585938 -18.007812 65.546875 -22.46875 L 65.546875 -25.421875 C 65.546875 -29.878906 66.257812 -46.019531 67.6875 -73.84375 C 68.039062 -81.6875 68.21875 -89.351562 68.21875 -96.84375 L 67.421875 -128.6875 L 67.953125 -164.796875 L 67.6875 -231.953125 L 67.953125 -280.109375 C 68.128906 -300.441406 66.566406 -312.835938 63.265625 -317.296875 C 59.972656 -321.753906 51.457031 -324.921875 37.71875 -326.796875 C 23.988281 -328.671875 16.410156 -330.050781 14.984375 -330.9375 C 13.554688 -331.832031 12.84375 -333.265625 12.84375 -335.234375 C 12.84375 -336.472656 13.109375 -338.078125 13.640625 -340.046875 C 15.421875 -341.648438 19.523438 -342.539062 25.953125 -342.71875 C 26.847656 -342.71875 29.300781 -342.941406 33.3125 -343.390625 C 37.320312 -343.835938 41.109375 -344.0625 44.671875 -344.0625 L 66.625 -344.0625 L 136.984375 -344.859375 C 176.753906 -344.859375 204.617188 -341.914062 220.578125 -336.03125 C 236.546875 -330.144531 249.253906 -320.203125 258.703125 -306.203125 C 268.160156 -292.203125 272.890625 -276.550781 272.890625 -259.25 C 272.890625 -226.425781 255.675781 -201.363281 221.25 -184.0625 C 215.363281 -181.03125 210.726562 -178.359375 207.34375 -176.046875 C 213.40625 -163.203125 221.878906 -147.769531 232.765625 -129.75 L 266.734375 -71.4375 C 280.296875 -50.03125 289.660156 -36.609375 294.828125 -31.171875 C 300.003906 -25.734375 306.289062 -21.226562 313.6875 -17.65625 C 321.09375 -14.09375 333.535156 -10.703125 351.015625 -7.484375 C 351.191406 -5.703125 351.28125 -4.273438 351.28125 -3.203125 C 351.28125 -2.140625 351.191406 -0.804688 351.015625 0.796875 C 326.578125 1.160156 297.945312 1.34375 265.125 1.34375 C 262.8125 1.34375 259.601562 1.160156 255.5 0.796875 C 242.832031 -23.453125 227.941406 -50.113281 210.828125 -79.1875 L 171.21875 -151.421875 C 165.875 -158.921875 161.460938 -163.601562 157.984375 -165.46875 C 154.503906 -167.34375 149.910156 -168.28125 144.203125 -168.28125 L 121.46875 -168.015625 L 113.96875 -168.28125 C 113.4375 -162.570312 113.171875 -150.890625 113.171875 -133.234375 L 113.171875 -41.734375 C 112.992188 -38.347656 113.707031 -33.625 115.3125 -27.5625 C 116.738281 -24.164062 119.191406 -21.441406 122.671875 -19.390625 C 126.148438 -17.335938 136.179688 -14.265625 152.765625 -10.171875 L 163.734375 -7.484375 C 165.160156 -5.703125 165.875 -3.296875 165.875 -0.265625 C 161.0625 0.617188 157.671875 1.0625 155.703125 1.0625 C 139.648438 1.0625 128.328125 0.882812 121.734375 0.53125 C 118.335938 0.351562 115.570312 0.265625 113.4375 0.265625 L 77.046875 0.796875 L 41.46875 0.53125 C 39.863281 0.53125 31.75 0.800781 17.125 1.34375 L 11.765625 0.265625 L 11.234375 -2.40625 C 11.234375 -4.007812 12.484375 -5.882812 14.984375 -8.03125 Z M 114.5 -183 C 119.320312 -182.820312 122.890625 -182.734375 125.203125 -182.734375 C 138.046875 -182.734375 152.851562 -184.25 169.625 -187.28125 C 181.394531 -189.59375 190.9375 -193.378906 198.25 -198.640625 C 205.5625 -203.910156 211.671875 -211.71875 216.578125 -222.0625 C 221.484375 -232.40625 223.9375 -243.101562 223.9375 -254.15625 C 223.9375 -266.289062 220.097656 -279.132812 212.421875 -292.6875 C 206.535156 -303.03125 196.59375 -311.679688 182.59375 -318.640625 C 168.59375 -325.597656 151.785156 -329.078125 132.171875 -329.078125 C 127.347656 -329.078125 121.101562 -328.804688 113.4375 -328.265625 C 112.71875 -318.992188 112.359375 -311.863281 112.359375 -306.875 L 113.703125 -256.84375 L 113.4375 -236.234375 C 113.4375 -222.328125 113.789062 -204.582031 114.5 -183 Z M 114.5 -183 "/></g></g><g transform="translate(2661.953317, 1482.777619)"><g><path d="M -4.546875 -339.234375 L -2.671875 -343.78125 C 11.773438 -343.78125 26.222656 -343.601562 40.671875 -343.25 L 49.5 -343.25 C 52.175781 -343.25 55.117188 -343.335938 58.328125 -343.515625 C 69.921875 -344.054688 90.878906 -344.328125 121.203125 -344.328125 C 127.265625 -344.328125 133.148438 -344.28125 138.859375 -344.1875 C 144.566406 -344.101562 150.09375 -343.96875 155.4375 -343.78125 C 156.507812 -343.25 157.3125 -342.445312 157.84375 -341.375 L 157.3125 -337.09375 C 156.238281 -335.3125 153.5625 -334.421875 149.28125 -334.421875 L 147.140625 -334.421875 C 142.148438 -334.597656 133.945312 -334.195312 122.53125 -333.21875 C 111.113281 -332.238281 103.625 -330.410156 100.0625 -327.734375 C 97.738281 -325.773438 96.578125 -323.191406 96.578125 -319.984375 C 96.578125 -313.023438 99.519531 -302.585938 105.40625 -288.671875 L 146.078125 -194.234375 L 160.25 -162.9375 C 173.988281 -129.757812 187.546875 -95.867188 200.921875 -61.265625 C 202.347656 -57.515625 203.6875 -54.125 204.9375 -51.09375 L 222.859375 -94.984375 C 232.128906 -117.097656 241.492188 -140.640625 250.953125 -165.609375 L 269.40625 -215.90625 C 269.769531 -216.976562 270.753906 -220.546875 272.359375 -226.609375 C 289.660156 -273.867188 298.3125 -303.742188 298.3125 -316.234375 C 298.3125 -318.910156 297.101562 -321.628906 294.6875 -324.390625 C 292.28125 -327.160156 288.40625 -329.4375 283.0625 -331.21875 C 280.914062 -331.925781 273.957031 -332.992188 262.1875 -334.421875 L 242.390625 -336.828125 C 240.785156 -338.617188 239.984375 -340.132812 239.984375 -341.375 L 240.78125 -343.515625 L 327.46875 -344.328125 L 356.09375 -344.328125 C 365.726562 -344.328125 372.328125 -343.703125 375.890625 -342.453125 L 376.15625 -340.3125 C 376.15625 -338.882812 375.625 -337.007812 374.5625 -334.6875 C 370.28125 -333.257812 366.351562 -332.367188 362.78125 -332.015625 C 347.800781 -330.234375 338.523438 -328.140625 334.953125 -325.734375 C 331.390625 -323.328125 327.644531 -318.195312 323.71875 -310.34375 L 253.359375 -136.453125 C 231.421875 -84.191406 215.816406 -43.703125 206.546875 -14.984375 L 198.78125 8.296875 C 196.457031 9.722656 194.492188 10.4375 192.890625 10.4375 C 190.929688 10.4375 188.789062 10.257812 186.46875 9.90625 C 165.25 -45.03125 147.953125 -87.484375 134.578125 -117.453125 L 52.703125 -303.125 C 46.816406 -314.175781 42.398438 -320.816406 39.453125 -323.046875 C 36.515625 -325.285156 26.21875 -328.453125 8.5625 -332.546875 C 2.320312 -333.972656 -1.15625 -334.867188 -1.875 -335.234375 C -3.125 -336.117188 -4.015625 -337.453125 -4.546875 -339.234375 Z M -4.546875 -339.234375 "/></g></g><g transform="translate(3033.034106, 1482.777619)"><g><path d="M 11.5 -8.5625 C 15.425781 -10.164062 19.441406 -11.144531 23.546875 -11.5 C 50.835938 -13.28125 66.441406 -16.535156 70.359375 -21.265625 C 74.285156 -25.992188 76.25 -48.867188 76.25 -89.890625 L 75.984375 -117.984375 L 75.984375 -147.421875 L 74.90625 -179.78125 L 75.453125 -198.78125 L 75.171875 -219.65625 L 75.171875 -244.265625 L 74.640625 -255.234375 L 75.171875 -269.140625 C 75.359375 -272.359375 75.453125 -276.101562 75.453125 -280.375 C 75.453125 -291.613281 74.914062 -303.476562 73.84375 -315.96875 C 73.125 -318.457031 72.140625 -320.863281 70.890625 -323.1875 C 64.296875 -326.570312 53.640625 -328.84375 38.921875 -330 C 24.210938 -331.164062 15.875 -332.460938 13.90625 -333.890625 C 12.476562 -334.960938 11.675781 -337.726562 11.5 -342.1875 L 33.984375 -342.1875 L 104.875 -340.578125 C 123.070312 -340.578125 147.328125 -341.113281 177.640625 -342.1875 C 177.640625 -339.332031 177.460938 -336.65625 177.109375 -334.15625 C 173.546875 -333.257812 167.570312 -332.28125 159.1875 -331.21875 C 142.238281 -329.25 131.894531 -327.375 128.15625 -325.59375 C 125.832031 -324.707031 124.132812 -323.191406 123.0625 -321.046875 C 121.28125 -317.835938 120.210938 -311.863281 119.859375 -303.125 L 118.515625 -268.609375 L 119.59375 -149.5625 L 119.59375 -102.46875 C 119.238281 -87.664062 119.0625 -77.585938 119.0625 -72.234375 C 119.0625 -52.253906 119.550781 -39.5 120.53125 -33.96875 C 121.507812 -28.445312 123.203125 -24.476562 125.609375 -22.0625 C 128.015625 -19.65625 131.984375 -17.738281 137.515625 -16.3125 C 145.722656 -14.351562 152.144531 -13.285156 156.78125 -13.109375 C 166.769531 -12.753906 173.101562 -11.328125 175.78125 -8.828125 C 176.3125 -6.503906 176.578125 -4.539062 176.578125 -2.9375 L 176.578125 -0.796875 C 160.347656 -0.265625 148.394531 0 140.71875 0 C 136.257812 0 128.328125 -0.265625 116.921875 -0.796875 L 80 -0.265625 L 17.125 -0.53125 L 12.046875 -0.53125 Z M 11.5 -8.5625 "/></g></g><g transform="translate(3227.002078, 1482.777619)"><g><path d="M 13.375 -4.28125 C 15.15625 -5.882812 16.671875 -6.863281 17.921875 -7.21875 C 20.953125 -8.113281 26.125 -8.828125 33.4375 -9.359375 C 50.738281 -10.429688 61.441406 -12.035156 65.546875 -14.171875 C 68.046875 -17.742188 69.296875 -22.738281 69.296875 -29.15625 L 69.03125 -47.890625 L 69.296875 -115.84375 L 68.75 -147.953125 L 69.03125 -215.109375 L 67.6875 -291.34375 C 67.507812 -309.539062 66.347656 -319.800781 64.203125 -322.125 C 60.992188 -325.507812 51.453125 -327.46875 35.578125 -328 C 28.804688 -328.175781 22.832031 -328.710938 17.65625 -329.609375 C 15.332031 -330.859375 14.171875 -332.460938 14.171875 -334.421875 C 14.171875 -335.847656 14.617188 -337.546875 15.515625 -339.515625 C 17.117188 -340.398438 18.546875 -340.84375 19.796875 -340.84375 C 22.296875 -340.84375 25.328125 -340.753906 28.890625 -340.578125 C 39.410156 -339.679688 50.289062 -339.234375 61.53125 -339.234375 L 81.328125 -339.78125 L 128.421875 -338.703125 C 151.960938 -338.703125 170.332031 -338.96875 183.53125 -339.5 C 196.726562 -340.039062 205.644531 -340.3125 210.28125 -340.3125 C 214.382812 -340.3125 224.550781 -339.953125 240.78125 -339.234375 L 278.78125 -339.515625 L 283.328125 -338.703125 L 305.53125 -339.515625 L 308.203125 -338.171875 C 309.097656 -336.742188 309.722656 -335.226562 310.078125 -333.625 C 310.078125 -331.125 309.675781 -327.285156 308.875 -322.109375 C 308.070312 -316.941406 307.671875 -313.734375 307.671875 -312.484375 C 307.671875 -293.929688 308.296875 -278.238281 309.546875 -265.40625 C 309.367188 -264.332031 308.832031 -263.617188 307.9375 -263.265625 C 305.976562 -263.265625 304.195312 -263.53125 302.59375 -264.0625 C 300.625 -267.445312 297.988281 -273.421875 294.6875 -281.984375 C 291.394531 -290.546875 286.445312 -300.445312 279.84375 -311.6875 C 275.382812 -319.175781 271.90625 -323.632812 269.40625 -325.0625 C 266.914062 -326.488281 261.742188 -327.203125 253.890625 -327.203125 C 252.285156 -327.203125 244.171875 -327.378906 229.546875 -327.734375 C 225.617188 -327.910156 221.785156 -328 218.046875 -328 L 141.796875 -326.40625 L 135.109375 -326.40625 C 125.296875 -326.40625 119.410156 -325.15625 117.453125 -322.65625 C 114.421875 -318.375 112.90625 -305.800781 112.90625 -284.9375 C 112.90625 -282.789062 113.347656 -261.382812 114.234375 -220.71875 L 114.234375 -183.53125 C 116.203125 -183 118.34375 -182.734375 120.65625 -182.734375 L 125.203125 -182.734375 C 128.234375 -182.734375 132.691406 -182.644531 138.578125 -182.46875 C 147.859375 -182.101562 154.101562 -181.921875 157.3125 -181.921875 C 159.457031 -181.921875 161.332031 -182.007812 162.9375 -182.1875 C 182.195312 -182.90625 206.988281 -183.265625 237.3125 -183.265625 C 246.757812 -184.867188 252.285156 -186.742188 253.890625 -188.890625 C 256.566406 -192.097656 258.570312 -200.476562 259.90625 -214.03125 C 261.25 -227.582031 264.238281 -235.253906 268.875 -237.046875 C 271.195312 -237.046875 273.335938 -236.597656 275.296875 -235.703125 C 275.648438 -234.273438 275.828125 -232.9375 275.828125 -231.6875 C 275.828125 -230.4375 275.648438 -228.382812 275.296875 -225.53125 C 274.410156 -218.9375 273.96875 -198.25 273.96875 -163.46875 C 273.96875 -154.195312 274.457031 -143.851562 275.4375 -132.4375 C 276.414062 -121.019531 276.90625 -114.863281 276.90625 -113.96875 C 276.90625 -112.363281 276.632812 -110.222656 276.09375 -107.546875 C 274.675781 -106.835938 273.519531 -106.484375 272.625 -106.484375 L 270.75 -106.484375 C 267.894531 -111.472656 265.128906 -119.226562 262.453125 -129.75 C 257.816406 -147.769531 252.957031 -159.050781 247.875 -163.59375 C 242.789062 -168.144531 234.539062 -170.421875 223.125 -170.421875 C 220.625 -170.421875 216.070312 -170.285156 209.46875 -170.015625 C 202.875 -169.753906 193.066406 -169.625 180.046875 -169.625 L 162.671875 -169.625 C 137.867188 -169.625 121.632812 -169.085938 113.96875 -168.015625 L 113.703125 -159.1875 L 113.96875 -109.953125 L 113.703125 -78.921875 L 113.96875 -48.6875 C 114.144531 -30.5 115.304688 -19.976562 117.453125 -17.125 C 120.484375 -13.195312 127.082031 -11.234375 137.25 -11.234375 L 153.5625 -11.5 C 154.988281 -11.5 160.5625 -11.363281 170.28125 -11.09375 C 180.007812 -10.832031 192.003906 -10.703125 206.265625 -10.703125 C 240.691406 -10.703125 263.613281 -12.171875 275.03125 -15.109375 C 286.445312 -18.054688 295.851562 -23.273438 303.25 -30.765625 C 310.65625 -38.253906 319.976562 -54.394531 331.21875 -79.1875 C 334.601562 -86.5 337.988281 -90.15625 341.375 -90.15625 C 342.976562 -90.15625 344.765625 -89.441406 346.734375 -88.015625 C 341.554688 -70.359375 338.613281 -58.765625 337.90625 -53.234375 C 335.9375 -40.753906 334.773438 -28.003906 334.421875 -14.984375 C 334.421875 -9.097656 332.992188 -4.191406 330.140625 -0.265625 L 324.265625 -0.265625 L 249.078125 0.53125 L 215.375 0.265625 L 135.109375 1.34375 L 102.46875 1.34375 C 98.363281 1.34375 94.53125 1.429688 90.96875 1.609375 C 58.863281 3.035156 35.226562 3.75 20.0625 3.75 C 17.382812 3.75 15.554688 3.300781 14.578125 2.40625 C 13.597656 1.507812 13.109375 0.171875 13.109375 -1.609375 Z M 13.375 -4.28125 "/></g></g><g transform="translate(3586.578562, 1482.777619)"><g><path d="M -5.078125 -331.75 L -5.34375 -336.03125 C -2.851562 -339.238281 4.1875 -340.84375 15.78125 -340.84375 L 40.671875 -340.578125 L 55.109375 -340.3125 L 61.53125 -340.578125 C 84.894531 -340.578125 98.988281 -340.222656 103.8125 -339.515625 C 103.988281 -337.367188 104.078125 -335.757812 104.078125 -334.6875 C 104.078125 -333.082031 103.894531 -330.765625 103.53125 -327.734375 L 77.59375 -326.671875 C 76.34375 -326.492188 74.644531 -326.046875 72.5 -325.328125 C 71.789062 -323.546875 71.4375 -322.207031 71.4375 -321.3125 C 71.4375 -320.238281 71.96875 -318.546875 73.03125 -316.234375 C 74.457031 -313.203125 75.796875 -309.988281 77.046875 -306.59375 L 93.90625 -259.515625 L 134.03125 -158.921875 C 138.675781 -146.609375 141.800781 -138.671875 143.40625 -135.109375 C 148.394531 -123.867188 154.722656 -108.171875 162.390625 -88.015625 C 165.066406 -81.066406 171.488281 -66 181.65625 -42.8125 C 182.195312 -41.382812 183.269531 -39.0625 184.875 -35.84375 C 192.894531 -48.863281 204.664062 -71.609375 220.1875 -104.078125 C 232.3125 -129.046875 239.890625 -146.253906 242.921875 -155.703125 L 240.78125 -161.0625 L 194.765625 -265.40625 C 188.703125 -278.425781 183.976562 -288.769531 180.59375 -296.4375 C 173.632812 -312.488281 168.550781 -321.671875 165.34375 -323.984375 C 162.132812 -326.304688 152.679688 -327.914062 136.984375 -328.8125 L 131.359375 -330.140625 C 129.929688 -331.742188 129.21875 -333.617188 129.21875 -335.765625 C 129.570312 -337.367188 130.375 -338.617188 131.625 -339.515625 C 137.332031 -339.691406 141.347656 -339.78125 143.671875 -339.78125 L 160.53125 -339.234375 L 169.078125 -339.515625 L 183.796875 -339.515625 L 196.90625 -339.78125 L 210.828125 -339.78125 L 235.96875 -341.109375 C 237.570312 -341.109375 239.976562 -341.019531 243.1875 -340.84375 L 247.46875 -341.109375 C 249.96875 -341.109375 251.84375 -340.53125 253.09375 -339.375 C 254.34375 -338.21875 254.96875 -336.925781 254.96875 -335.5 C 254.96875 -334.25 254.609375 -332.820312 253.890625 -331.21875 C 251.035156 -330.144531 245.953125 -329.253906 238.640625 -328.546875 C 228.117188 -327.296875 222.007812 -326.132812 220.3125 -325.0625 C 218.625 -323.988281 217.78125 -322.5625 217.78125 -320.78125 C 217.78125 -317.394531 224.644531 -299.46875 238.375 -267 L 265.671875 -205.203125 C 274.046875 -221.609375 285.457031 -247.472656 299.90625 -282.796875 C 305.976562 -297.421875 309.015625 -308.207031 309.015625 -315.15625 C 309.015625 -318.90625 307.492188 -322.296875 304.453125 -325.328125 C 302.140625 -327.472656 296.96875 -328.898438 288.9375 -329.609375 L 283.328125 -330.40625 L 278.515625 -332.546875 L 278.234375 -334.6875 C 278.234375 -335.757812 278.679688 -337.273438 279.578125 -339.234375 C 281.359375 -340.660156 282.960938 -341.46875 284.390625 -341.65625 C 287.066406 -342.007812 299.460938 -341.5625 321.578125 -340.3125 L 339.78125 -340.3125 L 351.015625 -340.046875 L 369.734375 -340.3125 C 371.160156 -340.132812 373.300781 -339.6875 376.15625 -338.96875 C 377.582031 -337.539062 378.296875 -336.203125 378.296875 -334.953125 C 378.296875 -332.992188 377.535156 -331.390625 376.015625 -330.140625 C 374.503906 -328.890625 371.078125 -327.820312 365.734375 -326.9375 C 352.171875 -324.613281 342.003906 -321.046875 335.234375 -316.234375 C 330.773438 -312.847656 326.757812 -308.03125 323.1875 -301.78125 L 303.65625 -258.4375 C 299.019531 -245.238281 295.1875 -235.34375 292.15625 -228.75 C 290.90625 -224.644531 288.585938 -219.203125 285.203125 -212.421875 L 274.234375 -187.015625 C 276.191406 -182.367188 279.488281 -174.875 284.125 -164.53125 L 311.6875 -100.59375 C 312.9375 -97.738281 316.632812 -89.800781 322.78125 -76.78125 C 328.9375 -63.757812 334.066406 -51.722656 338.171875 -40.671875 L 342.1875 -53.515625 L 342.71875 -54.84375 L 359.03125 -97.390625 C 364.738281 -110.410156 370.445312 -124.140625 376.15625 -138.578125 L 396.765625 -190.484375 L 427.796875 -278.78125 C 431.003906 -288.945312 433.59375 -298.753906 435.5625 -308.203125 L 436.359375 -312.484375 C 436.890625 -314.441406 437.15625 -315.867188 437.15625 -316.765625 C 437.15625 -319.265625 435.90625 -321.539062 433.40625 -323.59375 C 430.914062 -325.644531 422.085938 -328.453125 406.921875 -332.015625 C 405.492188 -332.546875 404.066406 -333.347656 402.640625 -334.421875 C 402.109375 -336.566406 401.84375 -338.265625 401.84375 -339.515625 L 402.109375 -341.375 C 409.597656 -341.738281 414.328125 -341.921875 416.296875 -341.921875 L 436.890625 -341.375 L 460.171875 -341.65625 L 480.234375 -341.65625 L 488.265625 -341.109375 L 488.53125 -338.4375 C 488.53125 -337.1875 488.351562 -335.3125 488 -332.8125 C 475.15625 -327.820312 467.171875 -324.253906 464.046875 -322.109375 C 460.921875 -319.972656 458.507812 -317.65625 456.8125 -315.15625 C 455.125 -312.664062 451.960938 -305.890625 447.328125 -294.828125 C 446.796875 -293.753906 441.175781 -277.703125 430.46875 -246.671875 C 428.15625 -242.035156 425.75 -235.882812 423.25 -228.21875 C 422.53125 -226.070312 421.015625 -222.234375 418.703125 -216.703125 L 414.421875 -206 L 411.46875 -198.25 C 399.695312 -165.789062 386.769531 -131.8125 372.6875 -96.3125 L 343.78125 -16.046875 L 332.28125 14.453125 C 329.425781 14.804688 327.285156 14.984375 325.859375 14.984375 C 324.609375 14.984375 322.828125 14.894531 320.515625 14.71875 C 318.191406 8.113281 313.109375 -4.367188 305.265625 -22.734375 C 284.929688 -69.472656 266.648438 -108.269531 250.421875 -139.125 L 247.203125 -133.765625 C 238.109375 -116.460938 227.140625 -93.546875 214.296875 -65.015625 L 193.4375 -22.734375 C 184.875 -4.722656 177.914062 7.757812 172.5625 14.71875 L 161.0625 14.984375 L 117.71875 -90.96875 L 81.875 -174.96875 L 50.296875 -254.703125 C 48.160156 -259.867188 46.285156 -264.769531 44.671875 -269.40625 C 43.429688 -272.800781 42.273438 -276.28125 41.203125 -279.84375 C 39.421875 -285.375 34.425781 -297.945312 26.21875 -317.5625 C 23.007812 -322.738281 17.835938 -326.039062 10.703125 -327.46875 C 3.566406 -328.894531 -1.691406 -330.320312 -5.078125 -331.75 Z M -5.078125 -331.75 "/></g></g></g><g fill="#f3eeee" fill-opacity="1"><g transform="translate(1136.559685, 1458.562323)"><g><path d="M 25.15625 -170.953125 C 25.15625 -189.148438 27.335938 -205.335938 31.703125 -219.515625 C 36.078125 -233.691406 43.4375 -249.070312 53.78125 -265.65625 C 64.125 -282.25 76.609375 -296.117188 91.234375 -307.265625 C 105.859375 -318.410156 126.101562 -328.265625 151.96875 -336.828125 C 170.15625 -342.710938 193.160156 -345.65625 220.984375 -345.65625 C 239.710938 -345.65625 258.039062 -343.15625 275.96875 -338.15625 C 293.894531 -333.164062 310.171875 -326.210938 324.796875 -317.296875 C 339.421875 -308.378906 354.046875 -294.644531 368.671875 -276.09375 C 378.835938 -263.257812 386.503906 -249.4375 391.671875 -234.625 C 398.453125 -215.1875 401.84375 -195.125 401.84375 -174.4375 C 401.84375 -150.894531 399.566406 -131.363281 395.015625 -115.84375 C 390.472656 -100.320312 382.847656 -84.984375 372.140625 -69.828125 C 363.765625 -58.054688 349.410156 -44.5 329.078125 -29.15625 C 315.515625 -18.8125 298.65625 -10.472656 278.5 -4.140625 C 258.351562 2.179688 236.597656 5.34375 213.234375 5.34375 C 189.503906 5.34375 168.363281 2.582031 149.8125 -2.9375 C 131.269531 -8.46875 115.800781 -15.203125 103.40625 -23.140625 C 91.007812 -31.078125 78.253906 -42.800781 65.140625 -58.3125 C 52.035156 -73.832031 42.09375 -90.957031 35.3125 -109.6875 C 28.539062 -128.414062 25.15625 -148.835938 25.15625 -170.953125 Z M 210.828125 -4.546875 C 225.804688 -4.546875 241.363281 -6.640625 257.5 -10.828125 C 273.644531 -15.023438 287.957031 -21.984375 300.4375 -31.703125 C 312.925781 -41.421875 322.691406 -52.476562 329.734375 -64.875 C 336.785156 -77.269531 342.453125 -93.1875 346.734375 -112.625 C 351.015625 -132.070312 353.15625 -151.515625 353.15625 -170.953125 C 353.15625 -195.210938 349.585938 -219.203125 342.453125 -242.921875 C 336.921875 -260.941406 327.910156 -277.039062 315.421875 -291.21875 C 302.941406 -305.394531 287.875 -316.363281 270.21875 -324.125 C 252.5625 -331.882812 233.742188 -335.765625 213.765625 -335.765625 C 197.535156 -335.765625 181.660156 -333.085938 166.140625 -327.734375 C 150.617188 -322.378906 137.863281 -315.554688 127.875 -307.265625 C 117.894531 -298.972656 108.625 -287.203125 100.0625 -271.953125 C 91.5 -256.703125 84.988281 -239.890625 80.53125 -221.515625 C 76.070312 -203.148438 73.84375 -186.921875 73.84375 -172.828125 C 73.84375 -158.023438 76.070312 -141.257812 80.53125 -122.53125 C 84.988281 -103.800781 91.097656 -87.566406 98.859375 -73.828125 C 106.617188 -60.097656 116.160156 -47.925781 127.484375 -37.3125 C 138.804688 -26.707031 151.515625 -18.59375 165.609375 -12.96875 C 179.703125 -7.351562 194.773438 -4.546875 210.828125 -4.546875 Z M 210.828125 -4.546875 "/></g></g><g transform="translate(1564.626928, 1458.562323)"><g><path d="M -4.546875 -339.234375 L -2.671875 -343.78125 C 11.773438 -343.78125 26.222656 -343.601562 40.671875 -343.25 L 49.5 -343.25 C 52.175781 -343.25 55.117188 -343.335938 58.328125 -343.515625 C 69.921875 -344.054688 90.878906 -344.328125 121.203125 -344.328125 C 127.265625 -344.328125 133.148438 -344.28125 138.859375 -344.1875 C 144.566406 -344.101562 150.09375 -343.96875 155.4375 -343.78125 C 156.507812 -343.25 157.3125 -342.445312 157.84375 -341.375 L 157.3125 -337.09375 C 156.238281 -335.3125 153.5625 -334.421875 149.28125 -334.421875 L 147.140625 -334.421875 C 142.148438 -334.597656 133.945312 -334.195312 122.53125 -333.21875 C 111.113281 -332.238281 103.625 -330.410156 100.0625 -327.734375 C 97.738281 -325.773438 96.578125 -323.191406 96.578125 -319.984375 C 96.578125 -313.023438 99.519531 -302.585938 105.40625 -288.671875 L 146.078125 -194.234375 L 160.25 -162.9375 C 173.988281 -129.757812 187.546875 -95.867188 200.921875 -61.265625 C 202.347656 -57.515625 203.6875 -54.125 204.9375 -51.09375 L 222.859375 -94.984375 C 232.128906 -117.097656 241.492188 -140.640625 250.953125 -165.609375 L 269.40625 -215.90625 C 269.769531 -216.976562 270.753906 -220.546875 272.359375 -226.609375 C 289.660156 -273.867188 298.3125 -303.742188 298.3125 -316.234375 C 298.3125 -318.910156 297.101562 -321.628906 294.6875 -324.390625 C 292.28125 -327.160156 288.40625 -329.4375 283.0625 -331.21875 C 280.914062 -331.925781 273.957031 -332.992188 262.1875 -334.421875 L 242.390625 -336.828125 C 240.785156 -338.617188 239.984375 -340.132812 239.984375 -341.375 L 240.78125 -343.515625 L 327.46875 -344.328125 L 356.09375 -344.328125 C 365.726562 -344.328125 372.328125 -343.703125 375.890625 -342.453125 L 376.15625 -340.3125 C 376.15625 -338.882812 375.625 -337.007812 374.5625 -334.6875 C 370.28125 -333.257812 366.351562 -332.367188 362.78125 -332.015625 C 347.800781 -330.234375 338.523438 -328.140625 334.953125 -325.734375 C 331.390625 -323.328125 327.644531 -318.195312 323.71875 -310.34375 L 253.359375 -136.453125 C 231.421875 -84.191406 215.816406 -43.703125 206.546875 -14.984375 L 198.78125 8.296875 C 196.457031 9.722656 194.492188 10.4375 192.890625 10.4375 C 190.929688 10.4375 188.789062 10.257812 186.46875 9.90625 C 165.25 -45.03125 147.953125 -87.484375 134.578125 -117.453125 L 52.703125 -303.125 C 46.816406 -314.175781 42.398438 -320.816406 39.453125 -323.046875 C 36.515625 -325.285156 26.21875 -328.453125 8.5625 -332.546875 C 2.320312 -333.972656 -1.15625 -334.867188 -1.875 -335.234375 C -3.125 -336.117188 -4.015625 -337.453125 -4.546875 -339.234375 Z M -4.546875 -339.234375 "/></g></g><g transform="translate(1935.707717, 1458.562323)"><g><path d="M 13.375 -4.28125 C 15.15625 -5.882812 16.671875 -6.863281 17.921875 -7.21875 C 20.953125 -8.113281 26.125 -8.828125 33.4375 -9.359375 C 50.738281 -10.429688 61.441406 -12.035156 65.546875 -14.171875 C 68.046875 -17.742188 69.296875 -22.738281 69.296875 -29.15625 L 69.03125 -47.890625 L 69.296875 -115.84375 L 68.75 -147.953125 L 69.03125 -215.109375 L 67.6875 -291.34375 C 67.507812 -309.539062 66.347656 -319.800781 64.203125 -322.125 C 60.992188 -325.507812 51.453125 -327.46875 35.578125 -328 C 28.804688 -328.175781 22.832031 -328.710938 17.65625 -329.609375 C 15.332031 -330.859375 14.171875 -332.460938 14.171875 -334.421875 C 14.171875 -335.847656 14.617188 -337.546875 15.515625 -339.515625 C 17.117188 -340.398438 18.546875 -340.84375 19.796875 -340.84375 C 22.296875 -340.84375 25.328125 -340.753906 28.890625 -340.578125 C 39.410156 -339.679688 50.289062 -339.234375 61.53125 -339.234375 L 81.328125 -339.78125 L 128.421875 -338.703125 C 151.960938 -338.703125 170.332031 -338.96875 183.53125 -339.5 C 196.726562 -340.039062 205.644531 -340.3125 210.28125 -340.3125 C 214.382812 -340.3125 224.550781 -339.953125 240.78125 -339.234375 L 278.78125 -339.515625 L 283.328125 -338.703125 L 305.53125 -339.515625 L 308.203125 -338.171875 C 309.097656 -336.742188 309.722656 -335.226562 310.078125 -333.625 C 310.078125 -331.125 309.675781 -327.285156 308.875 -322.109375 C 308.070312 -316.941406 307.671875 -313.734375 307.671875 -312.484375 C 307.671875 -293.929688 308.296875 -278.238281 309.546875 -265.40625 C 309.367188 -264.332031 308.832031 -263.617188 307.9375 -263.265625 C 305.976562 -263.265625 304.195312 -263.53125 302.59375 -264.0625 C 300.625 -267.445312 297.988281 -273.421875 294.6875 -281.984375 C 291.394531 -290.546875 286.445312 -300.445312 279.84375 -311.6875 C 275.382812 -319.175781 271.90625 -323.632812 269.40625 -325.0625 C 266.914062 -326.488281 261.742188 -327.203125 253.890625 -327.203125 C 252.285156 -327.203125 244.171875 -327.378906 229.546875 -327.734375 C 225.617188 -327.910156 221.785156 -328 218.046875 -328 L 141.796875 -326.40625 L 135.109375 -326.40625 C 125.296875 -326.40625 119.410156 -325.15625 117.453125 -322.65625 C 114.421875 -318.375 112.90625 -305.800781 112.90625 -284.9375 C 112.90625 -282.789062 113.347656 -261.382812 114.234375 -220.71875 L 114.234375 -183.53125 C 116.203125 -183 118.34375 -182.734375 120.65625 -182.734375 L 125.203125 -182.734375 C 128.234375 -182.734375 132.691406 -182.644531 138.578125 -182.46875 C 147.859375 -182.101562 154.101562 -181.921875 157.3125 -181.921875 C 159.457031 -181.921875 161.332031 -182.007812 162.9375 -182.1875 C 182.195312 -182.90625 206.988281 -183.265625 237.3125 -183.265625 C 246.757812 -184.867188 252.285156 -186.742188 253.890625 -188.890625 C 256.566406 -192.097656 258.570312 -200.476562 259.90625 -214.03125 C 261.25 -227.582031 264.238281 -235.253906 268.875 -237.046875 C 271.195312 -237.046875 273.335938 -236.597656 275.296875 -235.703125 C 275.648438 -234.273438 275.828125 -232.9375 275.828125 -231.6875 C 275.828125 -230.4375 275.648438 -228.382812 275.296875 -225.53125 C 274.410156 -218.9375 273.96875 -198.25 273.96875 -163.46875 C 273.96875 -154.195312 274.457031 -143.851562 275.4375 -132.4375 C 276.414062 -121.019531 276.90625 -114.863281 276.90625 -113.96875 C 276.90625 -112.363281 276.632812 -110.222656 276.09375 -107.546875 C 274.675781 -106.835938 273.519531 -106.484375 272.625 -106.484375 L 270.75 -106.484375 C 267.894531 -111.472656 265.128906 -119.226562 262.453125 -129.75 C 257.816406 -147.769531 252.957031 -159.050781 247.875 -163.59375 C 242.789062 -168.144531 234.539062 -170.421875 223.125 -170.421875 C 220.625 -170.421875 216.070312 -170.285156 209.46875 -170.015625 C 202.875 -169.753906 193.066406 -169.625 180.046875 -169.625 L 162.671875 -169.625 C 137.867188 -169.625 121.632812 -169.085938 113.96875 -168.015625 L 113.703125 -159.1875 L 113.96875 -109.953125 L 113.703125 -78.921875 L 113.96875 -48.6875 C 114.144531 -30.5 115.304688 -19.976562 117.453125 -17.125 C 120.484375 -13.195312 127.082031 -11.234375 137.25 -11.234375 L 153.5625 -11.5 C 154.988281 -11.5 160.5625 -11.363281 170.28125 -11.09375 C 180.007812 -10.832031 192.003906 -10.703125 206.265625 -10.703125 C 240.691406 -10.703125 263.613281 -12.171875 275.03125 -15.109375 C 286.445312 -18.054688 295.851562 -23.273438 303.25 -30.765625 C 310.65625 -38.253906 319.976562 -54.394531 331.21875 -79.1875 C 334.601562 -86.5 337.988281 -90.15625 341.375 -90.15625 C 342.976562 -90.15625 344.765625 -89.441406 346.734375 -88.015625 C 341.554688 -70.359375 338.613281 -58.765625 337.90625 -53.234375 C 335.9375 -40.753906 334.773438 -28.003906 334.421875 -14.984375 C 334.421875 -9.097656 332.992188 -4.191406 330.140625 -0.265625 L 324.265625 -0.265625 L 249.078125 0.53125 L 215.375 0.265625 L 135.109375 1.34375 L 102.46875 1.34375 C 98.363281 1.34375 94.53125 1.429688 90.96875 1.609375 C 58.863281 3.035156 35.226562 3.75 20.0625 3.75 C 17.382812 3.75 15.554688 3.300781 14.578125 2.40625 C 13.597656 1.507812 13.109375 0.171875 13.109375 -1.609375 Z M 13.375 -4.28125 "/></g></g><g transform="translate(2295.284202, 1458.562323)"><g><path d="M 14.984375 -8.03125 C 41.023438 -11.0625 55.738281 -13.203125 59.125 -14.453125 C 61.445312 -15.335938 63.585938 -18.007812 65.546875 -22.46875 L 65.546875 -25.421875 C 65.546875 -29.878906 66.257812 -46.019531 67.6875 -73.84375 C 68.039062 -81.6875 68.21875 -89.351562 68.21875 -96.84375 L 67.421875 -128.6875 L 67.953125 -164.796875 L 67.6875 -231.953125 L 67.953125 -280.109375 C 68.128906 -300.441406 66.566406 -312.835938 63.265625 -317.296875 C 59.972656 -321.753906 51.457031 -324.921875 37.71875 -326.796875 C 23.988281 -328.671875 16.410156 -330.050781 14.984375 -330.9375 C 13.554688 -331.832031 12.84375 -333.265625 12.84375 -335.234375 C 12.84375 -336.472656 13.109375 -338.078125 13.640625 -340.046875 C 15.421875 -341.648438 19.523438 -342.539062 25.953125 -342.71875 C 26.847656 -342.71875 29.300781 -342.941406 33.3125 -343.390625 C 37.320312 -343.835938 41.109375 -344.0625 44.671875 -344.0625 L 66.625 -344.0625 L 136.984375 -344.859375 C 176.753906 -344.859375 204.617188 -341.914062 220.578125 -336.03125 C 236.546875 -330.144531 249.253906 -320.203125 258.703125 -306.203125 C 268.160156 -292.203125 272.890625 -276.550781 272.890625 -259.25 C 272.890625 -226.425781 255.675781 -201.363281 221.25 -184.0625 C 215.363281 -181.03125 210.726562 -178.359375 207.34375 -176.046875 C 213.40625 -163.203125 221.878906 -147.769531 232.765625 -129.75 L 266.734375 -71.4375 C 280.296875 -50.03125 289.660156 -36.609375 294.828125 -31.171875 C 300.003906 -25.734375 306.289062 -21.226562 313.6875 -17.65625 C 321.09375 -14.09375 333.535156 -10.703125 351.015625 -7.484375 C 351.191406 -5.703125 351.28125 -4.273438 351.28125 -3.203125 C 351.28125 -2.140625 351.191406 -0.804688 351.015625 0.796875 C 326.578125 1.160156 297.945312 1.34375 265.125 1.34375 C 262.8125 1.34375 259.601562 1.160156 255.5 0.796875 C 242.832031 -23.453125 227.941406 -50.113281 210.828125 -79.1875 L 171.21875 -151.421875 C 165.875 -158.921875 161.460938 -163.601562 157.984375 -165.46875 C 154.503906 -167.34375 149.910156 -168.28125 144.203125 -168.28125 L 121.46875 -168.015625 L 113.96875 -168.28125 C 113.4375 -162.570312 113.171875 -150.890625 113.171875 -133.234375 L 113.171875 -41.734375 C 112.992188 -38.347656 113.707031 -33.625 115.3125 -27.5625 C 116.738281 -24.164062 119.191406 -21.441406 122.671875 -19.390625 C 126.148438 -17.335938 136.179688 -14.265625 152.765625 -10.171875 L 163.734375 -7.484375 C 165.160156 -5.703125 165.875 -3.296875 165.875 -0.265625 C 161.0625 0.617188 157.671875 1.0625 155.703125 1.0625 C 139.648438 1.0625 128.328125 0.882812 121.734375 0.53125 C 118.335938 0.351562 115.570312 0.265625 113.4375 0.265625 L 77.046875 0.796875 L 41.46875 0.53125 C 39.863281 0.53125 31.75 0.800781 17.125 1.34375 L 11.765625 0.265625 L 11.234375 -2.40625 C 11.234375 -4.007812 12.484375 -5.882812 14.984375 -8.03125 Z M 114.5 -183 C 119.320312 -182.820312 122.890625 -182.734375 125.203125 -182.734375 C 138.046875 -182.734375 152.851562 -184.25 169.625 -187.28125 C 181.394531 -189.59375 190.9375 -193.378906 198.25 -198.640625 C 205.5625 -203.910156 211.671875 -211.71875 216.578125 -222.0625 C 221.484375 -232.40625 223.9375 -243.101562 223.9375 -254.15625 C 223.9375 -266.289062 220.097656 -279.132812 212.421875 -292.6875 C 206.535156 -303.03125 196.59375 -311.679688 182.59375 -318.640625 C 168.59375 -325.597656 151.785156 -329.078125 132.171875 -329.078125 C 127.347656 -329.078125 121.101562 -328.804688 113.4375 -328.265625 C 112.71875 -318.992188 112.359375 -311.863281 112.359375 -306.875 L 113.703125 -256.84375 L 113.4375 -236.234375 C 113.4375 -222.328125 113.789062 -204.582031 114.5 -183 Z M 114.5 -183 "/></g></g><g transform="translate(2637.737996, 1458.562323)"><g><path d="M -4.546875 -339.234375 L -2.671875 -343.78125 C 11.773438 -343.78125 26.222656 -343.601562 40.671875 -343.25 L 49.5 -343.25 C 52.175781 -343.25 55.117188 -343.335938 58.328125 -343.515625 C 69.921875 -344.054688 90.878906 -344.328125 121.203125 -344.328125 C 127.265625 -344.328125 133.148438 -344.28125 138.859375 -344.1875 C 144.566406 -344.101562 150.09375 -343.96875 155.4375 -343.78125 C 156.507812 -343.25 157.3125 -342.445312 157.84375 -341.375 L 157.3125 -337.09375 C 156.238281 -335.3125 153.5625 -334.421875 149.28125 -334.421875 L 147.140625 -334.421875 C 142.148438 -334.597656 133.945312 -334.195312 122.53125 -333.21875 C 111.113281 -332.238281 103.625 -330.410156 100.0625 -327.734375 C 97.738281 -325.773438 96.578125 -323.191406 96.578125 -319.984375 C 96.578125 -313.023438 99.519531 -302.585938 105.40625 -288.671875 L 146.078125 -194.234375 L 160.25 -162.9375 C 173.988281 -129.757812 187.546875 -95.867188 200.921875 -61.265625 C 202.347656 -57.515625 203.6875 -54.125 204.9375 -51.09375 L 222.859375 -94.984375 C 232.128906 -117.097656 241.492188 -140.640625 250.953125 -165.609375 L 269.40625 -215.90625 C 269.769531 -216.976562 270.753906 -220.546875 272.359375 -226.609375 C 289.660156 -273.867188 298.3125 -303.742188 298.3125 -316.234375 C 298.3125 -318.910156 297.101562 -321.628906 294.6875 -324.390625 C 292.28125 -327.160156 288.40625 -329.4375 283.0625 -331.21875 C 280.914062 -331.925781 273.957031 -332.992188 262.1875 -334.421875 L 242.390625 -336.828125 C 240.785156 -338.617188 239.984375 -340.132812 239.984375 -341.375 L 240.78125 -343.515625 L 327.46875 -344.328125 L 356.09375 -344.328125 C 365.726562 -344.328125 372.328125 -343.703125 375.890625 -342.453125 L 376.15625 -340.3125 C 376.15625 -338.882812 375.625 -337.007812 374.5625 -334.6875 C 370.28125 -333.257812 366.351562 -332.367188 362.78125 -332.015625 C 347.800781 -330.234375 338.523438 -328.140625 334.953125 -325.734375 C 331.390625 -323.328125 327.644531 -318.195312 323.71875 -310.34375 L 253.359375 -136.453125 C 231.421875 -84.191406 215.816406 -43.703125 206.546875 -14.984375 L 198.78125 8.296875 C 196.457031 9.722656 194.492188 10.4375 192.890625 10.4375 C 190.929688 10.4375 188.789062 10.257812 186.46875 9.90625 C 165.25 -45.03125 147.953125 -87.484375 134.578125 -117.453125 L 52.703125 -303.125 C 46.816406 -314.175781 42.398438 -320.816406 39.453125 -323.046875 C 36.515625 -325.285156 26.21875 -328.453125 8.5625 -332.546875 C 2.320312 -333.972656 -1.15625 -334.867188 -1.875 -335.234375 C -3.125 -336.117188 -4.015625 -337.453125 -4.546875 -339.234375 Z M -4.546875 -339.234375 "/></g></g><g transform="translate(3008.818785, 1458.562323)"><g><path d="M 11.5 -8.5625 C 15.425781 -10.164062 19.441406 -11.144531 23.546875 -11.5 C 50.835938 -13.28125 66.441406 -16.535156 70.359375 -21.265625 C 74.285156 -25.992188 76.25 -48.867188 76.25 -89.890625 L 75.984375 -117.984375 L 75.984375 -147.421875 L 74.90625 -179.78125 L 75.453125 -198.78125 L 75.171875 -219.65625 L 75.171875 -244.265625 L 74.640625 -255.234375 L 75.171875 -269.140625 C 75.359375 -272.359375 75.453125 -276.101562 75.453125 -280.375 C 75.453125 -291.613281 74.914062 -303.476562 73.84375 -315.96875 C 73.125 -318.457031 72.140625 -320.863281 70.890625 -323.1875 C 64.296875 -326.570312 53.640625 -328.84375 38.921875 -330 C 24.210938 -331.164062 15.875 -332.460938 13.90625 -333.890625 C 12.476562 -334.960938 11.675781 -337.726562 11.5 -342.1875 L 33.984375 -342.1875 L 104.875 -340.578125 C 123.070312 -340.578125 147.328125 -341.113281 177.640625 -342.1875 C 177.640625 -339.332031 177.460938 -336.65625 177.109375 -334.15625 C 173.546875 -333.257812 167.570312 -332.28125 159.1875 -331.21875 C 142.238281 -329.25 131.894531 -327.375 128.15625 -325.59375 C 125.832031 -324.707031 124.132812 -323.191406 123.0625 -321.046875 C 121.28125 -317.835938 120.210938 -311.863281 119.859375 -303.125 L 118.515625 -268.609375 L 119.59375 -149.5625 L 119.59375 -102.46875 C 119.238281 -87.664062 119.0625 -77.585938 119.0625 -72.234375 C 119.0625 -52.253906 119.550781 -39.5 120.53125 -33.96875 C 121.507812 -28.445312 123.203125 -24.476562 125.609375 -22.0625 C 128.015625 -19.65625 131.984375 -17.738281 137.515625 -16.3125 C 145.722656 -14.351562 152.144531 -13.285156 156.78125 -13.109375 C 166.769531 -12.753906 173.101562 -11.328125 175.78125 -8.828125 C 176.3125 -6.503906 176.578125 -4.539062 176.578125 -2.9375 L 176.578125 -0.796875 C 160.347656 -0.265625 148.394531 0 140.71875 0 C 136.257812 0 128.328125 -0.265625 116.921875 -0.796875 L 80 -0.265625 L 17.125 -0.53125 L 12.046875 -0.53125 Z M 11.5 -8.5625 "/></g></g><g transform="translate(3202.786757, 1458.562323)"><g><path d="M 13.375 -4.28125 C 15.15625 -5.882812 16.671875 -6.863281 17.921875 -7.21875 C 20.953125 -8.113281 26.125 -8.828125 33.4375 -9.359375 C 50.738281 -10.429688 61.441406 -12.035156 65.546875 -14.171875 C 68.046875 -17.742188 69.296875 -22.738281 69.296875 -29.15625 L 69.03125 -47.890625 L 69.296875 -115.84375 L 68.75 -147.953125 L 69.03125 -215.109375 L 67.6875 -291.34375 C 67.507812 -309.539062 66.347656 -319.800781 64.203125 -322.125 C 60.992188 -325.507812 51.453125 -327.46875 35.578125 -328 C 28.804688 -328.175781 22.832031 -328.710938 17.65625 -329.609375 C 15.332031 -330.859375 14.171875 -332.460938 14.171875 -334.421875 C 14.171875 -335.847656 14.617188 -337.546875 15.515625 -339.515625 C 17.117188 -340.398438 18.546875 -340.84375 19.796875 -340.84375 C 22.296875 -340.84375 25.328125 -340.753906 28.890625 -340.578125 C 39.410156 -339.679688 50.289062 -339.234375 61.53125 -339.234375 L 81.328125 -339.78125 L 128.421875 -338.703125 C 151.960938 -338.703125 170.332031 -338.96875 183.53125 -339.5 C 196.726562 -340.039062 205.644531 -340.3125 210.28125 -340.3125 C 214.382812 -340.3125 224.550781 -339.953125 240.78125 -339.234375 L 278.78125 -339.515625 L 283.328125 -338.703125 L 305.53125 -339.515625 L 308.203125 -338.171875 C 309.097656 -336.742188 309.722656 -335.226562 310.078125 -333.625 C 310.078125 -331.125 309.675781 -327.285156 308.875 -322.109375 C 308.070312 -316.941406 307.671875 -313.734375 307.671875 -312.484375 C 307.671875 -293.929688 308.296875 -278.238281 309.546875 -265.40625 C 309.367188 -264.332031 308.832031 -263.617188 307.9375 -263.265625 C 305.976562 -263.265625 304.195312 -263.53125 302.59375 -264.0625 C 300.625 -267.445312 297.988281 -273.421875 294.6875 -281.984375 C 291.394531 -290.546875 286.445312 -300.445312 279.84375 -311.6875 C 275.382812 -319.175781 271.90625 -323.632812 269.40625 -325.0625 C 266.914062 -326.488281 261.742188 -327.203125 253.890625 -327.203125 C 252.285156 -327.203125 244.171875 -327.378906 229.546875 -327.734375 C 225.617188 -327.910156 221.785156 -328 218.046875 -328 L 141.796875 -326.40625 L 135.109375 -326.40625 C 125.296875 -326.40625 119.410156 -325.15625 117.453125 -322.65625 C 114.421875 -318.375 112.90625 -305.800781 112.90625 -284.9375 C 112.90625 -282.789062 113.347656 -261.382812 114.234375 -220.71875 L 114.234375 -183.53125 C 116.203125 -183 118.34375 -182.734375 120.65625 -182.734375 L 125.203125 -182.734375 C 128.234375 -182.734375 132.691406 -182.644531 138.578125 -182.46875 C 147.859375 -182.101562 154.101562 -181.921875 157.3125 -181.921875 C 159.457031 -181.921875 161.332031 -182.007812 162.9375 -182.1875 C 182.195312 -182.90625 206.988281 -183.265625 237.3125 -183.265625 C 246.757812 -184.867188 252.285156 -186.742188 253.890625 -188.890625 C 256.566406 -192.097656 258.570312 -200.476562 259.90625 -214.03125 C 261.25 -227.582031 264.238281 -235.253906 268.875 -237.046875 C 271.195312 -237.046875 273.335938 -236.597656 275.296875 -235.703125 C 275.648438 -234.273438 275.828125 -232.9375 275.828125 -231.6875 C 275.828125 -230.4375 275.648438 -228.382812 275.296875 -225.53125 C 274.410156 -218.9375 273.96875 -198.25 273.96875 -163.46875 C 273.96875 -154.195312 274.457031 -143.851562 275.4375 -132.4375 C 276.414062 -121.019531 276.90625 -114.863281 276.90625 -113.96875 C 276.90625 -112.363281 276.632812 -110.222656 276.09375 -107.546875 C 274.675781 -106.835938 273.519531 -106.484375 272.625 -106.484375 L 270.75 -106.484375 C 267.894531 -111.472656 265.128906 -119.226562 262.453125 -129.75 C 257.816406 -147.769531 252.957031 -159.050781 247.875 -163.59375 C 242.789062 -168.144531 234.539062 -170.421875 223.125 -170.421875 C 220.625 -170.421875 216.070312 -170.285156 209.46875 -170.015625 C 202.875 -169.753906 193.066406 -169.625 180.046875 -169.625 L 162.671875 -169.625 C 137.867188 -169.625 121.632812 -169.085938 113.96875 -168.015625 L 113.703125 -159.1875 L 113.96875 -109.953125 L 113.703125 -78.921875 L 113.96875 -48.6875 C 114.144531 -30.5 115.304688 -19.976562 117.453125 -17.125 C 120.484375 -13.195312 127.082031 -11.234375 137.25 -11.234375 L 153.5625 -11.5 C 154.988281 -11.5 160.5625 -11.363281 170.28125 -11.09375 C 180.007812 -10.832031 192.003906 -10.703125 206.265625 -10.703125 C 240.691406 -10.703125 263.613281 -12.171875 275.03125 -15.109375 C 286.445312 -18.054688 295.851562 -23.273438 303.25 -30.765625 C 310.65625 -38.253906 319.976562 -54.394531 331.21875 -79.1875 C 334.601562 -86.5 337.988281 -90.15625 341.375 -90.15625 C 342.976562 -90.15625 344.765625 -89.441406 346.734375 -88.015625 C 341.554688 -70.359375 338.613281 -58.765625 337.90625 -53.234375 C 335.9375 -40.753906 334.773438 -28.003906 334.421875 -14.984375 C 334.421875 -9.097656 332.992188 -4.191406 330.140625 -0.265625 L 324.265625 -0.265625 L 249.078125 0.53125 L 215.375 0.265625 L 135.109375 1.34375 L 102.46875 1.34375 C 98.363281 1.34375 94.53125 1.429688 90.96875 1.609375 C 58.863281 3.035156 35.226562 3.75 20.0625 3.75 C 17.382812 3.75 15.554688 3.300781 14.578125 2.40625 C 13.597656 1.507812 13.109375 0.171875 13.109375 -1.609375 Z M 13.375 -4.28125 "/></g></g><g transform="translate(3562.363241, 1458.562323)"><g><path d="M -5.078125 -331.75 L -5.34375 -336.03125 C -2.851562 -339.238281 4.1875 -340.84375 15.78125 -340.84375 L 40.671875 -340.578125 L 55.109375 -340.3125 L 61.53125 -340.578125 C 84.894531 -340.578125 98.988281 -340.222656 103.8125 -339.515625 C 103.988281 -337.367188 104.078125 -335.757812 104.078125 -334.6875 C 104.078125 -333.082031 103.894531 -330.765625 103.53125 -327.734375 L 77.59375 -326.671875 C 76.34375 -326.492188 74.644531 -326.046875 72.5 -325.328125 C 71.789062 -323.546875 71.4375 -322.207031 71.4375 -321.3125 C 71.4375 -320.238281 71.96875 -318.546875 73.03125 -316.234375 C 74.457031 -313.203125 75.796875 -309.988281 77.046875 -306.59375 L 93.90625 -259.515625 L 134.03125 -158.921875 C 138.675781 -146.609375 141.800781 -138.671875 143.40625 -135.109375 C 148.394531 -123.867188 154.722656 -108.171875 162.390625 -88.015625 C 165.066406 -81.066406 171.488281 -66 181.65625 -42.8125 C 182.195312 -41.382812 183.269531 -39.0625 184.875 -35.84375 C 192.894531 -48.863281 204.664062 -71.609375 220.1875 -104.078125 C 232.3125 -129.046875 239.890625 -146.253906 242.921875 -155.703125 L 240.78125 -161.0625 L 194.765625 -265.40625 C 188.703125 -278.425781 183.976562 -288.769531 180.59375 -296.4375 C 173.632812 -312.488281 168.550781 -321.671875 165.34375 -323.984375 C 162.132812 -326.304688 152.679688 -327.914062 136.984375 -328.8125 L 131.359375 -330.140625 C 129.929688 -331.742188 129.21875 -333.617188 129.21875 -335.765625 C 129.570312 -337.367188 130.375 -338.617188 131.625 -339.515625 C 137.332031 -339.691406 141.347656 -339.78125 143.671875 -339.78125 L 160.53125 -339.234375 L 169.078125 -339.515625 L 183.796875 -339.515625 L 196.90625 -339.78125 L 210.828125 -339.78125 L 235.96875 -341.109375 C 237.570312 -341.109375 239.976562 -341.019531 243.1875 -340.84375 L 247.46875 -341.109375 C 249.96875 -341.109375 251.84375 -340.53125 253.09375 -339.375 C 254.34375 -338.21875 254.96875 -336.925781 254.96875 -335.5 C 254.96875 -334.25 254.609375 -332.820312 253.890625 -331.21875 C 251.035156 -330.144531 245.953125 -329.253906 238.640625 -328.546875 C 228.117188 -327.296875 222.007812 -326.132812 220.3125 -325.0625 C 218.625 -323.988281 217.78125 -322.5625 217.78125 -320.78125 C 217.78125 -317.394531 224.644531 -299.46875 238.375 -267 L 265.671875 -205.203125 C 274.046875 -221.609375 285.457031 -247.472656 299.90625 -282.796875 C 305.976562 -297.421875 309.015625 -308.207031 309.015625 -315.15625 C 309.015625 -318.90625 307.492188 -322.296875 304.453125 -325.328125 C 302.140625 -327.472656 296.96875 -328.898438 288.9375 -329.609375 L 283.328125 -330.40625 L 278.515625 -332.546875 L 278.234375 -334.6875 C 278.234375 -335.757812 278.679688 -337.273438 279.578125 -339.234375 C 281.359375 -340.660156 282.960938 -341.46875 284.390625 -341.65625 C 287.066406 -342.007812 299.460938 -341.5625 321.578125 -340.3125 L 339.78125 -340.3125 L 351.015625 -340.046875 L 369.734375 -340.3125 C 371.160156 -340.132812 373.300781 -339.6875 376.15625 -338.96875 C 377.582031 -337.539062 378.296875 -336.203125 378.296875 -334.953125 C 378.296875 -332.992188 377.535156 -331.390625 376.015625 -330.140625 C 374.503906 -328.890625 371.078125 -327.820312 365.734375 -326.9375 C 352.171875 -324.613281 342.003906 -321.046875 335.234375 -316.234375 C 330.773438 -312.847656 326.757812 -308.03125 323.1875 -301.78125 L 303.65625 -258.4375 C 299.019531 -245.238281 295.1875 -235.34375 292.15625 -228.75 C 290.90625 -224.644531 288.585938 -219.203125 285.203125 -212.421875 L 274.234375 -187.015625 C 276.191406 -182.367188 279.488281 -174.875 284.125 -164.53125 L 311.6875 -100.59375 C 312.9375 -97.738281 316.632812 -89.800781 322.78125 -76.78125 C 328.9375 -63.757812 334.066406 -51.722656 338.171875 -40.671875 L 342.1875 -53.515625 L 342.71875 -54.84375 L 359.03125 -97.390625 C 364.738281 -110.410156 370.445312 -124.140625 376.15625 -138.578125 L 396.765625 -190.484375 L 427.796875 -278.78125 C 431.003906 -288.945312 433.59375 -298.753906 435.5625 -308.203125 L 436.359375 -312.484375 C 436.890625 -314.441406 437.15625 -315.867188 437.15625 -316.765625 C 437.15625 -319.265625 435.90625 -321.539062 433.40625 -323.59375 C 430.914062 -325.644531 422.085938 -328.453125 406.921875 -332.015625 C 405.492188 -332.546875 404.066406 -333.347656 402.640625 -334.421875 C 402.109375 -336.566406 401.84375 -338.265625 401.84375 -339.515625 L 402.109375 -341.375 C 409.597656 -341.738281 414.328125 -341.921875 416.296875 -341.921875 L 436.890625 -341.375 L 460.171875 -341.65625 L 480.234375 -341.65625 L 488.265625 -341.109375 L 488.53125 -338.4375 C 488.53125 -337.1875 488.351562 -335.3125 488 -332.8125 C 475.15625 -327.820312 467.171875 -324.253906 464.046875 -322.109375 C 460.921875 -319.972656 458.507812 -317.65625 456.8125 -315.15625 C 455.125 -312.664062 451.960938 -305.890625 447.328125 -294.828125 C 446.796875 -293.753906 441.175781 -277.703125 430.46875 -246.671875 C 428.15625 -242.035156 425.75 -235.882812 423.25 -228.21875 C 422.53125 -226.070312 421.015625 -222.234375 418.703125 -216.703125 L 414.421875 -206 L 411.46875 -198.25 C 399.695312 -165.789062 386.769531 -131.8125 372.6875 -96.3125 L 343.78125 -16.046875 L 332.28125 14.453125 C 329.425781 14.804688 327.285156 14.984375 325.859375 14.984375 C 324.609375 14.984375 322.828125 14.894531 320.515625 14.71875 C 318.191406 8.113281 313.109375 -4.367188 305.265625 -22.734375 C 284.929688 -69.472656 266.648438 -108.269531 250.421875 -139.125 L 247.203125 -133.765625 C 238.109375 -116.460938 227.140625 -93.546875 214.296875 -65.015625 L 193.4375 -22.734375 C 184.875 -4.722656 177.914062 7.757812 172.5625 14.71875 L 161.0625 14.984375 L 117.71875 -90.96875 L 81.875 -174.96875 L 50.296875 -254.703125 C 48.160156 -259.867188 46.285156 -264.769531 44.671875 -269.40625 C 43.429688 -272.800781 42.273438 -276.28125 41.203125 -279.84375 C 39.421875 -285.375 34.425781 -297.945312 26.21875 -317.5625 C 23.007812 -322.738281 17.835938 -326.039062 10.703125 -327.46875 C 3.566406 -328.894531 -1.691406 -330.320312 -5.078125 -331.75 Z M -5.078125 -331.75 "/></g></g></g></svg>