<svg xmlns="http://www.w3.org/2000/svg" xmlns:xlink="http://www.w3.org/1999/xlink" width="6912" zoomAndPan="magnify" viewBox="0 0 5184 2592.000001" height="3456" preserveAspectRatio="xMidYMid meet" version="1.0"><defs><g/><clipPath id="74775fd1e0"><path d="M 110.929688 120.441406 L 5073.066406 120.441406 L 5073.066406 2470.550781 L 110.929688 2470.550781 Z M 110.929688 120.441406 " clip-rule="nonzero"/></clipPath></defs><path fill="#ffffff" d="M 1 0 L 5183 0 L 5183 2591 L 1 2591 Z M 1 0 " fill-opacity="1" fill-rule="nonzero"/><path fill="#4f0805" d="M 1 0 L 5183 0 L 5183 2591 L 1 2591 Z M 1 0 " fill-opacity="1" fill-rule="nonzero"/><g clip-path="url(#74775fd1e0)"><path stroke-linecap="butt" transform="matrix(0.749711, 0, 0, 0.749711, 110.92887, 120.443002)" fill="none" stroke-linejoin="miter" d="M 0.00109065 -0.00212878 L 6618.736195 -0.00212878 L 6618.736195 3134.686071 L 0.00109065 3134.686071 Z M 0.00109065 -0.00212878 " stroke="#171612" stroke-width="116" stroke-opacity="1" stroke-miterlimit="4"/></g><g fill="#dc8c77" fill-opacity="0.6"><g transform="translate(1209.061062, 1482.777619)"><g><path d="M -2.9375 -8.5625 C -0.445312 -9.988281 1.78125 -10.703125 3.75 -10.703125 L 9.90625 -10.703125 C 11.144531 -10.703125 13.28125 -10.789062 16.3125 -10.96875 C 30.050781 -12.21875 38.171875 -13.46875 40.671875 -14.71875 C 46.910156 -18.101562 52.257812 -23.988281 56.71875 -32.375 C 65.988281 -50.5625 76.421875 -76.332031 88.015625 -109.6875 C 93.546875 -125.5625 97.023438 -135.191406 98.453125 -138.578125 C 102.910156 -149.285156 107.191406 -160.523438 111.296875 -172.296875 L 136.453125 -242.65625 C 140.367188 -253.71875 149.816406 -279.046875 164.796875 -318.640625 C 168.546875 -328.628906 173.097656 -342.003906 178.453125 -358.765625 L 186.203125 -359.3125 L 195.578125 -359.03125 C 203.242188 -343.875 210.019531 -327.554688 215.90625 -310.078125 C 219.113281 -300.804688 224.375 -286.984375 231.6875 -268.609375 L 272.359375 -158.65625 L 294.03125 -98.984375 C 305.445312 -65.097656 312.9375 -44.273438 316.5 -36.515625 C 320.0625 -28.753906 323.363281 -23.628906 326.40625 -21.140625 C 327.289062 -20.421875 330.628906 -19.347656 336.421875 -17.921875 C 342.222656 -16.492188 346.285156 -15.425781 348.609375 -14.71875 C 356.804688 -12.394531 362.515625 -10.429688 365.734375 -8.828125 C 366.441406 -6.867188 366.796875 -5.351562 366.796875 -4.28125 C 366.796875 -3.382812 366.53125 -2.046875 366 -0.265625 C 360.289062 -0.0859375 356.273438 0 353.953125 0 C 344.859375 0 328.804688 -0.265625 305.796875 -0.796875 L 279.046875 -1.609375 L 246.671875 -1.0625 C 244.535156 -1.0625 242.347656 -1.195312 240.109375 -1.46875 C 237.878906 -1.738281 235.960938 -1.875 234.359375 -1.875 L 228.484375 -1.875 C 226.515625 -2.050781 224.726562 -2.585938 223.125 -3.484375 C 223.125 -5.972656 223.570312 -8.378906 224.46875 -10.703125 C 226.601562 -11.773438 228.566406 -12.398438 230.359375 -12.578125 L 258.4375 -14.453125 C 265.75 -14.804688 271.28125 -15.785156 275.03125 -17.390625 C 276.101562 -20.597656 276.640625 -23.003906 276.640625 -24.609375 C 276.640625 -27.816406 274.320312 -36.113281 269.6875 -49.5 C 266.46875 -58.414062 263.65625 -66.882812 261.25 -74.90625 C 258.84375 -82.9375 249.347656 -109.335938 232.765625 -154.109375 C 225.453125 -155.347656 219.03125 -155.96875 213.5 -155.96875 L 156.25 -155.4375 L 139.390625 -155.703125 C 133.328125 -155.703125 126.640625 -155.257812 119.328125 -154.375 C 117.003906 -149.019531 115.488281 -145.179688 114.78125 -142.859375 L 91.234375 -69.296875 C 81.242188 -41.296875 76.25 -25.867188 76.25 -23.015625 C 76.25 -21.398438 77.050781 -18.722656 78.65625 -14.984375 C 82.40625 -13.910156 87.398438 -12.929688 93.640625 -12.046875 L 130.03125 -8.828125 C 131.988281 -7.222656 132.96875 -5.796875 132.96875 -4.546875 C 132.96875 -3.648438 132.703125 -2.3125 132.171875 -0.53125 C 124.140625 -0.351562 117.984375 -0.265625 113.703125 -0.265625 C 99.429688 -0.265625 82.84375 -0.710938 63.9375 -1.609375 C 55.195312 -1.960938 48.957031 -2.140625 45.21875 -2.140625 C 41.46875 -2.140625 34.957031 -1.960938 25.6875 -1.609375 C 19.625 -1.242188 15.253906 -1.0625 12.578125 -1.0625 C 8.296875 -1.0625 2.765625 -1.332031 -4.015625 -1.875 L -4.015625 -3.484375 C -4.015625 -4.722656 -3.65625 -6.414062 -2.9375 -8.5625 Z M 124.671875 -169.078125 C 143.753906 -168.015625 165.515625 -167.484375 189.953125 -167.484375 C 203.867188 -167.484375 216.085938 -167.925781 226.609375 -168.8125 C 224.828125 -175.769531 222.773438 -182.28125 220.453125 -188.34375 C 208.859375 -219.382812 202.4375 -236.507812 201.1875 -239.71875 L 176.84375 -301.515625 L 174.171875 -306.328125 C 173.097656 -304.191406 169.171875 -295.007812 162.390625 -278.78125 C 150.984375 -250.957031 142.78125 -229.285156 137.78125 -213.765625 C 135.46875 -206.804688 133.0625 -199.894531 130.5625 -193.03125 C 128.0625 -186.164062 126.5 -181.347656 125.875 -178.578125 C 125.25 -175.816406 124.3125 -173.007812 123.0625 -170.15625 Z M 124.671875 -169.078125 "/></g></g><g transform="translate(1580.141852, 1482.777619)"><g><path d="M 7.21875 -331.484375 L 7.21875 -339.78125 C 10.25 -340.488281 12.660156 -340.929688 14.453125 -341.109375 L 39.59375 -342.453125 C 60.457031 -344.234375 83.820312 -345.660156 109.6875 -346.734375 C 120.03125 -347.085938 136.351562 -347.265625 158.65625 -347.265625 C 188.976562 -347.265625 211.179688 -345.035156 225.265625 -340.578125 C 245.773438 -333.972656 261.066406 -324.023438 271.140625 -310.734375 C 281.222656 -297.453125 286.265625 -282.695312 286.265625 -266.46875 C 286.265625 -240.070312 267.445312 -217.867188 229.8125 -199.859375 L 228.484375 -197.71875 C 247.742188 -192.539062 263.523438 -185.3125 275.828125 -176.03125 C 288.140625 -166.757812 297.59375 -155.4375 304.1875 -142.0625 C 309.007812 -132.25 311.421875 -119.40625 311.421875 -103.53125 C 311.421875 -76.957031 299.332031 -53.28125 275.15625 -32.5 C 250.988281 -11.726562 217.679688 -1.34375 175.234375 -1.34375 L 135.375 -1.34375 L 94.984375 0 C 59.304688 0.351562 38.4375 0.53125 32.375 0.53125 C 26.132812 0.53125 19.976562 0.265625 13.90625 -0.265625 L 13.90625 -3.203125 C 13.90625 -5.347656 14.351562 -6.867188 15.25 -7.765625 C 16.320312 -8.828125 18.375 -9.71875 21.40625 -10.4375 C 43.695312 -15.070312 56.3125 -18.234375 59.25 -19.921875 C 62.195312 -21.617188 64.207031 -24.34375 65.28125 -28.09375 C 67.414062 -35.226562 68.484375 -53.597656 68.484375 -83.203125 C 68.484375 -85.878906 68.394531 -89.269531 68.21875 -93.375 C 67.863281 -105.320312 67.6875 -112.1875 67.6875 -113.96875 L 67.6875 -141.796875 C 67.6875 -188.878906 67.148438 -229.988281 66.078125 -265.125 L 65.8125 -318.90625 L 65.546875 -325.59375 C 50.390625 -327.738281 37.015625 -329.078125 25.421875 -329.609375 C 17.921875 -329.785156 11.851562 -330.410156 7.21875 -331.484375 Z M 113.4375 -196.109375 C 122.351562 -194.328125 131.71875 -193.4375 141.53125 -193.4375 C 180.050781 -193.4375 206.175781 -201.90625 219.90625 -218.84375 C 233.644531 -235.789062 240.515625 -252.644531 240.515625 -269.40625 C 240.515625 -276.90625 239.3125 -284.53125 236.90625 -292.28125 C 234.5 -300.039062 230.21875 -307.039062 224.0625 -313.28125 C 217.90625 -319.53125 210.28125 -324.171875 201.1875 -327.203125 C 185.675781 -332.367188 169.800781 -334.953125 153.5625 -334.953125 C 138.40625 -334.953125 124.316406 -333.257812 111.296875 -329.875 C 111.117188 -326.132812 111.03125 -323.367188 111.03125 -321.578125 C 111.03125 -319.796875 111.207031 -314.710938 111.5625 -306.328125 C 111.738281 -300.984375 111.828125 -295.632812 111.828125 -290.28125 L 111.03125 -257.90625 L 111.296875 -238.640625 L 113.171875 -200.921875 Z M 176.3125 -14.171875 C 193.96875 -15.421875 208.769531 -19.171875 220.71875 -25.421875 C 226.25 -28.273438 232.800781 -33.398438 240.375 -40.796875 C 247.957031 -48.203125 253.84375 -57.078125 258.03125 -67.421875 C 262.226562 -77.765625 264.328125 -87.753906 264.328125 -97.390625 C 264.328125 -104.703125 262.851562 -113.707031 259.90625 -124.40625 C 256.96875 -135.101562 251.972656 -144.507812 244.921875 -152.625 C 237.878906 -160.738281 227.398438 -167.425781 213.484375 -172.6875 C 199.578125 -177.957031 184.242188 -180.59375 167.484375 -180.59375 C 135.015625 -180.59375 116.820312 -179.96875 112.90625 -178.71875 C 112.726562 -174.613281 112.640625 -171.582031 112.640625 -169.625 L 112.90625 -159.71875 L 112.640625 -139.65625 L 112.640625 -116.921875 C 113.171875 -75.003906 114.148438 -50.207031 115.578125 -42.53125 C 117.003906 -34.863281 121.863281 -28.265625 130.15625 -22.734375 C 138.445312 -17.210938 153.832031 -14.359375 176.3125 -14.171875 Z M 176.3125 -14.171875 "/></g></g><g transform="translate(1916.977262, 1482.777619)"><g><path d="M 25.15625 -170.953125 C 25.15625 -189.148438 27.335938 -205.335938 31.703125 -219.515625 C 36.078125 -233.691406 43.4375 -249.070312 53.78125 -265.65625 C 64.125 -282.25 76.609375 -296.117188 91.234375 -307.265625 C 105.859375 -318.410156 126.101562 -328.265625 151.96875 -336.828125 C 170.15625 -342.710938 193.160156 -345.65625 220.984375 -345.65625 C 239.710938 -345.65625 258.039062 -343.15625 275.96875 -338.15625 C 293.894531 -333.164062 310.171875 -326.210938 324.796875 -317.296875 C 339.421875 -308.378906 354.046875 -294.644531 368.671875 -276.09375 C 378.835938 -263.257812 386.503906 -249.4375 391.671875 -234.625 C 398.453125 -215.1875 401.84375 -195.125 401.84375 -174.4375 C 401.84375 -150.894531 399.566406 -131.363281 395.015625 -115.84375 C 390.472656 -100.320312 382.847656 -84.984375 372.140625 -69.828125 C 363.765625 -58.054688 349.410156 -44.5 329.078125 -29.15625 C 315.515625 -18.8125 298.65625 -10.472656 278.5 -4.140625 C 258.351562 2.179688 236.597656 5.34375 213.234375 5.34375 C 189.503906 5.34375 168.363281 2.582031 149.8125 -2.9375 C 131.269531 -8.46875 115.800781 -15.203125 103.40625 -23.140625 C 91.007812 -31.078125 78.253906 -42.800781 65.140625 -58.3125 C 52.035156 -73.832031 42.09375 -90.957031 35.3125 -109.6875 C 28.539062 -128.414062 25.15625 -148.835938 25.15625 -170.953125 Z M 210.828125 -4.546875 C 225.804688 -4.546875 241.363281 -6.640625 257.5 -10.828125 C 273.644531 -15.023438 287.957031 -21.984375 300.4375 -31.703125 C 312.925781 -41.421875 322.691406 -52.476562 329.734375 -64.875 C 336.785156 -77.269531 342.453125 -93.1875 346.734375 -112.625 C 351.015625 -132.070312 353.15625 -151.515625 353.15625 -170.953125 C 353.15625 -195.210938 349.585938 -219.203125 342.453125 -242.921875 C 336.921875 -260.941406 327.910156 -277.039062 315.421875 -291.21875 C 302.941406 -305.394531 287.875 -316.363281 270.21875 -324.125 C 252.5625 -331.882812 233.742188 -335.765625 213.765625 -335.765625 C 197.535156 -335.765625 181.660156 -333.085938 166.140625 -327.734375 C 150.617188 -322.378906 137.863281 -315.554688 127.875 -307.265625 C 117.894531 -298.972656 108.625 -287.203125 100.0625 -271.953125 C 91.5 -256.703125 84.988281 -239.890625 80.53125 -221.515625 C 76.070312 -203.148438 73.84375 -186.921875 73.84375 -172.828125 C 73.84375 -158.023438 76.070312 -141.257812 80.53125 -122.53125 C 84.988281 -103.800781 91.097656 -87.566406 98.859375 -73.828125 C 106.617188 -60.097656 116.160156 -47.925781 127.484375 -37.3125 C 138.804688 -26.707031 151.515625 -18.59375 165.609375 -12.96875 C 179.703125 -7.351562 194.773438 -4.546875 210.828125 -4.546875 Z M 210.828125 -4.546875 "/></g></g><g transform="translate(2345.044505, 1482.777619)"><g><path d="M 156.25 -343.515625 C 157.132812 -340.484375 157.578125 -338.164062 157.578125 -336.5625 C 157.578125 -335.488281 157.3125 -333.882812 156.78125 -331.75 C 152.144531 -330.5 148.398438 -329.875 145.546875 -329.875 C 144.296875 -329.875 142.195312 -330.003906 139.25 -330.265625 C 136.3125 -330.535156 133.953125 -330.671875 132.171875 -330.671875 C 123.960938 -330.671875 117.453125 -329.066406 112.640625 -325.859375 C 109.421875 -323.898438 107.457031 -321.316406 106.75 -318.109375 L 104.078125 -287.609375 L 104.875 -155.171875 C 105.050781 -106.660156 106.65625 -76.472656 109.6875 -64.609375 C 112.71875 -52.742188 117.800781 -42.976562 124.9375 -35.3125 C 132.070312 -27.644531 142.816406 -21.3125 157.171875 -16.3125 C 171.535156 -11.320312 185.492188 -8.828125 199.046875 -8.828125 C 229.367188 -8.828125 252.597656 -13.195312 268.734375 -21.9375 C 284.878906 -30.675781 296.472656 -42.757812 303.515625 -58.1875 C 310.566406 -73.613281 314.09375 -97.023438 314.09375 -128.421875 C 314.09375 -129.304688 313.828125 -136.441406 313.296875 -149.828125 L 313.296875 -157.578125 C 313.296875 -160.429688 313.472656 -166.003906 313.828125 -174.296875 C 314.179688 -182.597656 314.359375 -187.460938 314.359375 -188.890625 L 310.34375 -265.671875 C 309.09375 -291.523438 307.617188 -306.769531 305.921875 -311.40625 C 304.234375 -316.050781 301.785156 -319.53125 298.578125 -321.84375 C 291.617188 -326.84375 278.421875 -331.304688 258.984375 -335.234375 C 258.085938 -337.722656 257.550781 -340.304688 257.375 -342.984375 C 264.332031 -343.703125 271.195312 -344.0625 277.96875 -344.0625 C 285.101562 -344.0625 292.597656 -343.789062 300.453125 -343.25 C 312.222656 -342.363281 318.640625 -341.921875 319.703125 -341.921875 L 361.984375 -343.25 L 370.28125 -342.984375 L 370 -333.359375 C 348.0625 -330.503906 334.953125 -327.15625 330.671875 -323.3125 C 326.398438 -319.476562 324.265625 -312.390625 324.265625 -302.046875 C 324.265625 -296.523438 324.617188 -284.488281 325.328125 -265.9375 L 327.203125 -210.546875 L 326.9375 -188.609375 L 327.734375 -160.796875 C 327.734375 -125.835938 326.753906 -102.023438 324.796875 -89.359375 C 321.941406 -71.703125 317.882812 -57.703125 312.625 -47.359375 C 307.363281 -37.015625 299.738281 -27.691406 289.75 -19.390625 C 279.757812 -11.097656 266.425781 -4.28125 249.75 1.0625 C 233.070312 6.414062 216.617188 9.09375 200.390625 9.09375 C 174.878906 9.09375 156.507812 7.3125 145.28125 3.75 C 124.757812 -2.5 108.4375 -10.613281 96.3125 -20.59375 C 84.1875 -30.582031 75.804688 -40.570312 71.171875 -50.5625 C 64.921875 -63.757812 61.796875 -83.023438 61.796875 -108.359375 L 61.796875 -126.8125 L 61 -201.71875 L 61.796875 -262.1875 L 61.796875 -302.859375 C 61.796875 -313.203125 60.367188 -320.425781 57.515625 -324.53125 C 55.554688 -327.382812 52.703125 -328.8125 48.953125 -328.8125 L 33.171875 -328.546875 C 21.398438 -328.546875 13.910156 -329.789062 10.703125 -332.28125 C 10.171875 -333.882812 9.90625 -335.3125 9.90625 -336.5625 C 9.90625 -338.164062 10.4375 -339.414062 11.5 -340.3125 C 13.46875 -341.738281 15.878906 -342.453125 18.734375 -342.453125 L 25.6875 -342.453125 L 43.609375 -342.71875 L 85.875 -342.71875 Z M 156.25 -343.515625 "/></g></g><g transform="translate(2733.247984, 1482.777619)"><g><path d="M 9.625 -302.3125 L 20.59375 -342.71875 C 21.3125 -348.070312 22.296875 -351.503906 23.546875 -353.015625 C 24.796875 -354.535156 26.222656 -355.296875 27.828125 -355.296875 C 31.035156 -355.296875 34.691406 -351.457031 38.796875 -343.78125 C 41.828125 -338.257812 44.320312 -334.738281 46.28125 -333.21875 C 48.25 -331.707031 51.101562 -330.679688 54.84375 -330.140625 L 57.515625 -330.40625 L 69.03125 -329.34375 L 132.171875 -328.546875 L 206.8125 -328.8125 L 228.75 -328.8125 L 270.21875 -329.609375 C 272 -329.609375 274.226562 -329.429688 276.90625 -329.078125 C 289.03125 -328.003906 296.519531 -327.46875 299.375 -327.46875 C 302.050781 -327.46875 304.191406 -328.359375 305.796875 -330.140625 C 306.328125 -330.859375 309.269531 -336.925781 314.625 -348.34375 C 316.945312 -353.507812 319.800781 -356.09375 323.1875 -356.09375 C 324.613281 -356.09375 326.398438 -355.738281 328.546875 -355.03125 C 329.429688 -351.457031 329.875 -348.242188 329.875 -345.390625 L 329.609375 -334.6875 L 329.875 -311.953125 C 329.875 -306.421875 329.429688 -288.582031 328.546875 -258.4375 C 328.546875 -256.476562 328.1875 -254.695312 327.46875 -253.09375 C 325.507812 -251.84375 323.816406 -251.21875 322.390625 -251.21875 C 320.960938 -251.21875 319.710938 -251.882812 318.640625 -253.21875 C 317.566406 -254.5625 316.226562 -258.710938 314.625 -265.671875 C 311.0625 -281.722656 306.601562 -293.226562 301.25 -300.1875 C 297.6875 -304.644531 292.554688 -307.851562 285.859375 -309.8125 C 279.171875 -311.769531 263.164062 -312.75 237.84375 -312.75 C 217.507812 -312.75 202.4375 -312.394531 192.625 -311.6875 C 192.269531 -304.550781 192.09375 -298.039062 192.09375 -292.15625 L 194.234375 -126.015625 C 194.234375 -119.410156 193.875 -106.925781 193.15625 -88.5625 L 193.4375 -52.96875 L 193.15625 -33.171875 C 193.15625 -26.929688 194.222656 -22.472656 196.359375 -19.796875 C 198.503906 -17.117188 204.304688 -14.535156 213.765625 -12.046875 C 230.171875 -7.941406 241.140625 -5.441406 246.671875 -4.546875 C 250.054688 -4.191406 252.820312 -3.476562 254.96875 -2.40625 L 254.96875 5.625 L 216.96875 4.546875 C 196.101562 4.367188 180.410156 3.921875 169.890625 3.203125 L 130.828125 5.078125 L 102.203125 6.6875 C 94.171875 6.6875 89.265625 6.507812 87.484375 6.15625 L 83.734375 4.546875 C 84.097656 0.441406 84.898438 -2.1875 86.140625 -3.34375 C 87.390625 -4.5 90.691406 -5.4375 96.046875 -6.15625 C 103.535156 -7.226562 112.363281 -9.144531 122.53125 -11.90625 C 132.695312 -14.664062 139.382812 -17.472656 142.59375 -20.328125 C 144.382812 -21.929688 145.632812 -24.609375 146.34375 -28.359375 C 147.945312 -36.203125 148.75 -51.628906 148.75 -74.640625 L 148.75 -120.125 L 147.6875 -219.375 L 146.609375 -240.78125 L 146.34375 -312.21875 C 135.101562 -313.46875 120.742188 -314.09375 103.265625 -314.09375 C 77.585938 -314.09375 61.984375 -312.488281 56.453125 -309.28125 C 47.710938 -304.28125 34.691406 -289.65625 17.390625 -265.40625 C 11.679688 -256.300781 6.6875 -251.75 2.40625 -251.75 L 0 -252.296875 C -0.707031 -253.359375 -1.0625 -254.335938 -1.0625 -255.234375 C -1.0625 -257.367188 0.359375 -263.789062 3.203125 -274.5 C 6.773438 -288.226562 8.914062 -297.5 9.625 -302.3125 Z M 9.625 -302.3125 "/></g></g><g transform="translate(3070.083393, 1482.777619)"><g/></g><g transform="translate(3207.064911, 1482.777619)"><g><path d="M 3.75 -6.15625 C 9.28125 -9.894531 19.265625 -12.566406 33.703125 -14.171875 C 44.941406 -14.710938 51.632812 -15.695312 53.78125 -17.125 C 55.207031 -18.195312 56.273438 -19.535156 56.984375 -21.140625 C 59.660156 -27.734375 61.625 -45.65625 62.875 -74.90625 C 64.476562 -112.894531 67.0625 -163.460938 70.625 -226.609375 C 73.476562 -274.765625 74.90625 -304.816406 74.90625 -316.765625 L 74.90625 -323.71875 C 62.0625 -326.394531 41.726562 -329.25 13.90625 -332.28125 C 12.125 -334.957031 11.234375 -337.007812 11.234375 -338.4375 C 11.234375 -339.332031 11.859375 -340.9375 13.109375 -343.25 C 16.140625 -344.320312 18.457031 -344.859375 20.0625 -344.859375 C 21.488281 -344.859375 24.609375 -344.5 29.421875 -343.78125 C 38.160156 -342.539062 50.203125 -341.921875 65.546875 -341.921875 C 70.535156 -341.921875 79.097656 -342.273438 91.234375 -342.984375 C 99.796875 -343.515625 104.609375 -343.78125 105.671875 -343.78125 C 108.523438 -343.78125 111.828125 -343.335938 115.578125 -342.453125 C 117.359375 -340.671875 118.695312 -338.976562 119.59375 -337.375 L 130.828125 -312.21875 L 206.546875 -144.734375 L 237.84375 -74.375 C 262.632812 -123.425781 281.894531 -167.035156 295.625 -205.203125 C 296.519531 -208.054688 297.59375 -210.644531 298.84375 -212.96875 C 300.445312 -216 301.960938 -219.382812 303.390625 -223.125 C 304.816406 -226.875 310.613281 -241.144531 320.78125 -265.9375 C 324.882812 -275.925781 328.179688 -284.488281 330.671875 -291.625 C 340.835938 -320.15625 346.816406 -336.472656 348.609375 -340.578125 C 351.992188 -341.828125 354.9375 -342.453125 357.4375 -342.453125 C 360.289062 -342.453125 363.945312 -342.273438 368.40625 -341.921875 C 378.394531 -341.378906 394.625 -341.109375 417.09375 -341.109375 C 431.007812 -341.109375 442.425781 -341.289062 451.34375 -341.65625 C 451.695312 -339.6875 451.875 -338.257812 451.875 -337.375 C 451.875 -336.125 451.609375 -334.425781 451.078125 -332.28125 C 445.367188 -329.25 438.5 -327.554688 430.46875 -327.203125 C 414.59375 -326.304688 404.515625 -325.054688 400.234375 -323.453125 C 395.953125 -321.847656 393.234375 -319.796875 392.078125 -317.296875 C 390.921875 -314.804688 389.894531 -306.601562 389 -292.6875 L 389.265625 -280.375 L 389 -267.546875 C 389 -240.785156 389.710938 -195.835938 391.140625 -132.703125 L 390.875 -80.265625 L 391.140625 -46.546875 C 391.140625 -33.347656 391.765625 -25.546875 393.015625 -23.140625 C 394.265625 -20.734375 397.832031 -18.457031 403.71875 -16.3125 C 413.351562 -13.101562 429.050781 -9.804688 450.8125 -6.421875 C 452.050781 -5.523438 452.671875 -4.363281 452.671875 -2.9375 C 452.671875 -1.332031 452.582031 0.445312 452.40625 2.40625 L 440.109375 2.40625 C 429.578125 2.40625 418.15625 2.09375 405.84375 1.46875 C 393.539062 0.84375 386.945312 0.53125 386.0625 0.53125 C 349.5 0.53125 325.242188 0.890625 313.296875 1.609375 C 305.972656 2.140625 301.332031 2.40625 299.375 2.40625 C 298.125 2.40625 296.785156 2.050781 295.359375 1.34375 L 295.359375 -2.140625 C 295.359375 -3.742188 295.628906 -5.4375 296.171875 -7.21875 C 302.054688 -9.71875 310.082031 -11.414062 320.25 -12.3125 C 331.476562 -15.34375 339.679688 -18.550781 344.859375 -21.9375 C 346.460938 -28.71875 347.265625 -42.539062 347.265625 -63.40625 L 346.46875 -117.453125 C 346.46875 -123.335938 346.78125 -134.304688 347.40625 -150.359375 C 348.03125 -166.410156 348.34375 -192.539062 348.34375 -228.75 C 348.34375 -257.46875 347.628906 -279.226562 346.203125 -294.03125 C 343.171875 -287.78125 337.191406 -274.222656 328.265625 -253.359375 L 324.265625 -243.1875 L 323.71875 -241.59375 L 284.125 -147.953125 L 269.953125 -111.828125 L 251.484375 -67.953125 C 243.460938 -47.796875 236.597656 -29.960938 230.890625 -14.453125 C 228.390625 -7.316406 226.335938 -1.695312 224.734375 2.40625 L 218.578125 2.140625 C 198.421875 -56.710938 174.382812 -117.085938 146.46875 -178.984375 C 118.5625 -240.878906 98.988281 -281.722656 87.75 -301.515625 C 86.320312 -293.847656 84.71875 -271.550781 82.9375 -234.625 C 80.613281 -189.6875 79.453125 -140.191406 79.453125 -86.140625 C 79.453125 -69.203125 80.703125 -50.117188 83.203125 -28.890625 C 83.921875 -22.828125 86.507812 -18.320312 90.96875 -15.375 C 95.425781 -12.4375 106.925781 -10.789062 125.46875 -10.4375 C 132.601562 -10.4375 139.382812 -9.898438 145.8125 -8.828125 C 147.0625 -6.148438 147.6875 -4.1875 147.6875 -2.9375 C 147.6875 -2.050781 147.238281 -0.535156 146.34375 1.609375 L 63.140625 -1.34375 C 57.078125 -1.34375 47.625 -0.894531 34.78125 0 C 27.644531 0.53125 17.390625 0.882812 4.015625 1.0625 Z M 3.75 -6.15625 "/></g></g><g transform="translate(3663.759149, 1482.777619)"><g><path d="M 13.375 -4.28125 C 15.15625 -5.882812 16.671875 -6.863281 17.921875 -7.21875 C 20.953125 -8.113281 26.125 -8.828125 33.4375 -9.359375 C 50.738281 -10.429688 61.441406 -12.035156 65.546875 -14.171875 C 68.046875 -17.742188 69.296875 -22.738281 69.296875 -29.15625 L 69.03125 -47.890625 L 69.296875 -115.84375 L 68.75 -147.953125 L 69.03125 -215.109375 L 67.6875 -291.34375 C 67.507812 -309.539062 66.347656 -319.800781 64.203125 -322.125 C 60.992188 -325.507812 51.453125 -327.46875 35.578125 -328 C 28.804688 -328.175781 22.832031 -328.710938 17.65625 -329.609375 C 15.332031 -330.859375 14.171875 -332.460938 14.171875 -334.421875 C 14.171875 -335.847656 14.617188 -337.546875 15.515625 -339.515625 C 17.117188 -340.398438 18.546875 -340.84375 19.796875 -340.84375 C 22.296875 -340.84375 25.328125 -340.753906 28.890625 -340.578125 C 39.410156 -339.679688 50.289062 -339.234375 61.53125 -339.234375 L 81.328125 -339.78125 L 128.421875 -338.703125 C 151.960938 -338.703125 170.332031 -338.96875 183.53125 -339.5 C 196.726562 -340.039062 205.644531 -340.3125 210.28125 -340.3125 C 214.382812 -340.3125 224.550781 -339.953125 240.78125 -339.234375 L 278.78125 -339.515625 L 283.328125 -338.703125 L 305.53125 -339.515625 L 308.203125 -338.171875 C 309.097656 -336.742188 309.722656 -335.226562 310.078125 -333.625 C 310.078125 -331.125 309.675781 -327.285156 308.875 -322.109375 C 308.070312 -316.941406 307.671875 -313.734375 307.671875 -312.484375 C 307.671875 -293.929688 308.296875 -278.238281 309.546875 -265.40625 C 309.367188 -264.332031 308.832031 -263.617188 307.9375 -263.265625 C 305.976562 -263.265625 304.195312 -263.53125 302.59375 -264.0625 C 300.625 -267.445312 297.988281 -273.421875 294.6875 -281.984375 C 291.394531 -290.546875 286.445312 -300.445312 279.84375 -311.6875 C 275.382812 -319.175781 271.90625 -323.632812 269.40625 -325.0625 C 266.914062 -326.488281 261.742188 -327.203125 253.890625 -327.203125 C 252.285156 -327.203125 244.171875 -327.378906 229.546875 -327.734375 C 225.617188 -327.910156 221.785156 -328 218.046875 -328 L 141.796875 -326.40625 L 135.109375 -326.40625 C 125.296875 -326.40625 119.410156 -325.15625 117.453125 -322.65625 C 114.421875 -318.375 112.90625 -305.800781 112.90625 -284.9375 C 112.90625 -282.789062 113.347656 -261.382812 114.234375 -220.71875 L 114.234375 -183.53125 C 116.203125 -183 118.34375 -182.734375 120.65625 -182.734375 L 125.203125 -182.734375 C 128.234375 -182.734375 132.691406 -182.644531 138.578125 -182.46875 C 147.859375 -182.101562 154.101562 -181.921875 157.3125 -181.921875 C 159.457031 -181.921875 161.332031 -182.007812 162.9375 -182.1875 C 182.195312 -182.90625 206.988281 -183.265625 237.3125 -183.265625 C 246.757812 -184.867188 252.285156 -186.742188 253.890625 -188.890625 C 256.566406 -192.097656 258.570312 -200.476562 259.90625 -214.03125 C 261.25 -227.582031 264.238281 -235.253906 268.875 -237.046875 C 271.195312 -237.046875 273.335938 -236.597656 275.296875 -235.703125 C 275.648438 -234.273438 275.828125 -232.9375 275.828125 -231.6875 C 275.828125 -230.4375 275.648438 -228.382812 275.296875 -225.53125 C 274.410156 -218.9375 273.96875 -198.25 273.96875 -163.46875 C 273.96875 -154.195312 274.457031 -143.851562 275.4375 -132.4375 C 276.414062 -121.019531 276.90625 -114.863281 276.90625 -113.96875 C 276.90625 -112.363281 276.632812 -110.222656 276.09375 -107.546875 C 274.675781 -106.835938 273.519531 -106.484375 272.625 -106.484375 L 270.75 -106.484375 C 267.894531 -111.472656 265.128906 -119.226562 262.453125 -129.75 C 257.816406 -147.769531 252.957031 -159.050781 247.875 -163.59375 C 242.789062 -168.144531 234.539062 -170.421875 223.125 -170.421875 C 220.625 -170.421875 216.070312 -170.285156 209.46875 -170.015625 C 202.875 -169.753906 193.066406 -169.625 180.046875 -169.625 L 162.671875 -169.625 C 137.867188 -169.625 121.632812 -169.085938 113.96875 -168.015625 L 113.703125 -159.1875 L 113.96875 -109.953125 L 113.703125 -78.921875 L 113.96875 -48.6875 C 114.144531 -30.5 115.304688 -19.976562 117.453125 -17.125 C 120.484375 -13.195312 127.082031 -11.234375 137.25 -11.234375 L 153.5625 -11.5 C 154.988281 -11.5 160.5625 -11.363281 170.28125 -11.09375 C 180.007812 -10.832031 192.003906 -10.703125 206.265625 -10.703125 C 240.691406 -10.703125 263.613281 -12.171875 275.03125 -15.109375 C 286.445312 -18.054688 295.851562 -23.273438 303.25 -30.765625 C 310.65625 -38.253906 319.976562 -54.394531 331.21875 -79.1875 C 334.601562 -86.5 337.988281 -90.15625 341.375 -90.15625 C 342.976562 -90.15625 344.765625 -89.441406 346.734375 -88.015625 C 341.554688 -70.359375 338.613281 -58.765625 337.90625 -53.234375 C 335.9375 -40.753906 334.773438 -28.003906 334.421875 -14.984375 C 334.421875 -9.097656 332.992188 -4.191406 330.140625 -0.265625 L 324.265625 -0.265625 L 249.078125 0.53125 L 215.375 0.265625 L 135.109375 1.34375 L 102.46875 1.34375 C 98.363281 1.34375 94.53125 1.429688 90.96875 1.609375 C 58.863281 3.035156 35.226562 3.75 20.0625 3.75 C 17.382812 3.75 15.554688 3.300781 14.578125 2.40625 C 13.597656 1.507812 13.109375 0.171875 13.109375 -1.609375 Z M 13.375 -4.28125 "/></g></g></g><g fill="#f3eeee" fill-opacity="1"><g transform="translate(1184.845742, 1458.562323)"><g><path d="M -2.9375 -8.5625 C -0.445312 -9.988281 1.78125 -10.703125 3.75 -10.703125 L 9.90625 -10.703125 C 11.144531 -10.703125 13.28125 -10.789062 16.3125 -10.96875 C 30.050781 -12.21875 38.171875 -13.46875 40.671875 -14.71875 C 46.910156 -18.101562 52.257812 -23.988281 56.71875 -32.375 C 65.988281 -50.5625 76.421875 -76.332031 88.015625 -109.6875 C 93.546875 -125.5625 97.023438 -135.191406 98.453125 -138.578125 C 102.910156 -149.285156 107.191406 -160.523438 111.296875 -172.296875 L 136.453125 -242.65625 C 140.367188 -253.71875 149.816406 -279.046875 164.796875 -318.640625 C 168.546875 -328.628906 173.097656 -342.003906 178.453125 -358.765625 L 186.203125 -359.3125 L 195.578125 -359.03125 C 203.242188 -343.875 210.019531 -327.554688 215.90625 -310.078125 C 219.113281 -300.804688 224.375 -286.984375 231.6875 -268.609375 L 272.359375 -158.65625 L 294.03125 -98.984375 C 305.445312 -65.097656 312.9375 -44.273438 316.5 -36.515625 C 320.0625 -28.753906 323.363281 -23.628906 326.40625 -21.140625 C 327.289062 -20.421875 330.628906 -19.347656 336.421875 -17.921875 C 342.222656 -16.492188 346.285156 -15.425781 348.609375 -14.71875 C 356.804688 -12.394531 362.515625 -10.429688 365.734375 -8.828125 C 366.441406 -6.867188 366.796875 -5.351562 366.796875 -4.28125 C 366.796875 -3.382812 366.53125 -2.046875 366 -0.265625 C 360.289062 -0.0859375 356.273438 0 353.953125 0 C 344.859375 0 328.804688 -0.265625 305.796875 -0.796875 L 279.046875 -1.609375 L 246.671875 -1.0625 C 244.535156 -1.0625 242.347656 -1.195312 240.109375 -1.46875 C 237.878906 -1.738281 235.960938 -1.875 234.359375 -1.875 L 228.484375 -1.875 C 226.515625 -2.050781 224.726562 -2.585938 223.125 -3.484375 C 223.125 -5.972656 223.570312 -8.378906 224.46875 -10.703125 C 226.601562 -11.773438 228.566406 -12.398438 230.359375 -12.578125 L 258.4375 -14.453125 C 265.75 -14.804688 271.28125 -15.785156 275.03125 -17.390625 C 276.101562 -20.597656 276.640625 -23.003906 276.640625 -24.609375 C 276.640625 -27.816406 274.320312 -36.113281 269.6875 -49.5 C 266.46875 -58.414062 263.65625 -66.882812 261.25 -74.90625 C 258.84375 -82.9375 249.347656 -109.335938 232.765625 -154.109375 C 225.453125 -155.347656 219.03125 -155.96875 213.5 -155.96875 L 156.25 -155.4375 L 139.390625 -155.703125 C 133.328125 -155.703125 126.640625 -155.257812 119.328125 -154.375 C 117.003906 -149.019531 115.488281 -145.179688 114.78125 -142.859375 L 91.234375 -69.296875 C 81.242188 -41.296875 76.25 -25.867188 76.25 -23.015625 C 76.25 -21.398438 77.050781 -18.722656 78.65625 -14.984375 C 82.40625 -13.910156 87.398438 -12.929688 93.640625 -12.046875 L 130.03125 -8.828125 C 131.988281 -7.222656 132.96875 -5.796875 132.96875 -4.546875 C 132.96875 -3.648438 132.703125 -2.3125 132.171875 -0.53125 C 124.140625 -0.351562 117.984375 -0.265625 113.703125 -0.265625 C 99.429688 -0.265625 82.84375 -0.710938 63.9375 -1.609375 C 55.195312 -1.960938 48.957031 -2.140625 45.21875 -2.140625 C 41.46875 -2.140625 34.957031 -1.960938 25.6875 -1.609375 C 19.625 -1.242188 15.253906 -1.0625 12.578125 -1.0625 C 8.296875 -1.0625 2.765625 -1.332031 -4.015625 -1.875 L -4.015625 -3.484375 C -4.015625 -4.722656 -3.65625 -6.414062 -2.9375 -8.5625 Z M 124.671875 -169.078125 C 143.753906 -168.015625 165.515625 -167.484375 189.953125 -167.484375 C 203.867188 -167.484375 216.085938 -167.925781 226.609375 -168.8125 C 224.828125 -175.769531 222.773438 -182.28125 220.453125 -188.34375 C 208.859375 -219.382812 202.4375 -236.507812 201.1875 -239.71875 L 176.84375 -301.515625 L 174.171875 -306.328125 C 173.097656 -304.191406 169.171875 -295.007812 162.390625 -278.78125 C 150.984375 -250.957031 142.78125 -229.285156 137.78125 -213.765625 C 135.46875 -206.804688 133.0625 -199.894531 130.5625 -193.03125 C 128.0625 -186.164062 126.5 -181.347656 125.875 -178.578125 C 125.25 -175.816406 124.3125 -173.007812 123.0625 -170.15625 Z M 124.671875 -169.078125 "/></g></g><g transform="translate(1555.926531, 1458.562323)"><g><path d="M 7.21875 -331.484375 L 7.21875 -339.78125 C 10.25 -340.488281 12.660156 -340.929688 14.453125 -341.109375 L 39.59375 -342.453125 C 60.457031 -344.234375 83.820312 -345.660156 109.6875 -346.734375 C 120.03125 -347.085938 136.351562 -347.265625 158.65625 -347.265625 C 188.976562 -347.265625 211.179688 -345.035156 225.265625 -340.578125 C 245.773438 -333.972656 261.066406 -324.023438 271.140625 -310.734375 C 281.222656 -297.453125 286.265625 -282.695312 286.265625 -266.46875 C 286.265625 -240.070312 267.445312 -217.867188 229.8125 -199.859375 L 228.484375 -197.71875 C 247.742188 -192.539062 263.523438 -185.3125 275.828125 -176.03125 C 288.140625 -166.757812 297.59375 -155.4375 304.1875 -142.0625 C 309.007812 -132.25 311.421875 -119.40625 311.421875 -103.53125 C 311.421875 -76.957031 299.332031 -53.28125 275.15625 -32.5 C 250.988281 -11.726562 217.679688 -1.34375 175.234375 -1.34375 L 135.375 -1.34375 L 94.984375 0 C 59.304688 0.351562 38.4375 0.53125 32.375 0.53125 C 26.132812 0.53125 19.976562 0.265625 13.90625 -0.265625 L 13.90625 -3.203125 C 13.90625 -5.347656 14.351562 -6.867188 15.25 -7.765625 C 16.320312 -8.828125 18.375 -9.71875 21.40625 -10.4375 C 43.695312 -15.070312 56.3125 -18.234375 59.25 -19.921875 C 62.195312 -21.617188 64.207031 -24.34375 65.28125 -28.09375 C 67.414062 -35.226562 68.484375 -53.597656 68.484375 -83.203125 C 68.484375 -85.878906 68.394531 -89.269531 68.21875 -93.375 C 67.863281 -105.320312 67.6875 -112.1875 67.6875 -113.96875 L 67.6875 -141.796875 C 67.6875 -188.878906 67.148438 -229.988281 66.078125 -265.125 L 65.8125 -318.90625 L 65.546875 -325.59375 C 50.390625 -327.738281 37.015625 -329.078125 25.421875 -329.609375 C 17.921875 -329.785156 11.851562 -330.410156 7.21875 -331.484375 Z M 113.4375 -196.109375 C 122.351562 -194.328125 131.71875 -193.4375 141.53125 -193.4375 C 180.050781 -193.4375 206.175781 -201.90625 219.90625 -218.84375 C 233.644531 -235.789062 240.515625 -252.644531 240.515625 -269.40625 C 240.515625 -276.90625 239.3125 -284.53125 236.90625 -292.28125 C 234.5 -300.039062 230.21875 -307.039062 224.0625 -313.28125 C 217.90625 -319.53125 210.28125 -324.171875 201.1875 -327.203125 C 185.675781 -332.367188 169.800781 -334.953125 153.5625 -334.953125 C 138.40625 -334.953125 124.316406 -333.257812 111.296875 -329.875 C 111.117188 -326.132812 111.03125 -323.367188 111.03125 -321.578125 C 111.03125 -319.796875 111.207031 -314.710938 111.5625 -306.328125 C 111.738281 -300.984375 111.828125 -295.632812 111.828125 -290.28125 L 111.03125 -257.90625 L 111.296875 -238.640625 L 113.171875 -200.921875 Z M 176.3125 -14.171875 C 193.96875 -15.421875 208.769531 -19.171875 220.71875 -25.421875 C 226.25 -28.273438 232.800781 -33.398438 240.375 -40.796875 C 247.957031 -48.203125 253.84375 -57.078125 258.03125 -67.421875 C 262.226562 -77.765625 264.328125 -87.753906 264.328125 -97.390625 C 264.328125 -104.703125 262.851562 -113.707031 259.90625 -124.40625 C 256.96875 -135.101562 251.972656 -144.507812 244.921875 -152.625 C 237.878906 -160.738281 227.398438 -167.425781 213.484375 -172.6875 C 199.578125 -177.957031 184.242188 -180.59375 167.484375 -180.59375 C 135.015625 -180.59375 116.820312 -179.96875 112.90625 -178.71875 C 112.726562 -174.613281 112.640625 -171.582031 112.640625 -169.625 L 112.90625 -159.71875 L 112.640625 -139.65625 L 112.640625 -116.921875 C 113.171875 -75.003906 114.148438 -50.207031 115.578125 -42.53125 C 117.003906 -34.863281 121.863281 -28.265625 130.15625 -22.734375 C 138.445312 -17.210938 153.832031 -14.359375 176.3125 -14.171875 Z M 176.3125 -14.171875 "/></g></g><g transform="translate(1892.761941, 1458.562323)"><g><path d="M 25.15625 -170.953125 C 25.15625 -189.148438 27.335938 -205.335938 31.703125 -219.515625 C 36.078125 -233.691406 43.4375 -249.070312 53.78125 -265.65625 C 64.125 -282.25 76.609375 -296.117188 91.234375 -307.265625 C 105.859375 -318.410156 126.101562 -328.265625 151.96875 -336.828125 C 170.15625 -342.710938 193.160156 -345.65625 220.984375 -345.65625 C 239.710938 -345.65625 258.039062 -343.15625 275.96875 -338.15625 C 293.894531 -333.164062 310.171875 -326.210938 324.796875 -317.296875 C 339.421875 -308.378906 354.046875 -294.644531 368.671875 -276.09375 C 378.835938 -263.257812 386.503906 -249.4375 391.671875 -234.625 C 398.453125 -215.1875 401.84375 -195.125 401.84375 -174.4375 C 401.84375 -150.894531 399.566406 -131.363281 395.015625 -115.84375 C 390.472656 -100.320312 382.847656 -84.984375 372.140625 -69.828125 C 363.765625 -58.054688 349.410156 -44.5 329.078125 -29.15625 C 315.515625 -18.8125 298.65625 -10.472656 278.5 -4.140625 C 258.351562 2.179688 236.597656 5.34375 213.234375 5.34375 C 189.503906 5.34375 168.363281 2.582031 149.8125 -2.9375 C 131.269531 -8.46875 115.800781 -15.203125 103.40625 -23.140625 C 91.007812 -31.078125 78.253906 -42.800781 65.140625 -58.3125 C 52.035156 -73.832031 42.09375 -90.957031 35.3125 -109.6875 C 28.539062 -128.414062 25.15625 -148.835938 25.15625 -170.953125 Z M 210.828125 -4.546875 C 225.804688 -4.546875 241.363281 -6.640625 257.5 -10.828125 C 273.644531 -15.023438 287.957031 -21.984375 300.4375 -31.703125 C 312.925781 -41.421875 322.691406 -52.476562 329.734375 -64.875 C 336.785156 -77.269531 342.453125 -93.1875 346.734375 -112.625 C 351.015625 -132.070312 353.15625 -151.515625 353.15625 -170.953125 C 353.15625 -195.210938 349.585938 -219.203125 342.453125 -242.921875 C 336.921875 -260.941406 327.910156 -277.039062 315.421875 -291.21875 C 302.941406 -305.394531 287.875 -316.363281 270.21875 -324.125 C 252.5625 -331.882812 233.742188 -335.765625 213.765625 -335.765625 C 197.535156 -335.765625 181.660156 -333.085938 166.140625 -327.734375 C 150.617188 -322.378906 137.863281 -315.554688 127.875 -307.265625 C 117.894531 -298.972656 108.625 -287.203125 100.0625 -271.953125 C 91.5 -256.703125 84.988281 -239.890625 80.53125 -221.515625 C 76.070312 -203.148438 73.84375 -186.921875 73.84375 -172.828125 C 73.84375 -158.023438 76.070312 -141.257812 80.53125 -122.53125 C 84.988281 -103.800781 91.097656 -87.566406 98.859375 -73.828125 C 106.617188 -60.097656 116.160156 -47.925781 127.484375 -37.3125 C 138.804688 -26.707031 151.515625 -18.59375 165.609375 -12.96875 C 179.703125 -7.351562 194.773438 -4.546875 210.828125 -4.546875 Z M 210.828125 -4.546875 "/></g></g><g transform="translate(2320.829184, 1458.562323)"><g><path d="M 156.25 -343.515625 C 157.132812 -340.484375 157.578125 -338.164062 157.578125 -336.5625 C 157.578125 -335.488281 157.3125 -333.882812 156.78125 -331.75 C 152.144531 -330.5 148.398438 -329.875 145.546875 -329.875 C 144.296875 -329.875 142.195312 -330.003906 139.25 -330.265625 C 136.3125 -330.535156 133.953125 -330.671875 132.171875 -330.671875 C 123.960938 -330.671875 117.453125 -329.066406 112.640625 -325.859375 C 109.421875 -323.898438 107.457031 -321.316406 106.75 -318.109375 L 104.078125 -287.609375 L 104.875 -155.171875 C 105.050781 -106.660156 106.65625 -76.472656 109.6875 -64.609375 C 112.71875 -52.742188 117.800781 -42.976562 124.9375 -35.3125 C 132.070312 -27.644531 142.816406 -21.3125 157.171875 -16.3125 C 171.535156 -11.320312 185.492188 -8.828125 199.046875 -8.828125 C 229.367188 -8.828125 252.597656 -13.195312 268.734375 -21.9375 C 284.878906 -30.675781 296.472656 -42.757812 303.515625 -58.1875 C 310.566406 -73.613281 314.09375 -97.023438 314.09375 -128.421875 C 314.09375 -129.304688 313.828125 -136.441406 313.296875 -149.828125 L 313.296875 -157.578125 C 313.296875 -160.429688 313.472656 -166.003906 313.828125 -174.296875 C 314.179688 -182.597656 314.359375 -187.460938 314.359375 -188.890625 L 310.34375 -265.671875 C 309.09375 -291.523438 307.617188 -306.769531 305.921875 -311.40625 C 304.234375 -316.050781 301.785156 -319.53125 298.578125 -321.84375 C 291.617188 -326.84375 278.421875 -331.304688 258.984375 -335.234375 C 258.085938 -337.722656 257.550781 -340.304688 257.375 -342.984375 C 264.332031 -343.703125 271.195312 -344.0625 277.96875 -344.0625 C 285.101562 -344.0625 292.597656 -343.789062 300.453125 -343.25 C 312.222656 -342.363281 318.640625 -341.921875 319.703125 -341.921875 L 361.984375 -343.25 L 370.28125 -342.984375 L 370 -333.359375 C 348.0625 -330.503906 334.953125 -327.15625 330.671875 -323.3125 C 326.398438 -319.476562 324.265625 -312.390625 324.265625 -302.046875 C 324.265625 -296.523438 324.617188 -284.488281 325.328125 -265.9375 L 327.203125 -210.546875 L 326.9375 -188.609375 L 327.734375 -160.796875 C 327.734375 -125.835938 326.753906 -102.023438 324.796875 -89.359375 C 321.941406 -71.703125 317.882812 -57.703125 312.625 -47.359375 C 307.363281 -37.015625 299.738281 -27.691406 289.75 -19.390625 C 279.757812 -11.097656 266.425781 -4.28125 249.75 1.0625 C 233.070312 6.414062 216.617188 9.09375 200.390625 9.09375 C 174.878906 9.09375 156.507812 7.3125 145.28125 3.75 C 124.757812 -2.5 108.4375 -10.613281 96.3125 -20.59375 C 84.1875 -30.582031 75.804688 -40.570312 71.171875 -50.5625 C 64.921875 -63.757812 61.796875 -83.023438 61.796875 -108.359375 L 61.796875 -126.8125 L 61 -201.71875 L 61.796875 -262.1875 L 61.796875 -302.859375 C 61.796875 -313.203125 60.367188 -320.425781 57.515625 -324.53125 C 55.554688 -327.382812 52.703125 -328.8125 48.953125 -328.8125 L 33.171875 -328.546875 C 21.398438 -328.546875 13.910156 -329.789062 10.703125 -332.28125 C 10.171875 -333.882812 9.90625 -335.3125 9.90625 -336.5625 C 9.90625 -338.164062 10.4375 -339.414062 11.5 -340.3125 C 13.46875 -341.738281 15.878906 -342.453125 18.734375 -342.453125 L 25.6875 -342.453125 L 43.609375 -342.71875 L 85.875 -342.71875 Z M 156.25 -343.515625 "/></g></g><g transform="translate(2709.032663, 1458.562323)"><g><path d="M 9.625 -302.3125 L 20.59375 -342.71875 C 21.3125 -348.070312 22.296875 -351.503906 23.546875 -353.015625 C 24.796875 -354.535156 26.222656 -355.296875 27.828125 -355.296875 C 31.035156 -355.296875 34.691406 -351.457031 38.796875 -343.78125 C 41.828125 -338.257812 44.320312 -334.738281 46.28125 -333.21875 C 48.25 -331.707031 51.101562 -330.679688 54.84375 -330.140625 L 57.515625 -330.40625 L 69.03125 -329.34375 L 132.171875 -328.546875 L 206.8125 -328.8125 L 228.75 -328.8125 L 270.21875 -329.609375 C 272 -329.609375 274.226562 -329.429688 276.90625 -329.078125 C 289.03125 -328.003906 296.519531 -327.46875 299.375 -327.46875 C 302.050781 -327.46875 304.191406 -328.359375 305.796875 -330.140625 C 306.328125 -330.859375 309.269531 -336.925781 314.625 -348.34375 C 316.945312 -353.507812 319.800781 -356.09375 323.1875 -356.09375 C 324.613281 -356.09375 326.398438 -355.738281 328.546875 -355.03125 C 329.429688 -351.457031 329.875 -348.242188 329.875 -345.390625 L 329.609375 -334.6875 L 329.875 -311.953125 C 329.875 -306.421875 329.429688 -288.582031 328.546875 -258.4375 C 328.546875 -256.476562 328.1875 -254.695312 327.46875 -253.09375 C 325.507812 -251.84375 323.816406 -251.21875 322.390625 -251.21875 C 320.960938 -251.21875 319.710938 -251.882812 318.640625 -253.21875 C 317.566406 -254.5625 316.226562 -258.710938 314.625 -265.671875 C 311.0625 -281.722656 306.601562 -293.226562 301.25 -300.1875 C 297.6875 -304.644531 292.554688 -307.851562 285.859375 -309.8125 C 279.171875 -311.769531 263.164062 -312.75 237.84375 -312.75 C 217.507812 -312.75 202.4375 -312.394531 192.625 -311.6875 C 192.269531 -304.550781 192.09375 -298.039062 192.09375 -292.15625 L 194.234375 -126.015625 C 194.234375 -119.410156 193.875 -106.925781 193.15625 -88.5625 L 193.4375 -52.96875 L 193.15625 -33.171875 C 193.15625 -26.929688 194.222656 -22.472656 196.359375 -19.796875 C 198.503906 -17.117188 204.304688 -14.535156 213.765625 -12.046875 C 230.171875 -7.941406 241.140625 -5.441406 246.671875 -4.546875 C 250.054688 -4.191406 252.820312 -3.476562 254.96875 -2.40625 L 254.96875 5.625 L 216.96875 4.546875 C 196.101562 4.367188 180.410156 3.921875 169.890625 3.203125 L 130.828125 5.078125 L 102.203125 6.6875 C 94.171875 6.6875 89.265625 6.507812 87.484375 6.15625 L 83.734375 4.546875 C 84.097656 0.441406 84.898438 -2.1875 86.140625 -3.34375 C 87.390625 -4.5 90.691406 -5.4375 96.046875 -6.15625 C 103.535156 -7.226562 112.363281 -9.144531 122.53125 -11.90625 C 132.695312 -14.664062 139.382812 -17.472656 142.59375 -20.328125 C 144.382812 -21.929688 145.632812 -24.609375 146.34375 -28.359375 C 147.945312 -36.203125 148.75 -51.628906 148.75 -74.640625 L 148.75 -120.125 L 147.6875 -219.375 L 146.609375 -240.78125 L 146.34375 -312.21875 C 135.101562 -313.46875 120.742188 -314.09375 103.265625 -314.09375 C 77.585938 -314.09375 61.984375 -312.488281 56.453125 -309.28125 C 47.710938 -304.28125 34.691406 -289.65625 17.390625 -265.40625 C 11.679688 -256.300781 6.6875 -251.75 2.40625 -251.75 L 0 -252.296875 C -0.707031 -253.359375 -1.0625 -254.335938 -1.0625 -255.234375 C -1.0625 -257.367188 0.359375 -263.789062 3.203125 -274.5 C 6.773438 -288.226562 8.914062 -297.5 9.625 -302.3125 Z M 9.625 -302.3125 "/></g></g><g transform="translate(3045.868073, 1458.562323)"><g/></g><g transform="translate(3182.849591, 1458.562323)"><g><path d="M 3.75 -6.15625 C 9.28125 -9.894531 19.265625 -12.566406 33.703125 -14.171875 C 44.941406 -14.710938 51.632812 -15.695312 53.78125 -17.125 C 55.207031 -18.195312 56.273438 -19.535156 56.984375 -21.140625 C 59.660156 -27.734375 61.625 -45.65625 62.875 -74.90625 C 64.476562 -112.894531 67.0625 -163.460938 70.625 -226.609375 C 73.476562 -274.765625 74.90625 -304.816406 74.90625 -316.765625 L 74.90625 -323.71875 C 62.0625 -326.394531 41.726562 -329.25 13.90625 -332.28125 C 12.125 -334.957031 11.234375 -337.007812 11.234375 -338.4375 C 11.234375 -339.332031 11.859375 -340.9375 13.109375 -343.25 C 16.140625 -344.320312 18.457031 -344.859375 20.0625 -344.859375 C 21.488281 -344.859375 24.609375 -344.5 29.421875 -343.78125 C 38.160156 -342.539062 50.203125 -341.921875 65.546875 -341.921875 C 70.535156 -341.921875 79.097656 -342.273438 91.234375 -342.984375 C 99.796875 -343.515625 104.609375 -343.78125 105.671875 -343.78125 C 108.523438 -343.78125 111.828125 -343.335938 115.578125 -342.453125 C 117.359375 -340.671875 118.695312 -338.976562 119.59375 -337.375 L 130.828125 -312.21875 L 206.546875 -144.734375 L 237.84375 -74.375 C 262.632812 -123.425781 281.894531 -167.035156 295.625 -205.203125 C 296.519531 -208.054688 297.59375 -210.644531 298.84375 -212.96875 C 300.445312 -216 301.960938 -219.382812 303.390625 -223.125 C 304.816406 -226.875 310.613281 -241.144531 320.78125 -265.9375 C 324.882812 -275.925781 328.179688 -284.488281 330.671875 -291.625 C 340.835938 -320.15625 346.816406 -336.472656 348.609375 -340.578125 C 351.992188 -341.828125 354.9375 -342.453125 357.4375 -342.453125 C 360.289062 -342.453125 363.945312 -342.273438 368.40625 -341.921875 C 378.394531 -341.378906 394.625 -341.109375 417.09375 -341.109375 C 431.007812 -341.109375 442.425781 -341.289062 451.34375 -341.65625 C 451.695312 -339.6875 451.875 -338.257812 451.875 -337.375 C 451.875 -336.125 451.609375 -334.425781 451.078125 -332.28125 C 445.367188 -329.25 438.5 -327.554688 430.46875 -327.203125 C 414.59375 -326.304688 404.515625 -325.054688 400.234375 -323.453125 C 395.953125 -321.847656 393.234375 -319.796875 392.078125 -317.296875 C 390.921875 -314.804688 389.894531 -306.601562 389 -292.6875 L 389.265625 -280.375 L 389 -267.546875 C 389 -240.785156 389.710938 -195.835938 391.140625 -132.703125 L 390.875 -80.265625 L 391.140625 -46.546875 C 391.140625 -33.347656 391.765625 -25.546875 393.015625 -23.140625 C 394.265625 -20.734375 397.832031 -18.457031 403.71875 -16.3125 C 413.351562 -13.101562 429.050781 -9.804688 450.8125 -6.421875 C 452.050781 -5.523438 452.671875 -4.363281 452.671875 -2.9375 C 452.671875 -1.332031 452.582031 0.445312 452.40625 2.40625 L 440.109375 2.40625 C 429.578125 2.40625 418.15625 2.09375 405.84375 1.46875 C 393.539062 0.84375 386.945312 0.53125 386.0625 0.53125 C 349.5 0.53125 325.242188 0.890625 313.296875 1.609375 C 305.972656 2.140625 301.332031 2.40625 299.375 2.40625 C 298.125 2.40625 296.785156 2.050781 295.359375 1.34375 L 295.359375 -2.140625 C 295.359375 -3.742188 295.628906 -5.4375 296.171875 -7.21875 C 302.054688 -9.71875 310.082031 -11.414062 320.25 -12.3125 C 331.476562 -15.34375 339.679688 -18.550781 344.859375 -21.9375 C 346.460938 -28.71875 347.265625 -42.539062 347.265625 -63.40625 L 346.46875 -117.453125 C 346.46875 -123.335938 346.78125 -134.304688 347.40625 -150.359375 C 348.03125 -166.410156 348.34375 -192.539062 348.34375 -228.75 C 348.34375 -257.46875 347.628906 -279.226562 346.203125 -294.03125 C 343.171875 -287.78125 337.191406 -274.222656 328.265625 -253.359375 L 324.265625 -243.1875 L 323.71875 -241.59375 L 284.125 -147.953125 L 269.953125 -111.828125 L 251.484375 -67.953125 C 243.460938 -47.796875 236.597656 -29.960938 230.890625 -14.453125 C 228.390625 -7.316406 226.335938 -1.695312 224.734375 2.40625 L 218.578125 2.140625 C 198.421875 -56.710938 174.382812 -117.085938 146.46875 -178.984375 C 118.5625 -240.878906 98.988281 -281.722656 87.75 -301.515625 C 86.320312 -293.847656 84.71875 -271.550781 82.9375 -234.625 C 80.613281 -189.6875 79.453125 -140.191406 79.453125 -86.140625 C 79.453125 -69.203125 80.703125 -50.117188 83.203125 -28.890625 C 83.921875 -22.828125 86.507812 -18.320312 90.96875 -15.375 C 95.425781 -12.4375 106.925781 -10.789062 125.46875 -10.4375 C 132.601562 -10.4375 139.382812 -9.898438 145.8125 -8.828125 C 147.0625 -6.148438 147.6875 -4.1875 147.6875 -2.9375 C 147.6875 -2.050781 147.238281 -0.535156 146.34375 1.609375 L 63.140625 -1.34375 C 57.078125 -1.34375 47.625 -0.894531 34.78125 0 C 27.644531 0.53125 17.390625 0.882812 4.015625 1.0625 Z M 3.75 -6.15625 "/></g></g><g transform="translate(3639.543828, 1458.562323)"><g><path d="M 13.375 -4.28125 C 15.15625 -5.882812 16.671875 -6.863281 17.921875 -7.21875 C 20.953125 -8.113281 26.125 -8.828125 33.4375 -9.359375 C 50.738281 -10.429688 61.441406 -12.035156 65.546875 -14.171875 C 68.046875 -17.742188 69.296875 -22.738281 69.296875 -29.15625 L 69.03125 -47.890625 L 69.296875 -115.84375 L 68.75 -147.953125 L 69.03125 -215.109375 L 67.6875 -291.34375 C 67.507812 -309.539062 66.347656 -319.800781 64.203125 -322.125 C 60.992188 -325.507812 51.453125 -327.46875 35.578125 -328 C 28.804688 -328.175781 22.832031 -328.710938 17.65625 -329.609375 C 15.332031 -330.859375 14.171875 -332.460938 14.171875 -334.421875 C 14.171875 -335.847656 14.617188 -337.546875 15.515625 -339.515625 C 17.117188 -340.398438 18.546875 -340.84375 19.796875 -340.84375 C 22.296875 -340.84375 25.328125 -340.753906 28.890625 -340.578125 C 39.410156 -339.679688 50.289062 -339.234375 61.53125 -339.234375 L 81.328125 -339.78125 L 128.421875 -338.703125 C 151.960938 -338.703125 170.332031 -338.96875 183.53125 -339.5 C 196.726562 -340.039062 205.644531 -340.3125 210.28125 -340.3125 C 214.382812 -340.3125 224.550781 -339.953125 240.78125 -339.234375 L 278.78125 -339.515625 L 283.328125 -338.703125 L 305.53125 -339.515625 L 308.203125 -338.171875 C 309.097656 -336.742188 309.722656 -335.226562 310.078125 -333.625 C 310.078125 -331.125 309.675781 -327.285156 308.875 -322.109375 C 308.070312 -316.941406 307.671875 -313.734375 307.671875 -312.484375 C 307.671875 -293.929688 308.296875 -278.238281 309.546875 -265.40625 C 309.367188 -264.332031 308.832031 -263.617188 307.9375 -263.265625 C 305.976562 -263.265625 304.195312 -263.53125 302.59375 -264.0625 C 300.625 -267.445312 297.988281 -273.421875 294.6875 -281.984375 C 291.394531 -290.546875 286.445312 -300.445312 279.84375 -311.6875 C 275.382812 -319.175781 271.90625 -323.632812 269.40625 -325.0625 C 266.914062 -326.488281 261.742188 -327.203125 253.890625 -327.203125 C 252.285156 -327.203125 244.171875 -327.378906 229.546875 -327.734375 C 225.617188 -327.910156 221.785156 -328 218.046875 -328 L 141.796875 -326.40625 L 135.109375 -326.40625 C 125.296875 -326.40625 119.410156 -325.15625 117.453125 -322.65625 C 114.421875 -318.375 112.90625 -305.800781 112.90625 -284.9375 C 112.90625 -282.789062 113.347656 -261.382812 114.234375 -220.71875 L 114.234375 -183.53125 C 116.203125 -183 118.34375 -182.734375 120.65625 -182.734375 L 125.203125 -182.734375 C 128.234375 -182.734375 132.691406 -182.644531 138.578125 -182.46875 C 147.859375 -182.101562 154.101562 -181.921875 157.3125 -181.921875 C 159.457031 -181.921875 161.332031 -182.007812 162.9375 -182.1875 C 182.195312 -182.90625 206.988281 -183.265625 237.3125 -183.265625 C 246.757812 -184.867188 252.285156 -186.742188 253.890625 -188.890625 C 256.566406 -192.097656 258.570312 -200.476562 259.90625 -214.03125 C 261.25 -227.582031 264.238281 -235.253906 268.875 -237.046875 C 271.195312 -237.046875 273.335938 -236.597656 275.296875 -235.703125 C 275.648438 -234.273438 275.828125 -232.9375 275.828125 -231.6875 C 275.828125 -230.4375 275.648438 -228.382812 275.296875 -225.53125 C 274.410156 -218.9375 273.96875 -198.25 273.96875 -163.46875 C 273.96875 -154.195312 274.457031 -143.851562 275.4375 -132.4375 C 276.414062 -121.019531 276.90625 -114.863281 276.90625 -113.96875 C 276.90625 -112.363281 276.632812 -110.222656 276.09375 -107.546875 C 274.675781 -106.835938 273.519531 -106.484375 272.625 -106.484375 L 270.75 -106.484375 C 267.894531 -111.472656 265.128906 -119.226562 262.453125 -129.75 C 257.816406 -147.769531 252.957031 -159.050781 247.875 -163.59375 C 242.789062 -168.144531 234.539062 -170.421875 223.125 -170.421875 C 220.625 -170.421875 216.070312 -170.285156 209.46875 -170.015625 C 202.875 -169.753906 193.066406 -169.625 180.046875 -169.625 L 162.671875 -169.625 C 137.867188 -169.625 121.632812 -169.085938 113.96875 -168.015625 L 113.703125 -159.1875 L 113.96875 -109.953125 L 113.703125 -78.921875 L 113.96875 -48.6875 C 114.144531 -30.5 115.304688 -19.976562 117.453125 -17.125 C 120.484375 -13.195312 127.082031 -11.234375 137.25 -11.234375 L 153.5625 -11.5 C 154.988281 -11.5 160.5625 -11.363281 170.28125 -11.09375 C 180.007812 -10.832031 192.003906 -10.703125 206.265625 -10.703125 C 240.691406 -10.703125 263.613281 -12.171875 275.03125 -15.109375 C 286.445312 -18.054688 295.851562 -23.273438 303.25 -30.765625 C 310.65625 -38.253906 319.976562 -54.394531 331.21875 -79.1875 C 334.601562 -86.5 337.988281 -90.15625 341.375 -90.15625 C 342.976562 -90.15625 344.765625 -89.441406 346.734375 -88.015625 C 341.554688 -70.359375 338.613281 -58.765625 337.90625 -53.234375 C 335.9375 -40.753906 334.773438 -28.003906 334.421875 -14.984375 C 334.421875 -9.097656 332.992188 -4.191406 330.140625 -0.265625 L 324.265625 -0.265625 L 249.078125 0.53125 L 215.375 0.265625 L 135.109375 1.34375 L 102.46875 1.34375 C 98.363281 1.34375 94.53125 1.429688 90.96875 1.609375 C 58.863281 3.035156 35.226562 3.75 20.0625 3.75 C 17.382812 3.75 15.554688 3.300781 14.578125 2.40625 C 13.597656 1.507812 13.109375 0.171875 13.109375 -1.609375 Z M 13.375 -4.28125 "/></g></g></g></svg>