<svg xmlns="http://www.w3.org/2000/svg" xmlns:xlink="http://www.w3.org/1999/xlink" width="6912" zoomAndPan="magnify" viewBox="0 0 5184 2592.000001" height="3456" preserveAspectRatio="xMidYMid meet" version="1.0"><defs><g/><clipPath id="51791e281e"><path d="M 110.929688 120.441406 L 5073.066406 120.441406 L 5073.066406 2470.550781 L 110.929688 2470.550781 Z M 110.929688 120.441406 " clip-rule="nonzero"/></clipPath></defs><path fill="#ffffff" d="M 1 0 L 5183 0 L 5183 2591 L 1 2591 Z M 1 0 " fill-opacity="1" fill-rule="nonzero"/><path fill="#4f0805" d="M 1 0 L 5183 0 L 5183 2591 L 1 2591 Z M 1 0 " fill-opacity="1" fill-rule="nonzero"/><g clip-path="url(#51791e281e)"><path stroke-linecap="butt" transform="matrix(0.749711, 0, 0, 0.749711, 110.92887, 120.443002)" fill="none" stroke-linejoin="miter" d="M 0.00109065 -0.00212878 L 6618.736195 -0.00212878 L 6618.736195 3134.686071 L 0.00109065 3134.686071 Z M 0.00109065 -0.00212878 " stroke="#171612" stroke-width="116" stroke-opacity="1" stroke-miterlimit="4"/></g><g fill="#dc8c77" fill-opacity="0.6"><g transform="translate(1332.001904, 1482.777619)"><g><path d="M 11.765625 -341.65625 C 14.984375 -342.1875 17.035156 -342.453125 17.921875 -342.453125 C 23.984375 -342.453125 33.972656 -342.09375 47.890625 -341.375 C 55.203125 -341.195312 60.195312 -341.109375 62.875 -341.109375 C 66.789062 -341.109375 75.082031 -341.46875 87.75 -342.1875 L 133.234375 -344.859375 C 145.179688 -345.929688 159.09375 -346.46875 174.96875 -346.46875 C 202.96875 -346.46875 225.257812 -342.5 241.84375 -334.5625 C 258.4375 -326.625 271.238281 -314.179688 280.25 -297.234375 C 289.257812 -280.296875 293.765625 -263.441406 293.765625 -246.671875 C 293.765625 -218.671875 283.953125 -194.503906 264.328125 -174.171875 C 244.710938 -153.835938 218.316406 -143.671875 185.140625 -143.671875 C 175.859375 -143.671875 168.097656 -144.601562 161.859375 -146.46875 C 155.617188 -148.34375 148.484375 -151.957031 140.453125 -157.3125 C 137.066406 -159.632812 135.019531 -162.039062 134.3125 -164.53125 C 135.019531 -165.78125 136 -166.675781 137.25 -167.21875 C 139.75 -167.21875 142.332031 -166.679688 145 -165.609375 C 151.070312 -163.460938 158.742188 -162.390625 168.015625 -162.390625 C 182.109375 -162.390625 195.441406 -165.867188 208.015625 -172.828125 C 220.585938 -179.785156 230.082031 -189.6875 236.5 -202.53125 C 242.925781 -215.375 246.140625 -228.925781 246.140625 -243.1875 C 246.140625 -257.101562 242.75 -270.613281 235.96875 -283.71875 C 229.1875 -296.832031 220.269531 -307.3125 209.21875 -315.15625 C 202.976562 -319.613281 193.390625 -323.359375 180.453125 -326.390625 C 167.523438 -329.429688 157.492188 -330.953125 150.359375 -330.953125 C 128.242188 -330.953125 115.132812 -329.34375 111.03125 -326.125 L 110.765625 -322.390625 L 111.828125 -292.15625 L 111.5625 -286.796875 C 111.207031 -281.984375 111.03125 -274.582031 111.03125 -264.59375 C 111.03125 -228.207031 111.566406 -205.554688 112.640625 -196.640625 L 112.640625 -181.65625 L 116.109375 -59.390625 C 116.109375 -57.609375 115.882812 -54.304688 115.4375 -49.484375 C 115 -44.671875 114.78125 -40.484375 114.78125 -36.921875 C 114.78125 -28.359375 115.492188 -21.847656 116.921875 -17.390625 C 121.191406 -16.140625 133.675781 -13.195312 154.375 -8.5625 C 164 -6.238281 169.257812 -4.898438 170.15625 -4.546875 C 171.582031 -4.015625 172.832031 -2.851562 173.90625 -1.0625 C 173.1875 1.601562 172.25 3.335938 171.09375 4.140625 C 169.9375 4.941406 167.660156 5.34375 164.265625 5.34375 C 162.128906 5.34375 157.132812 4.898438 149.28125 4.015625 C 133.945312 2.410156 121.910156 1.609375 113.171875 1.609375 L 66.078125 3.484375 L 37.984375 2.671875 C 36.203125 2.671875 31.03125 2.847656 22.46875 3.203125 L 22.203125 -3.75 L 56.984375 -10.4375 C 62.691406 -12.039062 66.171875 -13.644531 67.421875 -15.25 C 69.203125 -17.75 70.09375 -22.65625 70.09375 -29.96875 C 70.09375 -31.570312 70.179688 -35.050781 70.359375 -40.40625 C 70.535156 -44.144531 70.625 -49.316406 70.625 -55.921875 C 70.625 -76.960938 69.734375 -121.816406 67.953125 -190.484375 C 67.242188 -222.585938 66.890625 -255.226562 66.890625 -288.40625 L 66.890625 -292.953125 C 66.890625 -305.796875 64.925781 -313.910156 61 -317.296875 C 54.394531 -323.179688 37.894531 -328 11.5 -331.75 C 10.613281 -333.707031 10.171875 -335.3125 10.171875 -336.5625 C 10.171875 -337.988281 10.703125 -339.6875 11.765625 -341.65625 Z M 11.765625 -341.65625 "/></g></g><g transform="translate(1640.210319, 1482.777619)"><g><path d="M 14.984375 -8.03125 C 41.023438 -11.0625 55.738281 -13.203125 59.125 -14.453125 C 61.445312 -15.335938 63.585938 -18.007812 65.546875 -22.46875 L 65.546875 -25.421875 C 65.546875 -29.878906 66.257812 -46.019531 67.6875 -73.84375 C 68.039062 -81.6875 68.21875 -89.351562 68.21875 -96.84375 L 67.421875 -128.6875 L 67.953125 -164.796875 L 67.6875 -231.953125 L 67.953125 -280.109375 C 68.128906 -300.441406 66.566406 -312.835938 63.265625 -317.296875 C 59.972656 -321.753906 51.457031 -324.921875 37.71875 -326.796875 C 23.988281 -328.671875 16.410156 -330.050781 14.984375 -330.9375 C 13.554688 -331.832031 12.84375 -333.265625 12.84375 -335.234375 C 12.84375 -336.472656 13.109375 -338.078125 13.640625 -340.046875 C 15.421875 -341.648438 19.523438 -342.539062 25.953125 -342.71875 C 26.847656 -342.71875 29.300781 -342.941406 33.3125 -343.390625 C 37.320312 -343.835938 41.109375 -344.0625 44.671875 -344.0625 L 66.625 -344.0625 L 136.984375 -344.859375 C 176.753906 -344.859375 204.617188 -341.914062 220.578125 -336.03125 C 236.546875 -330.144531 249.253906 -320.203125 258.703125 -306.203125 C 268.160156 -292.203125 272.890625 -276.550781 272.890625 -259.25 C 272.890625 -226.425781 255.675781 -201.363281 221.25 -184.0625 C 215.363281 -181.03125 210.726562 -178.359375 207.34375 -176.046875 C 213.40625 -163.203125 221.878906 -147.769531 232.765625 -129.75 L 266.734375 -71.4375 C 280.296875 -50.03125 289.660156 -36.609375 294.828125 -31.171875 C 300.003906 -25.734375 306.289062 -21.226562 313.6875 -17.65625 C 321.09375 -14.09375 333.535156 -10.703125 351.015625 -7.484375 C 351.191406 -5.703125 351.28125 -4.273438 351.28125 -3.203125 C 351.28125 -2.140625 351.191406 -0.804688 351.015625 0.796875 C 326.578125 1.160156 297.945312 1.34375 265.125 1.34375 C 262.8125 1.34375 259.601562 1.160156 255.5 0.796875 C 242.832031 -23.453125 227.941406 -50.113281 210.828125 -79.1875 L 171.21875 -151.421875 C 165.875 -158.921875 161.460938 -163.601562 157.984375 -165.46875 C 154.503906 -167.34375 149.910156 -168.28125 144.203125 -168.28125 L 121.46875 -168.015625 L 113.96875 -168.28125 C 113.4375 -162.570312 113.171875 -150.890625 113.171875 -133.234375 L 113.171875 -41.734375 C 112.992188 -38.347656 113.707031 -33.625 115.3125 -27.5625 C 116.738281 -24.164062 119.191406 -21.441406 122.671875 -19.390625 C 126.148438 -17.335938 136.179688 -14.265625 152.765625 -10.171875 L 163.734375 -7.484375 C 165.160156 -5.703125 165.875 -3.296875 165.875 -0.265625 C 161.0625 0.617188 157.671875 1.0625 155.703125 1.0625 C 139.648438 1.0625 128.328125 0.882812 121.734375 0.53125 C 118.335938 0.351562 115.570312 0.265625 113.4375 0.265625 L 77.046875 0.796875 L 41.46875 0.53125 C 39.863281 0.53125 31.75 0.800781 17.125 1.34375 L 11.765625 0.265625 L 11.234375 -2.40625 C 11.234375 -4.007812 12.484375 -5.882812 14.984375 -8.03125 Z M 114.5 -183 C 119.320312 -182.820312 122.890625 -182.734375 125.203125 -182.734375 C 138.046875 -182.734375 152.851562 -184.25 169.625 -187.28125 C 181.394531 -189.59375 190.9375 -193.378906 198.25 -198.640625 C 205.5625 -203.910156 211.671875 -211.71875 216.578125 -222.0625 C 221.484375 -232.40625 223.9375 -243.101562 223.9375 -254.15625 C 223.9375 -266.289062 220.097656 -279.132812 212.421875 -292.6875 C 206.535156 -303.03125 196.59375 -311.679688 182.59375 -318.640625 C 168.59375 -325.597656 151.785156 -329.078125 132.171875 -329.078125 C 127.347656 -329.078125 121.101562 -328.804688 113.4375 -328.265625 C 112.71875 -318.992188 112.359375 -311.863281 112.359375 -306.875 L 113.703125 -256.84375 L 113.4375 -236.234375 C 113.4375 -222.328125 113.789062 -204.582031 114.5 -183 Z M 114.5 -183 "/></g></g><g transform="translate(1982.664113, 1482.777619)"><g><path d="M 25.15625 -170.953125 C 25.15625 -189.148438 27.335938 -205.335938 31.703125 -219.515625 C 36.078125 -233.691406 43.4375 -249.070312 53.78125 -265.65625 C 64.125 -282.25 76.609375 -296.117188 91.234375 -307.265625 C 105.859375 -318.410156 126.101562 -328.265625 151.96875 -336.828125 C 170.15625 -342.710938 193.160156 -345.65625 220.984375 -345.65625 C 239.710938 -345.65625 258.039062 -343.15625 275.96875 -338.15625 C 293.894531 -333.164062 310.171875 -326.210938 324.796875 -317.296875 C 339.421875 -308.378906 354.046875 -294.644531 368.671875 -276.09375 C 378.835938 -263.257812 386.503906 -249.4375 391.671875 -234.625 C 398.453125 -215.1875 401.84375 -195.125 401.84375 -174.4375 C 401.84375 -150.894531 399.566406 -131.363281 395.015625 -115.84375 C 390.472656 -100.320312 382.847656 -84.984375 372.140625 -69.828125 C 363.765625 -58.054688 349.410156 -44.5 329.078125 -29.15625 C 315.515625 -18.8125 298.65625 -10.472656 278.5 -4.140625 C 258.351562 2.179688 236.597656 5.34375 213.234375 5.34375 C 189.503906 5.34375 168.363281 2.582031 149.8125 -2.9375 C 131.269531 -8.46875 115.800781 -15.203125 103.40625 -23.140625 C 91.007812 -31.078125 78.253906 -42.800781 65.140625 -58.3125 C 52.035156 -73.832031 42.09375 -90.957031 35.3125 -109.6875 C 28.539062 -128.414062 25.15625 -148.835938 25.15625 -170.953125 Z M 210.828125 -4.546875 C 225.804688 -4.546875 241.363281 -6.640625 257.5 -10.828125 C 273.644531 -15.023438 287.957031 -21.984375 300.4375 -31.703125 C 312.925781 -41.421875 322.691406 -52.476562 329.734375 -64.875 C 336.785156 -77.269531 342.453125 -93.1875 346.734375 -112.625 C 351.015625 -132.070312 353.15625 -151.515625 353.15625 -170.953125 C 353.15625 -195.210938 349.585938 -219.203125 342.453125 -242.921875 C 336.921875 -260.941406 327.910156 -277.039062 315.421875 -291.21875 C 302.941406 -305.394531 287.875 -316.363281 270.21875 -324.125 C 252.5625 -331.882812 233.742188 -335.765625 213.765625 -335.765625 C 197.535156 -335.765625 181.660156 -333.085938 166.140625 -327.734375 C 150.617188 -322.378906 137.863281 -315.554688 127.875 -307.265625 C 117.894531 -298.972656 108.625 -287.203125 100.0625 -271.953125 C 91.5 -256.703125 84.988281 -239.890625 80.53125 -221.515625 C 76.070312 -203.148438 73.84375 -186.921875 73.84375 -172.828125 C 73.84375 -158.023438 76.070312 -141.257812 80.53125 -122.53125 C 84.988281 -103.800781 91.097656 -87.566406 98.859375 -73.828125 C 106.617188 -60.097656 116.160156 -47.925781 127.484375 -37.3125 C 138.804688 -26.707031 151.515625 -18.59375 165.609375 -12.96875 C 179.703125 -7.351562 194.773438 -4.546875 210.828125 -4.546875 Z M 210.828125 -4.546875 "/></g></g><g transform="translate(2410.731356, 1482.777619)"><g><path d="M -36.65625 97.390625 C -33.257812 95.066406 -30.226562 93.90625 -27.5625 93.90625 C -19.351562 93.90625 -9.988281 98.632812 0.53125 108.09375 C 2.3125 109.695312 3.648438 110.851562 4.546875 111.5625 L 5.890625 112.90625 C 10.171875 116.46875 14.628906 118.25 19.265625 118.25 C 26.035156 118.25 32.8125 115.929688 39.59375 111.296875 C 46.375 106.660156 51.816406 100.238281 55.921875 92.03125 C 61.441406 80.613281 65.492188 67.769531 68.078125 53.5 C 70.671875 39.238281 71.96875 21.941406 71.96875 1.609375 L 71.703125 -40.125 L 72.234375 -68.75 C 72.234375 -88.195312 71.519531 -118.164062 70.09375 -158.65625 L 68.484375 -258.71875 L 68.75 -310.34375 C 68.9375 -314.976562 68.132812 -318.992188 66.34375 -322.390625 C 65.28125 -324.171875 63.363281 -325.773438 60.59375 -327.203125 C 57.832031 -328.628906 53.863281 -329.429688 48.6875 -329.609375 L 28.890625 -330.953125 C 22.648438 -330.953125 18.367188 -331.570312 16.046875 -332.8125 C 15.335938 -335.488281 14.984375 -337.539062 14.984375 -338.96875 L 15.25 -342.1875 C 19.175781 -342.1875 23.992188 -342.007812 29.703125 -341.65625 C 40.753906 -341.113281 51.539062 -340.84375 62.0625 -340.84375 C 67.0625 -340.84375 73.664062 -340.929688 81.875 -341.109375 C 88.113281 -341.472656 92.484375 -341.65625 94.984375 -341.65625 L 134.3125 -341.65625 C 139.832031 -341.65625 145.804688 -341.382812 152.234375 -340.84375 C 152.234375 -336.738281 152.050781 -333.53125 151.6875 -331.21875 C 136.351562 -330.5 126.632812 -329.425781 122.53125 -328 C 118.425781 -326.570312 115.394531 -324.613281 113.4375 -322.125 C 112.1875 -320.507812 111.5625 -317.382812 111.5625 -312.75 L 110.5 -284.9375 L 110.765625 -278.234375 C 111.117188 -275.023438 111.296875 -268.875 111.296875 -259.78125 L 111.296875 -249.078125 C 111.296875 -242.835938 111.382812 -237.3125 111.5625 -232.5 C 111.914062 -225.363281 112.09375 -221.082031 112.09375 -219.65625 C 112.09375 -218.050781 111.914062 -213.859375 111.5625 -207.078125 C 111.382812 -205.117188 111.296875 -203.425781 111.296875 -202 L 114.5 -127.609375 L 113.96875 -79.734375 L 113.96875 -48.6875 C 113.96875 -30.851562 110.582031 -5.972656 103.8125 25.953125 C 98.8125 49.140625 89.800781 70.226562 76.78125 89.21875 C 63.757812 108.21875 50.914062 121.191406 38.25 128.140625 C 25.59375 135.097656 8.738281 138.578125 -12.3125 138.578125 C -23.539062 138.578125 -32.546875 135.90625 -39.328125 130.5625 C -43.960938 126.8125 -46.28125 121.816406 -46.28125 115.578125 C -46.28125 108.085938 -43.070312 102.023438 -36.65625 97.390625 Z M -36.65625 97.390625 "/></g></g><g transform="translate(2593.462559, 1482.777619)"><g><path d="M 13.375 -4.28125 C 15.15625 -5.882812 16.671875 -6.863281 17.921875 -7.21875 C 20.953125 -8.113281 26.125 -8.828125 33.4375 -9.359375 C 50.738281 -10.429688 61.441406 -12.035156 65.546875 -14.171875 C 68.046875 -17.742188 69.296875 -22.738281 69.296875 -29.15625 L 69.03125 -47.890625 L 69.296875 -115.84375 L 68.75 -147.953125 L 69.03125 -215.109375 L 67.6875 -291.34375 C 67.507812 -309.539062 66.347656 -319.800781 64.203125 -322.125 C 60.992188 -325.507812 51.453125 -327.46875 35.578125 -328 C 28.804688 -328.175781 22.832031 -328.710938 17.65625 -329.609375 C 15.332031 -330.859375 14.171875 -332.460938 14.171875 -334.421875 C 14.171875 -335.847656 14.617188 -337.546875 15.515625 -339.515625 C 17.117188 -340.398438 18.546875 -340.84375 19.796875 -340.84375 C 22.296875 -340.84375 25.328125 -340.753906 28.890625 -340.578125 C 39.410156 -339.679688 50.289062 -339.234375 61.53125 -339.234375 L 81.328125 -339.78125 L 128.421875 -338.703125 C 151.960938 -338.703125 170.332031 -338.96875 183.53125 -339.5 C 196.726562 -340.039062 205.644531 -340.3125 210.28125 -340.3125 C 214.382812 -340.3125 224.550781 -339.953125 240.78125 -339.234375 L 278.78125 -339.515625 L 283.328125 -338.703125 L 305.53125 -339.515625 L 308.203125 -338.171875 C 309.097656 -336.742188 309.722656 -335.226562 310.078125 -333.625 C 310.078125 -331.125 309.675781 -327.285156 308.875 -322.109375 C 308.070312 -316.941406 307.671875 -313.734375 307.671875 -312.484375 C 307.671875 -293.929688 308.296875 -278.238281 309.546875 -265.40625 C 309.367188 -264.332031 308.832031 -263.617188 307.9375 -263.265625 C 305.976562 -263.265625 304.195312 -263.53125 302.59375 -264.0625 C 300.625 -267.445312 297.988281 -273.421875 294.6875 -281.984375 C 291.394531 -290.546875 286.445312 -300.445312 279.84375 -311.6875 C 275.382812 -319.175781 271.90625 -323.632812 269.40625 -325.0625 C 266.914062 -326.488281 261.742188 -327.203125 253.890625 -327.203125 C 252.285156 -327.203125 244.171875 -327.378906 229.546875 -327.734375 C 225.617188 -327.910156 221.785156 -328 218.046875 -328 L 141.796875 -326.40625 L 135.109375 -326.40625 C 125.296875 -326.40625 119.410156 -325.15625 117.453125 -322.65625 C 114.421875 -318.375 112.90625 -305.800781 112.90625 -284.9375 C 112.90625 -282.789062 113.347656 -261.382812 114.234375 -220.71875 L 114.234375 -183.53125 C 116.203125 -183 118.34375 -182.734375 120.65625 -182.734375 L 125.203125 -182.734375 C 128.234375 -182.734375 132.691406 -182.644531 138.578125 -182.46875 C 147.859375 -182.101562 154.101562 -181.921875 157.3125 -181.921875 C 159.457031 -181.921875 161.332031 -182.007812 162.9375 -182.1875 C 182.195312 -182.90625 206.988281 -183.265625 237.3125 -183.265625 C 246.757812 -184.867188 252.285156 -186.742188 253.890625 -188.890625 C 256.566406 -192.097656 258.570312 -200.476562 259.90625 -214.03125 C 261.25 -227.582031 264.238281 -235.253906 268.875 -237.046875 C 271.195312 -237.046875 273.335938 -236.597656 275.296875 -235.703125 C 275.648438 -234.273438 275.828125 -232.9375 275.828125 -231.6875 C 275.828125 -230.4375 275.648438 -228.382812 275.296875 -225.53125 C 274.410156 -218.9375 273.96875 -198.25 273.96875 -163.46875 C 273.96875 -154.195312 274.457031 -143.851562 275.4375 -132.4375 C 276.414062 -121.019531 276.90625 -114.863281 276.90625 -113.96875 C 276.90625 -112.363281 276.632812 -110.222656 276.09375 -107.546875 C 274.675781 -106.835938 273.519531 -106.484375 272.625 -106.484375 L 270.75 -106.484375 C 267.894531 -111.472656 265.128906 -119.226562 262.453125 -129.75 C 257.816406 -147.769531 252.957031 -159.050781 247.875 -163.59375 C 242.789062 -168.144531 234.539062 -170.421875 223.125 -170.421875 C 220.625 -170.421875 216.070312 -170.285156 209.46875 -170.015625 C 202.875 -169.753906 193.066406 -169.625 180.046875 -169.625 L 162.671875 -169.625 C 137.867188 -169.625 121.632812 -169.085938 113.96875 -168.015625 L 113.703125 -159.1875 L 113.96875 -109.953125 L 113.703125 -78.921875 L 113.96875 -48.6875 C 114.144531 -30.5 115.304688 -19.976562 117.453125 -17.125 C 120.484375 -13.195312 127.082031 -11.234375 137.25 -11.234375 L 153.5625 -11.5 C 154.988281 -11.5 160.5625 -11.363281 170.28125 -11.09375 C 180.007812 -10.832031 192.003906 -10.703125 206.265625 -10.703125 C 240.691406 -10.703125 263.613281 -12.171875 275.03125 -15.109375 C 286.445312 -18.054688 295.851562 -23.273438 303.25 -30.765625 C 310.65625 -38.253906 319.976562 -54.394531 331.21875 -79.1875 C 334.601562 -86.5 337.988281 -90.15625 341.375 -90.15625 C 342.976562 -90.15625 344.765625 -89.441406 346.734375 -88.015625 C 341.554688 -70.359375 338.613281 -58.765625 337.90625 -53.234375 C 335.9375 -40.753906 334.773438 -28.003906 334.421875 -14.984375 C 334.421875 -9.097656 332.992188 -4.191406 330.140625 -0.265625 L 324.265625 -0.265625 L 249.078125 0.53125 L 215.375 0.265625 L 135.109375 1.34375 L 102.46875 1.34375 C 98.363281 1.34375 94.53125 1.429688 90.96875 1.609375 C 58.863281 3.035156 35.226562 3.75 20.0625 3.75 C 17.382812 3.75 15.554688 3.300781 14.578125 2.40625 C 13.597656 1.507812 13.109375 0.171875 13.109375 -1.609375 Z M 13.375 -4.28125 "/></g></g><g transform="translate(2953.039043, 1482.777619)"><g><path d="M 317.03125 -327.46875 C 319.175781 -313.738281 320.25 -299.648438 320.25 -285.203125 C 320.25 -282.347656 320.160156 -278.507812 319.984375 -273.6875 C 317.484375 -273.15625 315.609375 -272.890625 314.359375 -272.890625 C 313.285156 -272.890625 311.769531 -273.066406 309.8125 -273.421875 C 302.320312 -294.296875 290.101562 -310.347656 273.15625 -321.578125 C 256.207031 -332.816406 235.25 -338.4375 210.28125 -338.4375 C 197.082031 -338.4375 185.9375 -336.921875 176.84375 -333.890625 C 160.789062 -328.359375 146.695312 -320.734375 134.5625 -311.015625 C 122.4375 -301.296875 112.179688 -289.703125 103.796875 -276.234375 C 95.421875 -262.765625 88.78125 -246.441406 83.875 -227.265625 C 78.96875 -208.097656 76.515625 -188.523438 76.515625 -168.546875 C 76.515625 -130.378906 82.3125 -98.851562 93.90625 -73.96875 C 105.5 -49.09375 121.375 -31.347656 141.53125 -20.734375 C 161.6875 -10.117188 182.019531 -4.8125 202.53125 -4.8125 L 215.109375 -5.078125 C 229.367188 -6.867188 239.085938 -8.566406 244.265625 -10.171875 C 257.285156 -13.910156 268.03125 -18.320312 276.5 -23.40625 C 284.96875 -28.488281 293.257812 -35.664062 301.375 -44.9375 C 309.5 -54.21875 316.414062 -65.007812 322.125 -77.3125 L 325.328125 -78.390625 C 326.222656 -78.390625 327.5625 -77.851562 329.34375 -76.78125 C 329.164062 -72.5 328.988281 -69.734375 328.8125 -68.484375 C 321.3125 -38.347656 315.867188 -17.75 312.484375 -6.6875 C 309.628906 -5.976562 306.0625 -4.910156 301.78125 -3.484375 C 280.914062 3.648438 253.003906 7.21875 218.046875 7.21875 C 189.867188 7.21875 168.773438 5.300781 154.765625 1.46875 C 140.765625 -2.363281 125.515625 -8.335938 109.015625 -16.453125 C 92.523438 -24.566406 78.035156 -35.3125 65.546875 -48.6875 C 53.054688 -62.0625 42.976562 -78.960938 35.3125 -99.390625 C 27.644531 -119.816406 23.8125 -142.066406 23.8125 -166.140625 C 23.8125 -188.972656 26.84375 -208.90625 32.90625 -225.9375 C 38.96875 -242.96875 48.332031 -260.222656 61 -277.703125 C 73.664062 -295.179688 88.601562 -309.71875 105.8125 -321.3125 C 123.019531 -332.90625 142.148438 -341.109375 163.203125 -345.921875 C 178.003906 -349.140625 198.960938 -350.75 226.078125 -350.75 C 245.867188 -350.75 264.503906 -348.113281 281.984375 -342.84375 C 299.460938 -337.582031 311.144531 -332.457031 317.03125 -327.46875 Z M 317.03125 -327.46875 "/></g></g><g transform="translate(3301.111222, 1482.777619)"><g><path d="M 9.625 -302.3125 L 20.59375 -342.71875 C 21.3125 -348.070312 22.296875 -351.503906 23.546875 -353.015625 C 24.796875 -354.535156 26.222656 -355.296875 27.828125 -355.296875 C 31.035156 -355.296875 34.691406 -351.457031 38.796875 -343.78125 C 41.828125 -338.257812 44.320312 -334.738281 46.28125 -333.21875 C 48.25 -331.707031 51.101562 -330.679688 54.84375 -330.140625 L 57.515625 -330.40625 L 69.03125 -329.34375 L 132.171875 -328.546875 L 206.8125 -328.8125 L 228.75 -328.8125 L 270.21875 -329.609375 C 272 -329.609375 274.226562 -329.429688 276.90625 -329.078125 C 289.03125 -328.003906 296.519531 -327.46875 299.375 -327.46875 C 302.050781 -327.46875 304.191406 -328.359375 305.796875 -330.140625 C 306.328125 -330.859375 309.269531 -336.925781 314.625 -348.34375 C 316.945312 -353.507812 319.800781 -356.09375 323.1875 -356.09375 C 324.613281 -356.09375 326.398438 -355.738281 328.546875 -355.03125 C 329.429688 -351.457031 329.875 -348.242188 329.875 -345.390625 L 329.609375 -334.6875 L 329.875 -311.953125 C 329.875 -306.421875 329.429688 -288.582031 328.546875 -258.4375 C 328.546875 -256.476562 328.1875 -254.695312 327.46875 -253.09375 C 325.507812 -251.84375 323.816406 -251.21875 322.390625 -251.21875 C 320.960938 -251.21875 319.710938 -251.882812 318.640625 -253.21875 C 317.566406 -254.5625 316.226562 -258.710938 314.625 -265.671875 C 311.0625 -281.722656 306.601562 -293.226562 301.25 -300.1875 C 297.6875 -304.644531 292.554688 -307.851562 285.859375 -309.8125 C 279.171875 -311.769531 263.164062 -312.75 237.84375 -312.75 C 217.507812 -312.75 202.4375 -312.394531 192.625 -311.6875 C 192.269531 -304.550781 192.09375 -298.039062 192.09375 -292.15625 L 194.234375 -126.015625 C 194.234375 -119.410156 193.875 -106.925781 193.15625 -88.5625 L 193.4375 -52.96875 L 193.15625 -33.171875 C 193.15625 -26.929688 194.222656 -22.472656 196.359375 -19.796875 C 198.503906 -17.117188 204.304688 -14.535156 213.765625 -12.046875 C 230.171875 -7.941406 241.140625 -5.441406 246.671875 -4.546875 C 250.054688 -4.191406 252.820312 -3.476562 254.96875 -2.40625 L 254.96875 5.625 L 216.96875 4.546875 C 196.101562 4.367188 180.410156 3.921875 169.890625 3.203125 L 130.828125 5.078125 L 102.203125 6.6875 C 94.171875 6.6875 89.265625 6.507812 87.484375 6.15625 L 83.734375 4.546875 C 84.097656 0.441406 84.898438 -2.1875 86.140625 -3.34375 C 87.390625 -4.5 90.691406 -5.4375 96.046875 -6.15625 C 103.535156 -7.226562 112.363281 -9.144531 122.53125 -11.90625 C 132.695312 -14.664062 139.382812 -17.472656 142.59375 -20.328125 C 144.382812 -21.929688 145.632812 -24.609375 146.34375 -28.359375 C 147.945312 -36.203125 148.75 -51.628906 148.75 -74.640625 L 148.75 -120.125 L 147.6875 -219.375 L 146.609375 -240.78125 L 146.34375 -312.21875 C 135.101562 -313.46875 120.742188 -314.09375 103.265625 -314.09375 C 77.585938 -314.09375 61.984375 -312.488281 56.453125 -309.28125 C 47.710938 -304.28125 34.691406 -289.65625 17.390625 -265.40625 C 11.679688 -256.300781 6.6875 -251.75 2.40625 -251.75 L 0 -252.296875 C -0.707031 -253.359375 -1.0625 -254.335938 -1.0625 -255.234375 C -1.0625 -257.367188 0.359375 -263.789062 3.203125 -274.5 C 6.773438 -288.226562 8.914062 -297.5 9.625 -302.3125 Z M 9.625 -302.3125 "/></g></g><g transform="translate(3637.946632, 1482.777619)"><g><path d="M 212.6875 -330.140625 C 214.113281 -318.367188 214.828125 -311.59375 214.828125 -309.8125 L 213.765625 -286 C 213.410156 -275.832031 212.960938 -269.320312 212.421875 -266.46875 C 210.816406 -265.757812 209.476562 -265.40625 208.40625 -265.40625 L 206 -265.9375 C 200.289062 -290.90625 190.613281 -309.097656 176.96875 -320.515625 C 163.332031 -331.929688 146.703125 -337.640625 127.078125 -337.640625 C 106.742188 -337.640625 90.066406 -331.929688 77.046875 -320.515625 C 64.023438 -309.097656 57.515625 -295.8125 57.515625 -280.65625 C 57.515625 -269.0625 62.066406 -258.445312 71.171875 -248.8125 C 80.265625 -239.175781 103.539062 -224.726562 141 -205.46875 C 169.53125 -190.664062 189.945312 -178.582031 202.25 -169.21875 C 214.5625 -159.851562 223.835938 -149.015625 230.078125 -136.703125 C 236.328125 -124.398438 239.453125 -110.671875 239.453125 -95.515625 C 239.453125 -76.429688 234.5 -58.503906 224.59375 -41.734375 C 214.695312 -24.972656 201.363281 -12.351562 184.59375 -3.875 C 167.832031 4.59375 145.628906 8.828125 117.984375 8.828125 C 93.910156 8.828125 70.8125 4.992188 48.6875 -2.671875 C 35.664062 -7.304688 27.726562 -11.050781 24.875 -13.90625 C 22.019531 -16.757812 20.59375 -19.796875 20.59375 -23.015625 C 20.59375 -24.972656 20.773438 -27.46875 21.140625 -30.5 C 23.628906 -51.539062 24.96875 -68.84375 25.15625 -82.40625 C 25.507812 -90.789062 26.128906 -95.691406 27.015625 -97.109375 C 27.734375 -98.359375 29.070312 -98.984375 31.03125 -98.984375 C 32.632812 -98.984375 33.925781 -98.40625 34.90625 -97.25 C 35.894531 -96.09375 36.566406 -93.910156 36.921875 -90.703125 C 38.878906 -68.753906 49.046875 -49.132812 67.421875 -31.84375 C 85.609375 -14.539062 106.207031 -5.890625 129.21875 -5.890625 C 143.3125 -5.890625 156.285156 -8.832031 168.140625 -14.71875 C 180.003906 -20.601562 189.28125 -29.117188 195.96875 -40.265625 C 202.65625 -51.410156 206 -62.242188 206 -72.765625 C 206 -87.210938 200.914062 -100.410156 190.75 -112.359375 C 180.582031 -124.316406 160.160156 -138.273438 129.484375 -154.234375 C 98.804688 -170.203125 78.832031 -181.84375 69.5625 -189.15625 C 54.582031 -201.101562 43.34375 -213.765625 35.84375 -227.140625 C 30.320312 -237.484375 27.5625 -249.523438 27.5625 -263.265625 C 27.5625 -288.054688 37.367188 -309.054688 56.984375 -326.265625 C 76.609375 -343.472656 102.914062 -352.078125 135.90625 -352.078125 C 154.101562 -352.078125 169.800781 -350.023438 183 -345.921875 C 192.625 -342.710938 202.519531 -337.453125 212.6875 -330.140625 Z M 212.6875 -330.140625 "/></g></g></g><g fill="#f3eeee" fill-opacity="1"><g transform="translate(1307.786583, 1458.562323)"><g><path d="M 11.765625 -341.65625 C 14.984375 -342.1875 17.035156 -342.453125 17.921875 -342.453125 C 23.984375 -342.453125 33.972656 -342.09375 47.890625 -341.375 C 55.203125 -341.195312 60.195312 -341.109375 62.875 -341.109375 C 66.789062 -341.109375 75.082031 -341.46875 87.75 -342.1875 L 133.234375 -344.859375 C 145.179688 -345.929688 159.09375 -346.46875 174.96875 -346.46875 C 202.96875 -346.46875 225.257812 -342.5 241.84375 -334.5625 C 258.4375 -326.625 271.238281 -314.179688 280.25 -297.234375 C 289.257812 -280.296875 293.765625 -263.441406 293.765625 -246.671875 C 293.765625 -218.671875 283.953125 -194.503906 264.328125 -174.171875 C 244.710938 -153.835938 218.316406 -143.671875 185.140625 -143.671875 C 175.859375 -143.671875 168.097656 -144.601562 161.859375 -146.46875 C 155.617188 -148.34375 148.484375 -151.957031 140.453125 -157.3125 C 137.066406 -159.632812 135.019531 -162.039062 134.3125 -164.53125 C 135.019531 -165.78125 136 -166.675781 137.25 -167.21875 C 139.75 -167.21875 142.332031 -166.679688 145 -165.609375 C 151.070312 -163.460938 158.742188 -162.390625 168.015625 -162.390625 C 182.109375 -162.390625 195.441406 -165.867188 208.015625 -172.828125 C 220.585938 -179.785156 230.082031 -189.6875 236.5 -202.53125 C 242.925781 -215.375 246.140625 -228.925781 246.140625 -243.1875 C 246.140625 -257.101562 242.75 -270.613281 235.96875 -283.71875 C 229.1875 -296.832031 220.269531 -307.3125 209.21875 -315.15625 C 202.976562 -319.613281 193.390625 -323.359375 180.453125 -326.390625 C 167.523438 -329.429688 157.492188 -330.953125 150.359375 -330.953125 C 128.242188 -330.953125 115.132812 -329.34375 111.03125 -326.125 L 110.765625 -322.390625 L 111.828125 -292.15625 L 111.5625 -286.796875 C 111.207031 -281.984375 111.03125 -274.582031 111.03125 -264.59375 C 111.03125 -228.207031 111.566406 -205.554688 112.640625 -196.640625 L 112.640625 -181.65625 L 116.109375 -59.390625 C 116.109375 -57.609375 115.882812 -54.304688 115.4375 -49.484375 C 115 -44.671875 114.78125 -40.484375 114.78125 -36.921875 C 114.78125 -28.359375 115.492188 -21.847656 116.921875 -17.390625 C 121.191406 -16.140625 133.675781 -13.195312 154.375 -8.5625 C 164 -6.238281 169.257812 -4.898438 170.15625 -4.546875 C 171.582031 -4.015625 172.832031 -2.851562 173.90625 -1.0625 C 173.1875 1.601562 172.25 3.335938 171.09375 4.140625 C 169.9375 4.941406 167.660156 5.34375 164.265625 5.34375 C 162.128906 5.34375 157.132812 4.898438 149.28125 4.015625 C 133.945312 2.410156 121.910156 1.609375 113.171875 1.609375 L 66.078125 3.484375 L 37.984375 2.671875 C 36.203125 2.671875 31.03125 2.847656 22.46875 3.203125 L 22.203125 -3.75 L 56.984375 -10.4375 C 62.691406 -12.039062 66.171875 -13.644531 67.421875 -15.25 C 69.203125 -17.75 70.09375 -22.65625 70.09375 -29.96875 C 70.09375 -31.570312 70.179688 -35.050781 70.359375 -40.40625 C 70.535156 -44.144531 70.625 -49.316406 70.625 -55.921875 C 70.625 -76.960938 69.734375 -121.816406 67.953125 -190.484375 C 67.242188 -222.585938 66.890625 -255.226562 66.890625 -288.40625 L 66.890625 -292.953125 C 66.890625 -305.796875 64.925781 -313.910156 61 -317.296875 C 54.394531 -323.179688 37.894531 -328 11.5 -331.75 C 10.613281 -333.707031 10.171875 -335.3125 10.171875 -336.5625 C 10.171875 -337.988281 10.703125 -339.6875 11.765625 -341.65625 Z M 11.765625 -341.65625 "/></g></g><g transform="translate(1615.994998, 1458.562323)"><g><path d="M 14.984375 -8.03125 C 41.023438 -11.0625 55.738281 -13.203125 59.125 -14.453125 C 61.445312 -15.335938 63.585938 -18.007812 65.546875 -22.46875 L 65.546875 -25.421875 C 65.546875 -29.878906 66.257812 -46.019531 67.6875 -73.84375 C 68.039062 -81.6875 68.21875 -89.351562 68.21875 -96.84375 L 67.421875 -128.6875 L 67.953125 -164.796875 L 67.6875 -231.953125 L 67.953125 -280.109375 C 68.128906 -300.441406 66.566406 -312.835938 63.265625 -317.296875 C 59.972656 -321.753906 51.457031 -324.921875 37.71875 -326.796875 C 23.988281 -328.671875 16.410156 -330.050781 14.984375 -330.9375 C 13.554688 -331.832031 12.84375 -333.265625 12.84375 -335.234375 C 12.84375 -336.472656 13.109375 -338.078125 13.640625 -340.046875 C 15.421875 -341.648438 19.523438 -342.539062 25.953125 -342.71875 C 26.847656 -342.71875 29.300781 -342.941406 33.3125 -343.390625 C 37.320312 -343.835938 41.109375 -344.0625 44.671875 -344.0625 L 66.625 -344.0625 L 136.984375 -344.859375 C 176.753906 -344.859375 204.617188 -341.914062 220.578125 -336.03125 C 236.546875 -330.144531 249.253906 -320.203125 258.703125 -306.203125 C 268.160156 -292.203125 272.890625 -276.550781 272.890625 -259.25 C 272.890625 -226.425781 255.675781 -201.363281 221.25 -184.0625 C 215.363281 -181.03125 210.726562 -178.359375 207.34375 -176.046875 C 213.40625 -163.203125 221.878906 -147.769531 232.765625 -129.75 L 266.734375 -71.4375 C 280.296875 -50.03125 289.660156 -36.609375 294.828125 -31.171875 C 300.003906 -25.734375 306.289062 -21.226562 313.6875 -17.65625 C 321.09375 -14.09375 333.535156 -10.703125 351.015625 -7.484375 C 351.191406 -5.703125 351.28125 -4.273438 351.28125 -3.203125 C 351.28125 -2.140625 351.191406 -0.804688 351.015625 0.796875 C 326.578125 1.160156 297.945312 1.34375 265.125 1.34375 C 262.8125 1.34375 259.601562 1.160156 255.5 0.796875 C 242.832031 -23.453125 227.941406 -50.113281 210.828125 -79.1875 L 171.21875 -151.421875 C 165.875 -158.921875 161.460938 -163.601562 157.984375 -165.46875 C 154.503906 -167.34375 149.910156 -168.28125 144.203125 -168.28125 L 121.46875 -168.015625 L 113.96875 -168.28125 C 113.4375 -162.570312 113.171875 -150.890625 113.171875 -133.234375 L 113.171875 -41.734375 C 112.992188 -38.347656 113.707031 -33.625 115.3125 -27.5625 C 116.738281 -24.164062 119.191406 -21.441406 122.671875 -19.390625 C 126.148438 -17.335938 136.179688 -14.265625 152.765625 -10.171875 L 163.734375 -7.484375 C 165.160156 -5.703125 165.875 -3.296875 165.875 -0.265625 C 161.0625 0.617188 157.671875 1.0625 155.703125 1.0625 C 139.648438 1.0625 128.328125 0.882812 121.734375 0.53125 C 118.335938 0.351562 115.570312 0.265625 113.4375 0.265625 L 77.046875 0.796875 L 41.46875 0.53125 C 39.863281 0.53125 31.75 0.800781 17.125 1.34375 L 11.765625 0.265625 L 11.234375 -2.40625 C 11.234375 -4.007812 12.484375 -5.882812 14.984375 -8.03125 Z M 114.5 -183 C 119.320312 -182.820312 122.890625 -182.734375 125.203125 -182.734375 C 138.046875 -182.734375 152.851562 -184.25 169.625 -187.28125 C 181.394531 -189.59375 190.9375 -193.378906 198.25 -198.640625 C 205.5625 -203.910156 211.671875 -211.71875 216.578125 -222.0625 C 221.484375 -232.40625 223.9375 -243.101562 223.9375 -254.15625 C 223.9375 -266.289062 220.097656 -279.132812 212.421875 -292.6875 C 206.535156 -303.03125 196.59375 -311.679688 182.59375 -318.640625 C 168.59375 -325.597656 151.785156 -329.078125 132.171875 -329.078125 C 127.347656 -329.078125 121.101562 -328.804688 113.4375 -328.265625 C 112.71875 -318.992188 112.359375 -311.863281 112.359375 -306.875 L 113.703125 -256.84375 L 113.4375 -236.234375 C 113.4375 -222.328125 113.789062 -204.582031 114.5 -183 Z M 114.5 -183 "/></g></g><g transform="translate(1958.448793, 1458.562323)"><g><path d="M 25.15625 -170.953125 C 25.15625 -189.148438 27.335938 -205.335938 31.703125 -219.515625 C 36.078125 -233.691406 43.4375 -249.070312 53.78125 -265.65625 C 64.125 -282.25 76.609375 -296.117188 91.234375 -307.265625 C 105.859375 -318.410156 126.101562 -328.265625 151.96875 -336.828125 C 170.15625 -342.710938 193.160156 -345.65625 220.984375 -345.65625 C 239.710938 -345.65625 258.039062 -343.15625 275.96875 -338.15625 C 293.894531 -333.164062 310.171875 -326.210938 324.796875 -317.296875 C 339.421875 -308.378906 354.046875 -294.644531 368.671875 -276.09375 C 378.835938 -263.257812 386.503906 -249.4375 391.671875 -234.625 C 398.453125 -215.1875 401.84375 -195.125 401.84375 -174.4375 C 401.84375 -150.894531 399.566406 -131.363281 395.015625 -115.84375 C 390.472656 -100.320312 382.847656 -84.984375 372.140625 -69.828125 C 363.765625 -58.054688 349.410156 -44.5 329.078125 -29.15625 C 315.515625 -18.8125 298.65625 -10.472656 278.5 -4.140625 C 258.351562 2.179688 236.597656 5.34375 213.234375 5.34375 C 189.503906 5.34375 168.363281 2.582031 149.8125 -2.9375 C 131.269531 -8.46875 115.800781 -15.203125 103.40625 -23.140625 C 91.007812 -31.078125 78.253906 -42.800781 65.140625 -58.3125 C 52.035156 -73.832031 42.09375 -90.957031 35.3125 -109.6875 C 28.539062 -128.414062 25.15625 -148.835938 25.15625 -170.953125 Z M 210.828125 -4.546875 C 225.804688 -4.546875 241.363281 -6.640625 257.5 -10.828125 C 273.644531 -15.023438 287.957031 -21.984375 300.4375 -31.703125 C 312.925781 -41.421875 322.691406 -52.476562 329.734375 -64.875 C 336.785156 -77.269531 342.453125 -93.1875 346.734375 -112.625 C 351.015625 -132.070312 353.15625 -151.515625 353.15625 -170.953125 C 353.15625 -195.210938 349.585938 -219.203125 342.453125 -242.921875 C 336.921875 -260.941406 327.910156 -277.039062 315.421875 -291.21875 C 302.941406 -305.394531 287.875 -316.363281 270.21875 -324.125 C 252.5625 -331.882812 233.742188 -335.765625 213.765625 -335.765625 C 197.535156 -335.765625 181.660156 -333.085938 166.140625 -327.734375 C 150.617188 -322.378906 137.863281 -315.554688 127.875 -307.265625 C 117.894531 -298.972656 108.625 -287.203125 100.0625 -271.953125 C 91.5 -256.703125 84.988281 -239.890625 80.53125 -221.515625 C 76.070312 -203.148438 73.84375 -186.921875 73.84375 -172.828125 C 73.84375 -158.023438 76.070312 -141.257812 80.53125 -122.53125 C 84.988281 -103.800781 91.097656 -87.566406 98.859375 -73.828125 C 106.617188 -60.097656 116.160156 -47.925781 127.484375 -37.3125 C 138.804688 -26.707031 151.515625 -18.59375 165.609375 -12.96875 C 179.703125 -7.351562 194.773438 -4.546875 210.828125 -4.546875 Z M 210.828125 -4.546875 "/></g></g><g transform="translate(2386.516036, 1458.562323)"><g><path d="M -36.65625 97.390625 C -33.257812 95.066406 -30.226562 93.90625 -27.5625 93.90625 C -19.351562 93.90625 -9.988281 98.632812 0.53125 108.09375 C 2.3125 109.695312 3.648438 110.851562 4.546875 111.5625 L 5.890625 112.90625 C 10.171875 116.46875 14.628906 118.25 19.265625 118.25 C 26.035156 118.25 32.8125 115.929688 39.59375 111.296875 C 46.375 106.660156 51.816406 100.238281 55.921875 92.03125 C 61.441406 80.613281 65.492188 67.769531 68.078125 53.5 C 70.671875 39.238281 71.96875 21.941406 71.96875 1.609375 L 71.703125 -40.125 L 72.234375 -68.75 C 72.234375 -88.195312 71.519531 -118.164062 70.09375 -158.65625 L 68.484375 -258.71875 L 68.75 -310.34375 C 68.9375 -314.976562 68.132812 -318.992188 66.34375 -322.390625 C 65.28125 -324.171875 63.363281 -325.773438 60.59375 -327.203125 C 57.832031 -328.628906 53.863281 -329.429688 48.6875 -329.609375 L 28.890625 -330.953125 C 22.648438 -330.953125 18.367188 -331.570312 16.046875 -332.8125 C 15.335938 -335.488281 14.984375 -337.539062 14.984375 -338.96875 L 15.25 -342.1875 C 19.175781 -342.1875 23.992188 -342.007812 29.703125 -341.65625 C 40.753906 -341.113281 51.539062 -340.84375 62.0625 -340.84375 C 67.0625 -340.84375 73.664062 -340.929688 81.875 -341.109375 C 88.113281 -341.472656 92.484375 -341.65625 94.984375 -341.65625 L 134.3125 -341.65625 C 139.832031 -341.65625 145.804688 -341.382812 152.234375 -340.84375 C 152.234375 -336.738281 152.050781 -333.53125 151.6875 -331.21875 C 136.351562 -330.5 126.632812 -329.425781 122.53125 -328 C 118.425781 -326.570312 115.394531 -324.613281 113.4375 -322.125 C 112.1875 -320.507812 111.5625 -317.382812 111.5625 -312.75 L 110.5 -284.9375 L 110.765625 -278.234375 C 111.117188 -275.023438 111.296875 -268.875 111.296875 -259.78125 L 111.296875 -249.078125 C 111.296875 -242.835938 111.382812 -237.3125 111.5625 -232.5 C 111.914062 -225.363281 112.09375 -221.082031 112.09375 -219.65625 C 112.09375 -218.050781 111.914062 -213.859375 111.5625 -207.078125 C 111.382812 -205.117188 111.296875 -203.425781 111.296875 -202 L 114.5 -127.609375 L 113.96875 -79.734375 L 113.96875 -48.6875 C 113.96875 -30.851562 110.582031 -5.972656 103.8125 25.953125 C 98.8125 49.140625 89.800781 70.226562 76.78125 89.21875 C 63.757812 108.21875 50.914062 121.191406 38.25 128.140625 C 25.59375 135.097656 8.738281 138.578125 -12.3125 138.578125 C -23.539062 138.578125 -32.546875 135.90625 -39.328125 130.5625 C -43.960938 126.8125 -46.28125 121.816406 -46.28125 115.578125 C -46.28125 108.085938 -43.070312 102.023438 -36.65625 97.390625 Z M -36.65625 97.390625 "/></g></g><g transform="translate(2569.247238, 1458.562323)"><g><path d="M 13.375 -4.28125 C 15.15625 -5.882812 16.671875 -6.863281 17.921875 -7.21875 C 20.953125 -8.113281 26.125 -8.828125 33.4375 -9.359375 C 50.738281 -10.429688 61.441406 -12.035156 65.546875 -14.171875 C 68.046875 -17.742188 69.296875 -22.738281 69.296875 -29.15625 L 69.03125 -47.890625 L 69.296875 -115.84375 L 68.75 -147.953125 L 69.03125 -215.109375 L 67.6875 -291.34375 C 67.507812 -309.539062 66.347656 -319.800781 64.203125 -322.125 C 60.992188 -325.507812 51.453125 -327.46875 35.578125 -328 C 28.804688 -328.175781 22.832031 -328.710938 17.65625 -329.609375 C 15.332031 -330.859375 14.171875 -332.460938 14.171875 -334.421875 C 14.171875 -335.847656 14.617188 -337.546875 15.515625 -339.515625 C 17.117188 -340.398438 18.546875 -340.84375 19.796875 -340.84375 C 22.296875 -340.84375 25.328125 -340.753906 28.890625 -340.578125 C 39.410156 -339.679688 50.289062 -339.234375 61.53125 -339.234375 L 81.328125 -339.78125 L 128.421875 -338.703125 C 151.960938 -338.703125 170.332031 -338.96875 183.53125 -339.5 C 196.726562 -340.039062 205.644531 -340.3125 210.28125 -340.3125 C 214.382812 -340.3125 224.550781 -339.953125 240.78125 -339.234375 L 278.78125 -339.515625 L 283.328125 -338.703125 L 305.53125 -339.515625 L 308.203125 -338.171875 C 309.097656 -336.742188 309.722656 -335.226562 310.078125 -333.625 C 310.078125 -331.125 309.675781 -327.285156 308.875 -322.109375 C 308.070312 -316.941406 307.671875 -313.734375 307.671875 -312.484375 C 307.671875 -293.929688 308.296875 -278.238281 309.546875 -265.40625 C 309.367188 -264.332031 308.832031 -263.617188 307.9375 -263.265625 C 305.976562 -263.265625 304.195312 -263.53125 302.59375 -264.0625 C 300.625 -267.445312 297.988281 -273.421875 294.6875 -281.984375 C 291.394531 -290.546875 286.445312 -300.445312 279.84375 -311.6875 C 275.382812 -319.175781 271.90625 -323.632812 269.40625 -325.0625 C 266.914062 -326.488281 261.742188 -327.203125 253.890625 -327.203125 C 252.285156 -327.203125 244.171875 -327.378906 229.546875 -327.734375 C 225.617188 -327.910156 221.785156 -328 218.046875 -328 L 141.796875 -326.40625 L 135.109375 -326.40625 C 125.296875 -326.40625 119.410156 -325.15625 117.453125 -322.65625 C 114.421875 -318.375 112.90625 -305.800781 112.90625 -284.9375 C 112.90625 -282.789062 113.347656 -261.382812 114.234375 -220.71875 L 114.234375 -183.53125 C 116.203125 -183 118.34375 -182.734375 120.65625 -182.734375 L 125.203125 -182.734375 C 128.234375 -182.734375 132.691406 -182.644531 138.578125 -182.46875 C 147.859375 -182.101562 154.101562 -181.921875 157.3125 -181.921875 C 159.457031 -181.921875 161.332031 -182.007812 162.9375 -182.1875 C 182.195312 -182.90625 206.988281 -183.265625 237.3125 -183.265625 C 246.757812 -184.867188 252.285156 -186.742188 253.890625 -188.890625 C 256.566406 -192.097656 258.570312 -200.476562 259.90625 -214.03125 C 261.25 -227.582031 264.238281 -235.253906 268.875 -237.046875 C 271.195312 -237.046875 273.335938 -236.597656 275.296875 -235.703125 C 275.648438 -234.273438 275.828125 -232.9375 275.828125 -231.6875 C 275.828125 -230.4375 275.648438 -228.382812 275.296875 -225.53125 C 274.410156 -218.9375 273.96875 -198.25 273.96875 -163.46875 C 273.96875 -154.195312 274.457031 -143.851562 275.4375 -132.4375 C 276.414062 -121.019531 276.90625 -114.863281 276.90625 -113.96875 C 276.90625 -112.363281 276.632812 -110.222656 276.09375 -107.546875 C 274.675781 -106.835938 273.519531 -106.484375 272.625 -106.484375 L 270.75 -106.484375 C 267.894531 -111.472656 265.128906 -119.226562 262.453125 -129.75 C 257.816406 -147.769531 252.957031 -159.050781 247.875 -163.59375 C 242.789062 -168.144531 234.539062 -170.421875 223.125 -170.421875 C 220.625 -170.421875 216.070312 -170.285156 209.46875 -170.015625 C 202.875 -169.753906 193.066406 -169.625 180.046875 -169.625 L 162.671875 -169.625 C 137.867188 -169.625 121.632812 -169.085938 113.96875 -168.015625 L 113.703125 -159.1875 L 113.96875 -109.953125 L 113.703125 -78.921875 L 113.96875 -48.6875 C 114.144531 -30.5 115.304688 -19.976562 117.453125 -17.125 C 120.484375 -13.195312 127.082031 -11.234375 137.25 -11.234375 L 153.5625 -11.5 C 154.988281 -11.5 160.5625 -11.363281 170.28125 -11.09375 C 180.007812 -10.832031 192.003906 -10.703125 206.265625 -10.703125 C 240.691406 -10.703125 263.613281 -12.171875 275.03125 -15.109375 C 286.445312 -18.054688 295.851562 -23.273438 303.25 -30.765625 C 310.65625 -38.253906 319.976562 -54.394531 331.21875 -79.1875 C 334.601562 -86.5 337.988281 -90.15625 341.375 -90.15625 C 342.976562 -90.15625 344.765625 -89.441406 346.734375 -88.015625 C 341.554688 -70.359375 338.613281 -58.765625 337.90625 -53.234375 C 335.9375 -40.753906 334.773438 -28.003906 334.421875 -14.984375 C 334.421875 -9.097656 332.992188 -4.191406 330.140625 -0.265625 L 324.265625 -0.265625 L 249.078125 0.53125 L 215.375 0.265625 L 135.109375 1.34375 L 102.46875 1.34375 C 98.363281 1.34375 94.53125 1.429688 90.96875 1.609375 C 58.863281 3.035156 35.226562 3.75 20.0625 3.75 C 17.382812 3.75 15.554688 3.300781 14.578125 2.40625 C 13.597656 1.507812 13.109375 0.171875 13.109375 -1.609375 Z M 13.375 -4.28125 "/></g></g><g transform="translate(2928.823722, 1458.562323)"><g><path d="M 317.03125 -327.46875 C 319.175781 -313.738281 320.25 -299.648438 320.25 -285.203125 C 320.25 -282.347656 320.160156 -278.507812 319.984375 -273.6875 C 317.484375 -273.15625 315.609375 -272.890625 314.359375 -272.890625 C 313.285156 -272.890625 311.769531 -273.066406 309.8125 -273.421875 C 302.320312 -294.296875 290.101562 -310.347656 273.15625 -321.578125 C 256.207031 -332.816406 235.25 -338.4375 210.28125 -338.4375 C 197.082031 -338.4375 185.9375 -336.921875 176.84375 -333.890625 C 160.789062 -328.359375 146.695312 -320.734375 134.5625 -311.015625 C 122.4375 -301.296875 112.179688 -289.703125 103.796875 -276.234375 C 95.421875 -262.765625 88.78125 -246.441406 83.875 -227.265625 C 78.96875 -208.097656 76.515625 -188.523438 76.515625 -168.546875 C 76.515625 -130.378906 82.3125 -98.851562 93.90625 -73.96875 C 105.5 -49.09375 121.375 -31.347656 141.53125 -20.734375 C 161.6875 -10.117188 182.019531 -4.8125 202.53125 -4.8125 L 215.109375 -5.078125 C 229.367188 -6.867188 239.085938 -8.566406 244.265625 -10.171875 C 257.285156 -13.910156 268.03125 -18.320312 276.5 -23.40625 C 284.96875 -28.488281 293.257812 -35.664062 301.375 -44.9375 C 309.5 -54.21875 316.414062 -65.007812 322.125 -77.3125 L 325.328125 -78.390625 C 326.222656 -78.390625 327.5625 -77.851562 329.34375 -76.78125 C 329.164062 -72.5 328.988281 -69.734375 328.8125 -68.484375 C 321.3125 -38.347656 315.867188 -17.75 312.484375 -6.6875 C 309.628906 -5.976562 306.0625 -4.910156 301.78125 -3.484375 C 280.914062 3.648438 253.003906 7.21875 218.046875 7.21875 C 189.867188 7.21875 168.773438 5.300781 154.765625 1.46875 C 140.765625 -2.363281 125.515625 -8.335938 109.015625 -16.453125 C 92.523438 -24.566406 78.035156 -35.3125 65.546875 -48.6875 C 53.054688 -62.0625 42.976562 -78.960938 35.3125 -99.390625 C 27.644531 -119.816406 23.8125 -142.066406 23.8125 -166.140625 C 23.8125 -188.972656 26.84375 -208.90625 32.90625 -225.9375 C 38.96875 -242.96875 48.332031 -260.222656 61 -277.703125 C 73.664062 -295.179688 88.601562 -309.71875 105.8125 -321.3125 C 123.019531 -332.90625 142.148438 -341.109375 163.203125 -345.921875 C 178.003906 -349.140625 198.960938 -350.75 226.078125 -350.75 C 245.867188 -350.75 264.503906 -348.113281 281.984375 -342.84375 C 299.460938 -337.582031 311.144531 -332.457031 317.03125 -327.46875 Z M 317.03125 -327.46875 "/></g></g><g transform="translate(3276.895901, 1458.562323)"><g><path d="M 9.625 -302.3125 L 20.59375 -342.71875 C 21.3125 -348.070312 22.296875 -351.503906 23.546875 -353.015625 C 24.796875 -354.535156 26.222656 -355.296875 27.828125 -355.296875 C 31.035156 -355.296875 34.691406 -351.457031 38.796875 -343.78125 C 41.828125 -338.257812 44.320312 -334.738281 46.28125 -333.21875 C 48.25 -331.707031 51.101562 -330.679688 54.84375 -330.140625 L 57.515625 -330.40625 L 69.03125 -329.34375 L 132.171875 -328.546875 L 206.8125 -328.8125 L 228.75 -328.8125 L 270.21875 -329.609375 C 272 -329.609375 274.226562 -329.429688 276.90625 -329.078125 C 289.03125 -328.003906 296.519531 -327.46875 299.375 -327.46875 C 302.050781 -327.46875 304.191406 -328.359375 305.796875 -330.140625 C 306.328125 -330.859375 309.269531 -336.925781 314.625 -348.34375 C 316.945312 -353.507812 319.800781 -356.09375 323.1875 -356.09375 C 324.613281 -356.09375 326.398438 -355.738281 328.546875 -355.03125 C 329.429688 -351.457031 329.875 -348.242188 329.875 -345.390625 L 329.609375 -334.6875 L 329.875 -311.953125 C 329.875 -306.421875 329.429688 -288.582031 328.546875 -258.4375 C 328.546875 -256.476562 328.1875 -254.695312 327.46875 -253.09375 C 325.507812 -251.84375 323.816406 -251.21875 322.390625 -251.21875 C 320.960938 -251.21875 319.710938 -251.882812 318.640625 -253.21875 C 317.566406 -254.5625 316.226562 -258.710938 314.625 -265.671875 C 311.0625 -281.722656 306.601562 -293.226562 301.25 -300.1875 C 297.6875 -304.644531 292.554688 -307.851562 285.859375 -309.8125 C 279.171875 -311.769531 263.164062 -312.75 237.84375 -312.75 C 217.507812 -312.75 202.4375 -312.394531 192.625 -311.6875 C 192.269531 -304.550781 192.09375 -298.039062 192.09375 -292.15625 L 194.234375 -126.015625 C 194.234375 -119.410156 193.875 -106.925781 193.15625 -88.5625 L 193.4375 -52.96875 L 193.15625 -33.171875 C 193.15625 -26.929688 194.222656 -22.472656 196.359375 -19.796875 C 198.503906 -17.117188 204.304688 -14.535156 213.765625 -12.046875 C 230.171875 -7.941406 241.140625 -5.441406 246.671875 -4.546875 C 250.054688 -4.191406 252.820312 -3.476562 254.96875 -2.40625 L 254.96875 5.625 L 216.96875 4.546875 C 196.101562 4.367188 180.410156 3.921875 169.890625 3.203125 L 130.828125 5.078125 L 102.203125 6.6875 C 94.171875 6.6875 89.265625 6.507812 87.484375 6.15625 L 83.734375 4.546875 C 84.097656 0.441406 84.898438 -2.1875 86.140625 -3.34375 C 87.390625 -4.5 90.691406 -5.4375 96.046875 -6.15625 C 103.535156 -7.226562 112.363281 -9.144531 122.53125 -11.90625 C 132.695312 -14.664062 139.382812 -17.472656 142.59375 -20.328125 C 144.382812 -21.929688 145.632812 -24.609375 146.34375 -28.359375 C 147.945312 -36.203125 148.75 -51.628906 148.75 -74.640625 L 148.75 -120.125 L 147.6875 -219.375 L 146.609375 -240.78125 L 146.34375 -312.21875 C 135.101562 -313.46875 120.742188 -314.09375 103.265625 -314.09375 C 77.585938 -314.09375 61.984375 -312.488281 56.453125 -309.28125 C 47.710938 -304.28125 34.691406 -289.65625 17.390625 -265.40625 C 11.679688 -256.300781 6.6875 -251.75 2.40625 -251.75 L 0 -252.296875 C -0.707031 -253.359375 -1.0625 -254.335938 -1.0625 -255.234375 C -1.0625 -257.367188 0.359375 -263.789062 3.203125 -274.5 C 6.773438 -288.226562 8.914062 -297.5 9.625 -302.3125 Z M 9.625 -302.3125 "/></g></g><g transform="translate(3613.731311, 1458.562323)"><g><path d="M 212.6875 -330.140625 C 214.113281 -318.367188 214.828125 -311.59375 214.828125 -309.8125 L 213.765625 -286 C 213.410156 -275.832031 212.960938 -269.320312 212.421875 -266.46875 C 210.816406 -265.757812 209.476562 -265.40625 208.40625 -265.40625 L 206 -265.9375 C 200.289062 -290.90625 190.613281 -309.097656 176.96875 -320.515625 C 163.332031 -331.929688 146.703125 -337.640625 127.078125 -337.640625 C 106.742188 -337.640625 90.066406 -331.929688 77.046875 -320.515625 C 64.023438 -309.097656 57.515625 -295.8125 57.515625 -280.65625 C 57.515625 -269.0625 62.066406 -258.445312 71.171875 -248.8125 C 80.265625 -239.175781 103.539062 -224.726562 141 -205.46875 C 169.53125 -190.664062 189.945312 -178.582031 202.25 -169.21875 C 214.5625 -159.851562 223.835938 -149.015625 230.078125 -136.703125 C 236.328125 -124.398438 239.453125 -110.671875 239.453125 -95.515625 C 239.453125 -76.429688 234.5 -58.503906 224.59375 -41.734375 C 214.695312 -24.972656 201.363281 -12.351562 184.59375 -3.875 C 167.832031 4.59375 145.628906 8.828125 117.984375 8.828125 C 93.910156 8.828125 70.8125 4.992188 48.6875 -2.671875 C 35.664062 -7.304688 27.726562 -11.050781 24.875 -13.90625 C 22.019531 -16.757812 20.59375 -19.796875 20.59375 -23.015625 C 20.59375 -24.972656 20.773438 -27.46875 21.140625 -30.5 C 23.628906 -51.539062 24.96875 -68.84375 25.15625 -82.40625 C 25.507812 -90.789062 26.128906 -95.691406 27.015625 -97.109375 C 27.734375 -98.359375 29.070312 -98.984375 31.03125 -98.984375 C 32.632812 -98.984375 33.925781 -98.40625 34.90625 -97.25 C 35.894531 -96.09375 36.566406 -93.910156 36.921875 -90.703125 C 38.878906 -68.753906 49.046875 -49.132812 67.421875 -31.84375 C 85.609375 -14.539062 106.207031 -5.890625 129.21875 -5.890625 C 143.3125 -5.890625 156.285156 -8.832031 168.140625 -14.71875 C 180.003906 -20.601562 189.28125 -29.117188 195.96875 -40.265625 C 202.65625 -51.410156 206 -62.242188 206 -72.765625 C 206 -87.210938 200.914062 -100.410156 190.75 -112.359375 C 180.582031 -124.316406 160.160156 -138.273438 129.484375 -154.234375 C 98.804688 -170.203125 78.832031 -181.84375 69.5625 -189.15625 C 54.582031 -201.101562 43.34375 -213.765625 35.84375 -227.140625 C 30.320312 -237.484375 27.5625 -249.523438 27.5625 -263.265625 C 27.5625 -288.054688 37.367188 -309.054688 56.984375 -326.265625 C 76.609375 -343.472656 102.914062 -352.078125 135.90625 -352.078125 C 154.101562 -352.078125 169.800781 -350.023438 183 -345.921875 C 192.625 -342.710938 202.519531 -337.453125 212.6875 -330.140625 Z M 212.6875 -330.140625 "/></g></g></g></svg>