<svg xmlns="http://www.w3.org/2000/svg" xmlns:xlink="http://www.w3.org/1999/xlink" width="6912" zoomAndPan="magnify" viewBox="0 0 5184 2592.000001" height="3456" preserveAspectRatio="xMidYMid meet" version="1.0"><defs><g/><clipPath id="0544a71ad3"><path d="M 110.929688 120.441406 L 5073.066406 120.441406 L 5073.066406 2470.550781 L 110.929688 2470.550781 Z M 110.929688 120.441406 " clip-rule="nonzero"/></clipPath></defs><path fill="#ffffff" d="M 1 0 L 5183 0 L 5183 2591 L 1 2591 Z M 1 0 " fill-opacity="1" fill-rule="nonzero"/><path fill="#171612" d="M 1 0 L 5183 0 L 5183 2591 L 1 2591 Z M 1 0 " fill-opacity="1" fill-rule="nonzero"/><g clip-path="url(#0544a71ad3)"><path stroke-linecap="butt" transform="matrix(0.749711, 0, 0, 0.749711, 110.92887, 120.443002)" fill="none" stroke-linejoin="miter" d="M 0.00109065 -0.00212878 L 6618.736195 -0.00212878 L 6618.736195 3134.686071 L 0.00109065 3134.686071 Z M 0.00109065 -0.00212878 " stroke="#4f0805" stroke-width="116" stroke-opacity="1" stroke-miterlimit="4"/></g><g fill="#bb4154" fill-opacity="0.6"><g transform="translate(1531.717817, 1482.777619)"><g><path d="M 14.984375 -8.03125 C 41.023438 -11.0625 55.738281 -13.203125 59.125 -14.453125 C 61.445312 -15.335938 63.585938 -18.007812 65.546875 -22.46875 L 65.546875 -25.421875 C 65.546875 -29.878906 66.257812 -46.019531 67.6875 -73.84375 C 68.039062 -81.6875 68.21875 -89.351562 68.21875 -96.84375 L 67.421875 -128.6875 L 67.953125 -164.796875 L 67.6875 -231.953125 L 67.953125 -280.109375 C 68.128906 -300.441406 66.566406 -312.835938 63.265625 -317.296875 C 59.972656 -321.753906 51.457031 -324.921875 37.71875 -326.796875 C 23.988281 -328.671875 16.410156 -330.050781 14.984375 -330.9375 C 13.554688 -331.832031 12.84375 -333.265625 12.84375 -335.234375 C 12.84375 -336.472656 13.109375 -338.078125 13.640625 -340.046875 C 15.421875 -341.648438 19.523438 -342.539062 25.953125 -342.71875 C 26.847656 -342.71875 29.300781 -342.941406 33.3125 -343.390625 C 37.320312 -343.835938 41.109375 -344.0625 44.671875 -344.0625 L 66.625 -344.0625 L 136.984375 -344.859375 C 176.753906 -344.859375 204.617188 -341.914062 220.578125 -336.03125 C 236.546875 -330.144531 249.253906 -320.203125 258.703125 -306.203125 C 268.160156 -292.203125 272.890625 -276.550781 272.890625 -259.25 C 272.890625 -226.425781 255.675781 -201.363281 221.25 -184.0625 C 215.363281 -181.03125 210.726562 -178.359375 207.34375 -176.046875 C 213.40625 -163.203125 221.878906 -147.769531 232.765625 -129.75 L 266.734375 -71.4375 C 280.296875 -50.03125 289.660156 -36.609375 294.828125 -31.171875 C 300.003906 -25.734375 306.289062 -21.226562 313.6875 -17.65625 C 321.09375 -14.09375 333.535156 -10.703125 351.015625 -7.484375 C 351.191406 -5.703125 351.28125 -4.273438 351.28125 -3.203125 C 351.28125 -2.140625 351.191406 -0.804688 351.015625 0.796875 C 326.578125 1.160156 297.945312 1.34375 265.125 1.34375 C 262.8125 1.34375 259.601562 1.160156 255.5 0.796875 C 242.832031 -23.453125 227.941406 -50.113281 210.828125 -79.1875 L 171.21875 -151.421875 C 165.875 -158.921875 161.460938 -163.601562 157.984375 -165.46875 C 154.503906 -167.34375 149.910156 -168.28125 144.203125 -168.28125 L 121.46875 -168.015625 L 113.96875 -168.28125 C 113.4375 -162.570312 113.171875 -150.890625 113.171875 -133.234375 L 113.171875 -41.734375 C 112.992188 -38.347656 113.707031 -33.625 115.3125 -27.5625 C 116.738281 -24.164062 119.191406 -21.441406 122.671875 -19.390625 C 126.148438 -17.335938 136.179688 -14.265625 152.765625 -10.171875 L 163.734375 -7.484375 C 165.160156 -5.703125 165.875 -3.296875 165.875 -0.265625 C 161.0625 0.617188 157.671875 1.0625 155.703125 1.0625 C 139.648438 1.0625 128.328125 0.882812 121.734375 0.53125 C 118.335938 0.351562 115.570312 0.265625 113.4375 0.265625 L 77.046875 0.796875 L 41.46875 0.53125 C 39.863281 0.53125 31.75 0.800781 17.125 1.34375 L 11.765625 0.265625 L 11.234375 -2.40625 C 11.234375 -4.007812 12.484375 -5.882812 14.984375 -8.03125 Z M 114.5 -183 C 119.320312 -182.820312 122.890625 -182.734375 125.203125 -182.734375 C 138.046875 -182.734375 152.851562 -184.25 169.625 -187.28125 C 181.394531 -189.59375 190.9375 -193.378906 198.25 -198.640625 C 205.5625 -203.910156 211.671875 -211.71875 216.578125 -222.0625 C 221.484375 -232.40625 223.9375 -243.101562 223.9375 -254.15625 C 223.9375 -266.289062 220.097656 -279.132812 212.421875 -292.6875 C 206.535156 -303.03125 196.59375 -311.679688 182.59375 -318.640625 C 168.59375 -325.597656 151.785156 -329.078125 132.171875 -329.078125 C 127.347656 -329.078125 121.101562 -328.804688 113.4375 -328.265625 C 112.71875 -318.992188 112.359375 -311.863281 112.359375 -306.875 L 113.703125 -256.84375 L 113.4375 -236.234375 C 113.4375 -222.328125 113.789062 -204.582031 114.5 -183 Z M 114.5 -183 "/></g></g><g transform="translate(1874.171612, 1482.777619)"><g><path d="M 13.375 -4.28125 C 15.15625 -5.882812 16.671875 -6.863281 17.921875 -7.21875 C 20.953125 -8.113281 26.125 -8.828125 33.4375 -9.359375 C 50.738281 -10.429688 61.441406 -12.035156 65.546875 -14.171875 C 68.046875 -17.742188 69.296875 -22.738281 69.296875 -29.15625 L 69.03125 -47.890625 L 69.296875 -115.84375 L 68.75 -147.953125 L 69.03125 -215.109375 L 67.6875 -291.34375 C 67.507812 -309.539062 66.347656 -319.800781 64.203125 -322.125 C 60.992188 -325.507812 51.453125 -327.46875 35.578125 -328 C 28.804688 -328.175781 22.832031 -328.710938 17.65625 -329.609375 C 15.332031 -330.859375 14.171875 -332.460938 14.171875 -334.421875 C 14.171875 -335.847656 14.617188 -337.546875 15.515625 -339.515625 C 17.117188 -340.398438 18.546875 -340.84375 19.796875 -340.84375 C 22.296875 -340.84375 25.328125 -340.753906 28.890625 -340.578125 C 39.410156 -339.679688 50.289062 -339.234375 61.53125 -339.234375 L 81.328125 -339.78125 L 128.421875 -338.703125 C 151.960938 -338.703125 170.332031 -338.96875 183.53125 -339.5 C 196.726562 -340.039062 205.644531 -340.3125 210.28125 -340.3125 C 214.382812 -340.3125 224.550781 -339.953125 240.78125 -339.234375 L 278.78125 -339.515625 L 283.328125 -338.703125 L 305.53125 -339.515625 L 308.203125 -338.171875 C 309.097656 -336.742188 309.722656 -335.226562 310.078125 -333.625 C 310.078125 -331.125 309.675781 -327.285156 308.875 -322.109375 C 308.070312 -316.941406 307.671875 -313.734375 307.671875 -312.484375 C 307.671875 -293.929688 308.296875 -278.238281 309.546875 -265.40625 C 309.367188 -264.332031 308.832031 -263.617188 307.9375 -263.265625 C 305.976562 -263.265625 304.195312 -263.53125 302.59375 -264.0625 C 300.625 -267.445312 297.988281 -273.421875 294.6875 -281.984375 C 291.394531 -290.546875 286.445312 -300.445312 279.84375 -311.6875 C 275.382812 -319.175781 271.90625 -323.632812 269.40625 -325.0625 C 266.914062 -326.488281 261.742188 -327.203125 253.890625 -327.203125 C 252.285156 -327.203125 244.171875 -327.378906 229.546875 -327.734375 C 225.617188 -327.910156 221.785156 -328 218.046875 -328 L 141.796875 -326.40625 L 135.109375 -326.40625 C 125.296875 -326.40625 119.410156 -325.15625 117.453125 -322.65625 C 114.421875 -318.375 112.90625 -305.800781 112.90625 -284.9375 C 112.90625 -282.789062 113.347656 -261.382812 114.234375 -220.71875 L 114.234375 -183.53125 C 116.203125 -183 118.34375 -182.734375 120.65625 -182.734375 L 125.203125 -182.734375 C 128.234375 -182.734375 132.691406 -182.644531 138.578125 -182.46875 C 147.859375 -182.101562 154.101562 -181.921875 157.3125 -181.921875 C 159.457031 -181.921875 161.332031 -182.007812 162.9375 -182.1875 C 182.195312 -182.90625 206.988281 -183.265625 237.3125 -183.265625 C 246.757812 -184.867188 252.285156 -186.742188 253.890625 -188.890625 C 256.566406 -192.097656 258.570312 -200.476562 259.90625 -214.03125 C 261.25 -227.582031 264.238281 -235.253906 268.875 -237.046875 C 271.195312 -237.046875 273.335938 -236.597656 275.296875 -235.703125 C 275.648438 -234.273438 275.828125 -232.9375 275.828125 -231.6875 C 275.828125 -230.4375 275.648438 -228.382812 275.296875 -225.53125 C 274.410156 -218.9375 273.96875 -198.25 273.96875 -163.46875 C 273.96875 -154.195312 274.457031 -143.851562 275.4375 -132.4375 C 276.414062 -121.019531 276.90625 -114.863281 276.90625 -113.96875 C 276.90625 -112.363281 276.632812 -110.222656 276.09375 -107.546875 C 274.675781 -106.835938 273.519531 -106.484375 272.625 -106.484375 L 270.75 -106.484375 C 267.894531 -111.472656 265.128906 -119.226562 262.453125 -129.75 C 257.816406 -147.769531 252.957031 -159.050781 247.875 -163.59375 C 242.789062 -168.144531 234.539062 -170.421875 223.125 -170.421875 C 220.625 -170.421875 216.070312 -170.285156 209.46875 -170.015625 C 202.875 -169.753906 193.066406 -169.625 180.046875 -169.625 L 162.671875 -169.625 C 137.867188 -169.625 121.632812 -169.085938 113.96875 -168.015625 L 113.703125 -159.1875 L 113.96875 -109.953125 L 113.703125 -78.921875 L 113.96875 -48.6875 C 114.144531 -30.5 115.304688 -19.976562 117.453125 -17.125 C 120.484375 -13.195312 127.082031 -11.234375 137.25 -11.234375 L 153.5625 -11.5 C 154.988281 -11.5 160.5625 -11.363281 170.28125 -11.09375 C 180.007812 -10.832031 192.003906 -10.703125 206.265625 -10.703125 C 240.691406 -10.703125 263.613281 -12.171875 275.03125 -15.109375 C 286.445312 -18.054688 295.851562 -23.273438 303.25 -30.765625 C 310.65625 -38.253906 319.976562 -54.394531 331.21875 -79.1875 C 334.601562 -86.5 337.988281 -90.15625 341.375 -90.15625 C 342.976562 -90.15625 344.765625 -89.441406 346.734375 -88.015625 C 341.554688 -70.359375 338.613281 -58.765625 337.90625 -53.234375 C 335.9375 -40.753906 334.773438 -28.003906 334.421875 -14.984375 C 334.421875 -9.097656 332.992188 -4.191406 330.140625 -0.265625 L 324.265625 -0.265625 L 249.078125 0.53125 L 215.375 0.265625 L 135.109375 1.34375 L 102.46875 1.34375 C 98.363281 1.34375 94.53125 1.429688 90.96875 1.609375 C 58.863281 3.035156 35.226562 3.75 20.0625 3.75 C 17.382812 3.75 15.554688 3.300781 14.578125 2.40625 C 13.597656 1.507812 13.109375 0.171875 13.109375 -1.609375 Z M 13.375 -4.28125 "/></g></g><g transform="translate(2233.748096, 1482.777619)"><g><path d="M 212.6875 -330.140625 C 214.113281 -318.367188 214.828125 -311.59375 214.828125 -309.8125 L 213.765625 -286 C 213.410156 -275.832031 212.960938 -269.320312 212.421875 -266.46875 C 210.816406 -265.757812 209.476562 -265.40625 208.40625 -265.40625 L 206 -265.9375 C 200.289062 -290.90625 190.613281 -309.097656 176.96875 -320.515625 C 163.332031 -331.929688 146.703125 -337.640625 127.078125 -337.640625 C 106.742188 -337.640625 90.066406 -331.929688 77.046875 -320.515625 C 64.023438 -309.097656 57.515625 -295.8125 57.515625 -280.65625 C 57.515625 -269.0625 62.066406 -258.445312 71.171875 -248.8125 C 80.265625 -239.175781 103.539062 -224.726562 141 -205.46875 C 169.53125 -190.664062 189.945312 -178.582031 202.25 -169.21875 C 214.5625 -159.851562 223.835938 -149.015625 230.078125 -136.703125 C 236.328125 -124.398438 239.453125 -110.671875 239.453125 -95.515625 C 239.453125 -76.429688 234.5 -58.503906 224.59375 -41.734375 C 214.695312 -24.972656 201.363281 -12.351562 184.59375 -3.875 C 167.832031 4.59375 145.628906 8.828125 117.984375 8.828125 C 93.910156 8.828125 70.8125 4.992188 48.6875 -2.671875 C 35.664062 -7.304688 27.726562 -11.050781 24.875 -13.90625 C 22.019531 -16.757812 20.59375 -19.796875 20.59375 -23.015625 C 20.59375 -24.972656 20.773438 -27.46875 21.140625 -30.5 C 23.628906 -51.539062 24.96875 -68.84375 25.15625 -82.40625 C 25.507812 -90.789062 26.128906 -95.691406 27.015625 -97.109375 C 27.734375 -98.359375 29.070312 -98.984375 31.03125 -98.984375 C 32.632812 -98.984375 33.925781 -98.40625 34.90625 -97.25 C 35.894531 -96.09375 36.566406 -93.910156 36.921875 -90.703125 C 38.878906 -68.753906 49.046875 -49.132812 67.421875 -31.84375 C 85.609375 -14.539062 106.207031 -5.890625 129.21875 -5.890625 C 143.3125 -5.890625 156.285156 -8.832031 168.140625 -14.71875 C 180.003906 -20.601562 189.28125 -29.117188 195.96875 -40.265625 C 202.65625 -51.410156 206 -62.242188 206 -72.765625 C 206 -87.210938 200.914062 -100.410156 190.75 -112.359375 C 180.582031 -124.316406 160.160156 -138.273438 129.484375 -154.234375 C 98.804688 -170.203125 78.832031 -181.84375 69.5625 -189.15625 C 54.582031 -201.101562 43.34375 -213.765625 35.84375 -227.140625 C 30.320312 -237.484375 27.5625 -249.523438 27.5625 -263.265625 C 27.5625 -288.054688 37.367188 -309.054688 56.984375 -326.265625 C 76.609375 -343.472656 102.914062 -352.078125 135.90625 -352.078125 C 154.101562 -352.078125 169.800781 -350.023438 183 -345.921875 C 192.625 -342.710938 202.519531 -337.453125 212.6875 -330.140625 Z M 212.6875 -330.140625 "/></g></g><g transform="translate(2496.206826, 1482.777619)"><g><path d="M 156.25 -343.515625 C 157.132812 -340.484375 157.578125 -338.164062 157.578125 -336.5625 C 157.578125 -335.488281 157.3125 -333.882812 156.78125 -331.75 C 152.144531 -330.5 148.398438 -329.875 145.546875 -329.875 C 144.296875 -329.875 142.195312 -330.003906 139.25 -330.265625 C 136.3125 -330.535156 133.953125 -330.671875 132.171875 -330.671875 C 123.960938 -330.671875 117.453125 -329.066406 112.640625 -325.859375 C 109.421875 -323.898438 107.457031 -321.316406 106.75 -318.109375 L 104.078125 -287.609375 L 104.875 -155.171875 C 105.050781 -106.660156 106.65625 -76.472656 109.6875 -64.609375 C 112.71875 -52.742188 117.800781 -42.976562 124.9375 -35.3125 C 132.070312 -27.644531 142.816406 -21.3125 157.171875 -16.3125 C 171.535156 -11.320312 185.492188 -8.828125 199.046875 -8.828125 C 229.367188 -8.828125 252.597656 -13.195312 268.734375 -21.9375 C 284.878906 -30.675781 296.472656 -42.757812 303.515625 -58.1875 C 310.566406 -73.613281 314.09375 -97.023438 314.09375 -128.421875 C 314.09375 -129.304688 313.828125 -136.441406 313.296875 -149.828125 L 313.296875 -157.578125 C 313.296875 -160.429688 313.472656 -166.003906 313.828125 -174.296875 C 314.179688 -182.597656 314.359375 -187.460938 314.359375 -188.890625 L 310.34375 -265.671875 C 309.09375 -291.523438 307.617188 -306.769531 305.921875 -311.40625 C 304.234375 -316.050781 301.785156 -319.53125 298.578125 -321.84375 C 291.617188 -326.84375 278.421875 -331.304688 258.984375 -335.234375 C 258.085938 -337.722656 257.550781 -340.304688 257.375 -342.984375 C 264.332031 -343.703125 271.195312 -344.0625 277.96875 -344.0625 C 285.101562 -344.0625 292.597656 -343.789062 300.453125 -343.25 C 312.222656 -342.363281 318.640625 -341.921875 319.703125 -341.921875 L 361.984375 -343.25 L 370.28125 -342.984375 L 370 -333.359375 C 348.0625 -330.503906 334.953125 -327.15625 330.671875 -323.3125 C 326.398438 -319.476562 324.265625 -312.390625 324.265625 -302.046875 C 324.265625 -296.523438 324.617188 -284.488281 325.328125 -265.9375 L 327.203125 -210.546875 L 326.9375 -188.609375 L 327.734375 -160.796875 C 327.734375 -125.835938 326.753906 -102.023438 324.796875 -89.359375 C 321.941406 -71.703125 317.882812 -57.703125 312.625 -47.359375 C 307.363281 -37.015625 299.738281 -27.691406 289.75 -19.390625 C 279.757812 -11.097656 266.425781 -4.28125 249.75 1.0625 C 233.070312 6.414062 216.617188 9.09375 200.390625 9.09375 C 174.878906 9.09375 156.507812 7.3125 145.28125 3.75 C 124.757812 -2.5 108.4375 -10.613281 96.3125 -20.59375 C 84.1875 -30.582031 75.804688 -40.570312 71.171875 -50.5625 C 64.921875 -63.757812 61.796875 -83.023438 61.796875 -108.359375 L 61.796875 -126.8125 L 61 -201.71875 L 61.796875 -262.1875 L 61.796875 -302.859375 C 61.796875 -313.203125 60.367188 -320.425781 57.515625 -324.53125 C 55.554688 -327.382812 52.703125 -328.8125 48.953125 -328.8125 L 33.171875 -328.546875 C 21.398438 -328.546875 13.910156 -329.789062 10.703125 -332.28125 C 10.171875 -333.882812 9.90625 -335.3125 9.90625 -336.5625 C 9.90625 -338.164062 10.4375 -339.414062 11.5 -340.3125 C 13.46875 -341.738281 15.878906 -342.453125 18.734375 -342.453125 L 25.6875 -342.453125 L 43.609375 -342.71875 L 85.875 -342.71875 Z M 156.25 -343.515625 "/></g></g><g transform="translate(2884.410305, 1482.777619)"><g><path d="M 3.75 -6.15625 C 9.28125 -9.894531 19.265625 -12.566406 33.703125 -14.171875 C 44.941406 -14.710938 51.632812 -15.695312 53.78125 -17.125 C 55.207031 -18.195312 56.273438 -19.535156 56.984375 -21.140625 C 59.660156 -27.734375 61.625 -45.65625 62.875 -74.90625 C 64.476562 -112.894531 67.0625 -163.460938 70.625 -226.609375 C 73.476562 -274.765625 74.90625 -304.816406 74.90625 -316.765625 L 74.90625 -323.71875 C 62.0625 -326.394531 41.726562 -329.25 13.90625 -332.28125 C 12.125 -334.957031 11.234375 -337.007812 11.234375 -338.4375 C 11.234375 -339.332031 11.859375 -340.9375 13.109375 -343.25 C 16.140625 -344.320312 18.457031 -344.859375 20.0625 -344.859375 C 21.488281 -344.859375 24.609375 -344.5 29.421875 -343.78125 C 38.160156 -342.539062 50.203125 -341.921875 65.546875 -341.921875 C 70.535156 -341.921875 79.097656 -342.273438 91.234375 -342.984375 C 99.796875 -343.515625 104.609375 -343.78125 105.671875 -343.78125 C 108.523438 -343.78125 111.828125 -343.335938 115.578125 -342.453125 C 117.359375 -340.671875 118.695312 -338.976562 119.59375 -337.375 L 130.828125 -312.21875 L 206.546875 -144.734375 L 237.84375 -74.375 C 262.632812 -123.425781 281.894531 -167.035156 295.625 -205.203125 C 296.519531 -208.054688 297.59375 -210.644531 298.84375 -212.96875 C 300.445312 -216 301.960938 -219.382812 303.390625 -223.125 C 304.816406 -226.875 310.613281 -241.144531 320.78125 -265.9375 C 324.882812 -275.925781 328.179688 -284.488281 330.671875 -291.625 C 340.835938 -320.15625 346.816406 -336.472656 348.609375 -340.578125 C 351.992188 -341.828125 354.9375 -342.453125 357.4375 -342.453125 C 360.289062 -342.453125 363.945312 -342.273438 368.40625 -341.921875 C 378.394531 -341.378906 394.625 -341.109375 417.09375 -341.109375 C 431.007812 -341.109375 442.425781 -341.289062 451.34375 -341.65625 C 451.695312 -339.6875 451.875 -338.257812 451.875 -337.375 C 451.875 -336.125 451.609375 -334.425781 451.078125 -332.28125 C 445.367188 -329.25 438.5 -327.554688 430.46875 -327.203125 C 414.59375 -326.304688 404.515625 -325.054688 400.234375 -323.453125 C 395.953125 -321.847656 393.234375 -319.796875 392.078125 -317.296875 C 390.921875 -314.804688 389.894531 -306.601562 389 -292.6875 L 389.265625 -280.375 L 389 -267.546875 C 389 -240.785156 389.710938 -195.835938 391.140625 -132.703125 L 390.875 -80.265625 L 391.140625 -46.546875 C 391.140625 -33.347656 391.765625 -25.546875 393.015625 -23.140625 C 394.265625 -20.734375 397.832031 -18.457031 403.71875 -16.3125 C 413.351562 -13.101562 429.050781 -9.804688 450.8125 -6.421875 C 452.050781 -5.523438 452.671875 -4.363281 452.671875 -2.9375 C 452.671875 -1.332031 452.582031 0.445312 452.40625 2.40625 L 440.109375 2.40625 C 429.578125 2.40625 418.15625 2.09375 405.84375 1.46875 C 393.539062 0.84375 386.945312 0.53125 386.0625 0.53125 C 349.5 0.53125 325.242188 0.890625 313.296875 1.609375 C 305.972656 2.140625 301.332031 2.40625 299.375 2.40625 C 298.125 2.40625 296.785156 2.050781 295.359375 1.34375 L 295.359375 -2.140625 C 295.359375 -3.742188 295.628906 -5.4375 296.171875 -7.21875 C 302.054688 -9.71875 310.082031 -11.414062 320.25 -12.3125 C 331.476562 -15.34375 339.679688 -18.550781 344.859375 -21.9375 C 346.460938 -28.71875 347.265625 -42.539062 347.265625 -63.40625 L 346.46875 -117.453125 C 346.46875 -123.335938 346.78125 -134.304688 347.40625 -150.359375 C 348.03125 -166.410156 348.34375 -192.539062 348.34375 -228.75 C 348.34375 -257.46875 347.628906 -279.226562 346.203125 -294.03125 C 343.171875 -287.78125 337.191406 -274.222656 328.265625 -253.359375 L 324.265625 -243.1875 L 323.71875 -241.59375 L 284.125 -147.953125 L 269.953125 -111.828125 L 251.484375 -67.953125 C 243.460938 -47.796875 236.597656 -29.960938 230.890625 -14.453125 C 228.390625 -7.316406 226.335938 -1.695312 224.734375 2.40625 L 218.578125 2.140625 C 198.421875 -56.710938 174.382812 -117.085938 146.46875 -178.984375 C 118.5625 -240.878906 98.988281 -281.722656 87.75 -301.515625 C 86.320312 -293.847656 84.71875 -271.550781 82.9375 -234.625 C 80.613281 -189.6875 79.453125 -140.191406 79.453125 -86.140625 C 79.453125 -69.203125 80.703125 -50.117188 83.203125 -28.890625 C 83.921875 -22.828125 86.507812 -18.320312 90.96875 -15.375 C 95.425781 -12.4375 106.925781 -10.789062 125.46875 -10.4375 C 132.601562 -10.4375 139.382812 -9.898438 145.8125 -8.828125 C 147.0625 -6.148438 147.6875 -4.1875 147.6875 -2.9375 C 147.6875 -2.050781 147.238281 -0.535156 146.34375 1.609375 L 63.140625 -1.34375 C 57.078125 -1.34375 47.625 -0.894531 34.78125 0 C 27.644531 0.53125 17.390625 0.882812 4.015625 1.0625 Z M 3.75 -6.15625 "/></g></g><g transform="translate(3341.104543, 1482.777619)"><g><path d="M 13.375 -4.28125 C 15.15625 -5.882812 16.671875 -6.863281 17.921875 -7.21875 C 20.953125 -8.113281 26.125 -8.828125 33.4375 -9.359375 C 50.738281 -10.429688 61.441406 -12.035156 65.546875 -14.171875 C 68.046875 -17.742188 69.296875 -22.738281 69.296875 -29.15625 L 69.03125 -47.890625 L 69.296875 -115.84375 L 68.75 -147.953125 L 69.03125 -215.109375 L 67.6875 -291.34375 C 67.507812 -309.539062 66.347656 -319.800781 64.203125 -322.125 C 60.992188 -325.507812 51.453125 -327.46875 35.578125 -328 C 28.804688 -328.175781 22.832031 -328.710938 17.65625 -329.609375 C 15.332031 -330.859375 14.171875 -332.460938 14.171875 -334.421875 C 14.171875 -335.847656 14.617188 -337.546875 15.515625 -339.515625 C 17.117188 -340.398438 18.546875 -340.84375 19.796875 -340.84375 C 22.296875 -340.84375 25.328125 -340.753906 28.890625 -340.578125 C 39.410156 -339.679688 50.289062 -339.234375 61.53125 -339.234375 L 81.328125 -339.78125 L 128.421875 -338.703125 C 151.960938 -338.703125 170.332031 -338.96875 183.53125 -339.5 C 196.726562 -340.039062 205.644531 -340.3125 210.28125 -340.3125 C 214.382812 -340.3125 224.550781 -339.953125 240.78125 -339.234375 L 278.78125 -339.515625 L 283.328125 -338.703125 L 305.53125 -339.515625 L 308.203125 -338.171875 C 309.097656 -336.742188 309.722656 -335.226562 310.078125 -333.625 C 310.078125 -331.125 309.675781 -327.285156 308.875 -322.109375 C 308.070312 -316.941406 307.671875 -313.734375 307.671875 -312.484375 C 307.671875 -293.929688 308.296875 -278.238281 309.546875 -265.40625 C 309.367188 -264.332031 308.832031 -263.617188 307.9375 -263.265625 C 305.976562 -263.265625 304.195312 -263.53125 302.59375 -264.0625 C 300.625 -267.445312 297.988281 -273.421875 294.6875 -281.984375 C 291.394531 -290.546875 286.445312 -300.445312 279.84375 -311.6875 C 275.382812 -319.175781 271.90625 -323.632812 269.40625 -325.0625 C 266.914062 -326.488281 261.742188 -327.203125 253.890625 -327.203125 C 252.285156 -327.203125 244.171875 -327.378906 229.546875 -327.734375 C 225.617188 -327.910156 221.785156 -328 218.046875 -328 L 141.796875 -326.40625 L 135.109375 -326.40625 C 125.296875 -326.40625 119.410156 -325.15625 117.453125 -322.65625 C 114.421875 -318.375 112.90625 -305.800781 112.90625 -284.9375 C 112.90625 -282.789062 113.347656 -261.382812 114.234375 -220.71875 L 114.234375 -183.53125 C 116.203125 -183 118.34375 -182.734375 120.65625 -182.734375 L 125.203125 -182.734375 C 128.234375 -182.734375 132.691406 -182.644531 138.578125 -182.46875 C 147.859375 -182.101562 154.101562 -181.921875 157.3125 -181.921875 C 159.457031 -181.921875 161.332031 -182.007812 162.9375 -182.1875 C 182.195312 -182.90625 206.988281 -183.265625 237.3125 -183.265625 C 246.757812 -184.867188 252.285156 -186.742188 253.890625 -188.890625 C 256.566406 -192.097656 258.570312 -200.476562 259.90625 -214.03125 C 261.25 -227.582031 264.238281 -235.253906 268.875 -237.046875 C 271.195312 -237.046875 273.335938 -236.597656 275.296875 -235.703125 C 275.648438 -234.273438 275.828125 -232.9375 275.828125 -231.6875 C 275.828125 -230.4375 275.648438 -228.382812 275.296875 -225.53125 C 274.410156 -218.9375 273.96875 -198.25 273.96875 -163.46875 C 273.96875 -154.195312 274.457031 -143.851562 275.4375 -132.4375 C 276.414062 -121.019531 276.90625 -114.863281 276.90625 -113.96875 C 276.90625 -112.363281 276.632812 -110.222656 276.09375 -107.546875 C 274.675781 -106.835938 273.519531 -106.484375 272.625 -106.484375 L 270.75 -106.484375 C 267.894531 -111.472656 265.128906 -119.226562 262.453125 -129.75 C 257.816406 -147.769531 252.957031 -159.050781 247.875 -163.59375 C 242.789062 -168.144531 234.539062 -170.421875 223.125 -170.421875 C 220.625 -170.421875 216.070312 -170.285156 209.46875 -170.015625 C 202.875 -169.753906 193.066406 -169.625 180.046875 -169.625 L 162.671875 -169.625 C 137.867188 -169.625 121.632812 -169.085938 113.96875 -168.015625 L 113.703125 -159.1875 L 113.96875 -109.953125 L 113.703125 -78.921875 L 113.96875 -48.6875 C 114.144531 -30.5 115.304688 -19.976562 117.453125 -17.125 C 120.484375 -13.195312 127.082031 -11.234375 137.25 -11.234375 L 153.5625 -11.5 C 154.988281 -11.5 160.5625 -11.363281 170.28125 -11.09375 C 180.007812 -10.832031 192.003906 -10.703125 206.265625 -10.703125 C 240.691406 -10.703125 263.613281 -12.171875 275.03125 -15.109375 C 286.445312 -18.054688 295.851562 -23.273438 303.25 -30.765625 C 310.65625 -38.253906 319.976562 -54.394531 331.21875 -79.1875 C 334.601562 -86.5 337.988281 -90.15625 341.375 -90.15625 C 342.976562 -90.15625 344.765625 -89.441406 346.734375 -88.015625 C 341.554688 -70.359375 338.613281 -58.765625 337.90625 -53.234375 C 335.9375 -40.753906 334.773438 -28.003906 334.421875 -14.984375 C 334.421875 -9.097656 332.992188 -4.191406 330.140625 -0.265625 L 324.265625 -0.265625 L 249.078125 0.53125 L 215.375 0.265625 L 135.109375 1.34375 L 102.46875 1.34375 C 98.363281 1.34375 94.53125 1.429688 90.96875 1.609375 C 58.863281 3.035156 35.226562 3.75 20.0625 3.75 C 17.382812 3.75 15.554688 3.300781 14.578125 2.40625 C 13.597656 1.507812 13.109375 0.171875 13.109375 -1.609375 Z M 13.375 -4.28125 "/></g></g></g><g fill="#f3eeee" fill-opacity="1"><g transform="translate(1507.502497, 1458.562323)"><g><path d="M 14.984375 -8.03125 C 41.023438 -11.0625 55.738281 -13.203125 59.125 -14.453125 C 61.445312 -15.335938 63.585938 -18.007812 65.546875 -22.46875 L 65.546875 -25.421875 C 65.546875 -29.878906 66.257812 -46.019531 67.6875 -73.84375 C 68.039062 -81.6875 68.21875 -89.351562 68.21875 -96.84375 L 67.421875 -128.6875 L 67.953125 -164.796875 L 67.6875 -231.953125 L 67.953125 -280.109375 C 68.128906 -300.441406 66.566406 -312.835938 63.265625 -317.296875 C 59.972656 -321.753906 51.457031 -324.921875 37.71875 -326.796875 C 23.988281 -328.671875 16.410156 -330.050781 14.984375 -330.9375 C 13.554688 -331.832031 12.84375 -333.265625 12.84375 -335.234375 C 12.84375 -336.472656 13.109375 -338.078125 13.640625 -340.046875 C 15.421875 -341.648438 19.523438 -342.539062 25.953125 -342.71875 C 26.847656 -342.71875 29.300781 -342.941406 33.3125 -343.390625 C 37.320312 -343.835938 41.109375 -344.0625 44.671875 -344.0625 L 66.625 -344.0625 L 136.984375 -344.859375 C 176.753906 -344.859375 204.617188 -341.914062 220.578125 -336.03125 C 236.546875 -330.144531 249.253906 -320.203125 258.703125 -306.203125 C 268.160156 -292.203125 272.890625 -276.550781 272.890625 -259.25 C 272.890625 -226.425781 255.675781 -201.363281 221.25 -184.0625 C 215.363281 -181.03125 210.726562 -178.359375 207.34375 -176.046875 C 213.40625 -163.203125 221.878906 -147.769531 232.765625 -129.75 L 266.734375 -71.4375 C 280.296875 -50.03125 289.660156 -36.609375 294.828125 -31.171875 C 300.003906 -25.734375 306.289062 -21.226562 313.6875 -17.65625 C 321.09375 -14.09375 333.535156 -10.703125 351.015625 -7.484375 C 351.191406 -5.703125 351.28125 -4.273438 351.28125 -3.203125 C 351.28125 -2.140625 351.191406 -0.804688 351.015625 0.796875 C 326.578125 1.160156 297.945312 1.34375 265.125 1.34375 C 262.8125 1.34375 259.601562 1.160156 255.5 0.796875 C 242.832031 -23.453125 227.941406 -50.113281 210.828125 -79.1875 L 171.21875 -151.421875 C 165.875 -158.921875 161.460938 -163.601562 157.984375 -165.46875 C 154.503906 -167.34375 149.910156 -168.28125 144.203125 -168.28125 L 121.46875 -168.015625 L 113.96875 -168.28125 C 113.4375 -162.570312 113.171875 -150.890625 113.171875 -133.234375 L 113.171875 -41.734375 C 112.992188 -38.347656 113.707031 -33.625 115.3125 -27.5625 C 116.738281 -24.164062 119.191406 -21.441406 122.671875 -19.390625 C 126.148438 -17.335938 136.179688 -14.265625 152.765625 -10.171875 L 163.734375 -7.484375 C 165.160156 -5.703125 165.875 -3.296875 165.875 -0.265625 C 161.0625 0.617188 157.671875 1.0625 155.703125 1.0625 C 139.648438 1.0625 128.328125 0.882812 121.734375 0.53125 C 118.335938 0.351562 115.570312 0.265625 113.4375 0.265625 L 77.046875 0.796875 L 41.46875 0.53125 C 39.863281 0.53125 31.75 0.800781 17.125 1.34375 L 11.765625 0.265625 L 11.234375 -2.40625 C 11.234375 -4.007812 12.484375 -5.882812 14.984375 -8.03125 Z M 114.5 -183 C 119.320312 -182.820312 122.890625 -182.734375 125.203125 -182.734375 C 138.046875 -182.734375 152.851562 -184.25 169.625 -187.28125 C 181.394531 -189.59375 190.9375 -193.378906 198.25 -198.640625 C 205.5625 -203.910156 211.671875 -211.71875 216.578125 -222.0625 C 221.484375 -232.40625 223.9375 -243.101562 223.9375 -254.15625 C 223.9375 -266.289062 220.097656 -279.132812 212.421875 -292.6875 C 206.535156 -303.03125 196.59375 -311.679688 182.59375 -318.640625 C 168.59375 -325.597656 151.785156 -329.078125 132.171875 -329.078125 C 127.347656 -329.078125 121.101562 -328.804688 113.4375 -328.265625 C 112.71875 -318.992188 112.359375 -311.863281 112.359375 -306.875 L 113.703125 -256.84375 L 113.4375 -236.234375 C 113.4375 -222.328125 113.789062 -204.582031 114.5 -183 Z M 114.5 -183 "/></g></g><g transform="translate(1849.956291, 1458.562323)"><g><path d="M 13.375 -4.28125 C 15.15625 -5.882812 16.671875 -6.863281 17.921875 -7.21875 C 20.953125 -8.113281 26.125 -8.828125 33.4375 -9.359375 C 50.738281 -10.429688 61.441406 -12.035156 65.546875 -14.171875 C 68.046875 -17.742188 69.296875 -22.738281 69.296875 -29.15625 L 69.03125 -47.890625 L 69.296875 -115.84375 L 68.75 -147.953125 L 69.03125 -215.109375 L 67.6875 -291.34375 C 67.507812 -309.539062 66.347656 -319.800781 64.203125 -322.125 C 60.992188 -325.507812 51.453125 -327.46875 35.578125 -328 C 28.804688 -328.175781 22.832031 -328.710938 17.65625 -329.609375 C 15.332031 -330.859375 14.171875 -332.460938 14.171875 -334.421875 C 14.171875 -335.847656 14.617188 -337.546875 15.515625 -339.515625 C 17.117188 -340.398438 18.546875 -340.84375 19.796875 -340.84375 C 22.296875 -340.84375 25.328125 -340.753906 28.890625 -340.578125 C 39.410156 -339.679688 50.289062 -339.234375 61.53125 -339.234375 L 81.328125 -339.78125 L 128.421875 -338.703125 C 151.960938 -338.703125 170.332031 -338.96875 183.53125 -339.5 C 196.726562 -340.039062 205.644531 -340.3125 210.28125 -340.3125 C 214.382812 -340.3125 224.550781 -339.953125 240.78125 -339.234375 L 278.78125 -339.515625 L 283.328125 -338.703125 L 305.53125 -339.515625 L 308.203125 -338.171875 C 309.097656 -336.742188 309.722656 -335.226562 310.078125 -333.625 C 310.078125 -331.125 309.675781 -327.285156 308.875 -322.109375 C 308.070312 -316.941406 307.671875 -313.734375 307.671875 -312.484375 C 307.671875 -293.929688 308.296875 -278.238281 309.546875 -265.40625 C 309.367188 -264.332031 308.832031 -263.617188 307.9375 -263.265625 C 305.976562 -263.265625 304.195312 -263.53125 302.59375 -264.0625 C 300.625 -267.445312 297.988281 -273.421875 294.6875 -281.984375 C 291.394531 -290.546875 286.445312 -300.445312 279.84375 -311.6875 C 275.382812 -319.175781 271.90625 -323.632812 269.40625 -325.0625 C 266.914062 -326.488281 261.742188 -327.203125 253.890625 -327.203125 C 252.285156 -327.203125 244.171875 -327.378906 229.546875 -327.734375 C 225.617188 -327.910156 221.785156 -328 218.046875 -328 L 141.796875 -326.40625 L 135.109375 -326.40625 C 125.296875 -326.40625 119.410156 -325.15625 117.453125 -322.65625 C 114.421875 -318.375 112.90625 -305.800781 112.90625 -284.9375 C 112.90625 -282.789062 113.347656 -261.382812 114.234375 -220.71875 L 114.234375 -183.53125 C 116.203125 -183 118.34375 -182.734375 120.65625 -182.734375 L 125.203125 -182.734375 C 128.234375 -182.734375 132.691406 -182.644531 138.578125 -182.46875 C 147.859375 -182.101562 154.101562 -181.921875 157.3125 -181.921875 C 159.457031 -181.921875 161.332031 -182.007812 162.9375 -182.1875 C 182.195312 -182.90625 206.988281 -183.265625 237.3125 -183.265625 C 246.757812 -184.867188 252.285156 -186.742188 253.890625 -188.890625 C 256.566406 -192.097656 258.570312 -200.476562 259.90625 -214.03125 C 261.25 -227.582031 264.238281 -235.253906 268.875 -237.046875 C 271.195312 -237.046875 273.335938 -236.597656 275.296875 -235.703125 C 275.648438 -234.273438 275.828125 -232.9375 275.828125 -231.6875 C 275.828125 -230.4375 275.648438 -228.382812 275.296875 -225.53125 C 274.410156 -218.9375 273.96875 -198.25 273.96875 -163.46875 C 273.96875 -154.195312 274.457031 -143.851562 275.4375 -132.4375 C 276.414062 -121.019531 276.90625 -114.863281 276.90625 -113.96875 C 276.90625 -112.363281 276.632812 -110.222656 276.09375 -107.546875 C 274.675781 -106.835938 273.519531 -106.484375 272.625 -106.484375 L 270.75 -106.484375 C 267.894531 -111.472656 265.128906 -119.226562 262.453125 -129.75 C 257.816406 -147.769531 252.957031 -159.050781 247.875 -163.59375 C 242.789062 -168.144531 234.539062 -170.421875 223.125 -170.421875 C 220.625 -170.421875 216.070312 -170.285156 209.46875 -170.015625 C 202.875 -169.753906 193.066406 -169.625 180.046875 -169.625 L 162.671875 -169.625 C 137.867188 -169.625 121.632812 -169.085938 113.96875 -168.015625 L 113.703125 -159.1875 L 113.96875 -109.953125 L 113.703125 -78.921875 L 113.96875 -48.6875 C 114.144531 -30.5 115.304688 -19.976562 117.453125 -17.125 C 120.484375 -13.195312 127.082031 -11.234375 137.25 -11.234375 L 153.5625 -11.5 C 154.988281 -11.5 160.5625 -11.363281 170.28125 -11.09375 C 180.007812 -10.832031 192.003906 -10.703125 206.265625 -10.703125 C 240.691406 -10.703125 263.613281 -12.171875 275.03125 -15.109375 C 286.445312 -18.054688 295.851562 -23.273438 303.25 -30.765625 C 310.65625 -38.253906 319.976562 -54.394531 331.21875 -79.1875 C 334.601562 -86.5 337.988281 -90.15625 341.375 -90.15625 C 342.976562 -90.15625 344.765625 -89.441406 346.734375 -88.015625 C 341.554688 -70.359375 338.613281 -58.765625 337.90625 -53.234375 C 335.9375 -40.753906 334.773438 -28.003906 334.421875 -14.984375 C 334.421875 -9.097656 332.992188 -4.191406 330.140625 -0.265625 L 324.265625 -0.265625 L 249.078125 0.53125 L 215.375 0.265625 L 135.109375 1.34375 L 102.46875 1.34375 C 98.363281 1.34375 94.53125 1.429688 90.96875 1.609375 C 58.863281 3.035156 35.226562 3.75 20.0625 3.75 C 17.382812 3.75 15.554688 3.300781 14.578125 2.40625 C 13.597656 1.507812 13.109375 0.171875 13.109375 -1.609375 Z M 13.375 -4.28125 "/></g></g><g transform="translate(2209.532775, 1458.562323)"><g><path d="M 212.6875 -330.140625 C 214.113281 -318.367188 214.828125 -311.59375 214.828125 -309.8125 L 213.765625 -286 C 213.410156 -275.832031 212.960938 -269.320312 212.421875 -266.46875 C 210.816406 -265.757812 209.476562 -265.40625 208.40625 -265.40625 L 206 -265.9375 C 200.289062 -290.90625 190.613281 -309.097656 176.96875 -320.515625 C 163.332031 -331.929688 146.703125 -337.640625 127.078125 -337.640625 C 106.742188 -337.640625 90.066406 -331.929688 77.046875 -320.515625 C 64.023438 -309.097656 57.515625 -295.8125 57.515625 -280.65625 C 57.515625 -269.0625 62.066406 -258.445312 71.171875 -248.8125 C 80.265625 -239.175781 103.539062 -224.726562 141 -205.46875 C 169.53125 -190.664062 189.945312 -178.582031 202.25 -169.21875 C 214.5625 -159.851562 223.835938 -149.015625 230.078125 -136.703125 C 236.328125 -124.398438 239.453125 -110.671875 239.453125 -95.515625 C 239.453125 -76.429688 234.5 -58.503906 224.59375 -41.734375 C 214.695312 -24.972656 201.363281 -12.351562 184.59375 -3.875 C 167.832031 4.59375 145.628906 8.828125 117.984375 8.828125 C 93.910156 8.828125 70.8125 4.992188 48.6875 -2.671875 C 35.664062 -7.304688 27.726562 -11.050781 24.875 -13.90625 C 22.019531 -16.757812 20.59375 -19.796875 20.59375 -23.015625 C 20.59375 -24.972656 20.773438 -27.46875 21.140625 -30.5 C 23.628906 -51.539062 24.96875 -68.84375 25.15625 -82.40625 C 25.507812 -90.789062 26.128906 -95.691406 27.015625 -97.109375 C 27.734375 -98.359375 29.070312 -98.984375 31.03125 -98.984375 C 32.632812 -98.984375 33.925781 -98.40625 34.90625 -97.25 C 35.894531 -96.09375 36.566406 -93.910156 36.921875 -90.703125 C 38.878906 -68.753906 49.046875 -49.132812 67.421875 -31.84375 C 85.609375 -14.539062 106.207031 -5.890625 129.21875 -5.890625 C 143.3125 -5.890625 156.285156 -8.832031 168.140625 -14.71875 C 180.003906 -20.601562 189.28125 -29.117188 195.96875 -40.265625 C 202.65625 -51.410156 206 -62.242188 206 -72.765625 C 206 -87.210938 200.914062 -100.410156 190.75 -112.359375 C 180.582031 -124.316406 160.160156 -138.273438 129.484375 -154.234375 C 98.804688 -170.203125 78.832031 -181.84375 69.5625 -189.15625 C 54.582031 -201.101562 43.34375 -213.765625 35.84375 -227.140625 C 30.320312 -237.484375 27.5625 -249.523438 27.5625 -263.265625 C 27.5625 -288.054688 37.367188 -309.054688 56.984375 -326.265625 C 76.609375 -343.472656 102.914062 -352.078125 135.90625 -352.078125 C 154.101562 -352.078125 169.800781 -350.023438 183 -345.921875 C 192.625 -342.710938 202.519531 -337.453125 212.6875 -330.140625 Z M 212.6875 -330.140625 "/></g></g><g transform="translate(2471.991506, 1458.562323)"><g><path d="M 156.25 -343.515625 C 157.132812 -340.484375 157.578125 -338.164062 157.578125 -336.5625 C 157.578125 -335.488281 157.3125 -333.882812 156.78125 -331.75 C 152.144531 -330.5 148.398438 -329.875 145.546875 -329.875 C 144.296875 -329.875 142.195312 -330.003906 139.25 -330.265625 C 136.3125 -330.535156 133.953125 -330.671875 132.171875 -330.671875 C 123.960938 -330.671875 117.453125 -329.066406 112.640625 -325.859375 C 109.421875 -323.898438 107.457031 -321.316406 106.75 -318.109375 L 104.078125 -287.609375 L 104.875 -155.171875 C 105.050781 -106.660156 106.65625 -76.472656 109.6875 -64.609375 C 112.71875 -52.742188 117.800781 -42.976562 124.9375 -35.3125 C 132.070312 -27.644531 142.816406 -21.3125 157.171875 -16.3125 C 171.535156 -11.320312 185.492188 -8.828125 199.046875 -8.828125 C 229.367188 -8.828125 252.597656 -13.195312 268.734375 -21.9375 C 284.878906 -30.675781 296.472656 -42.757812 303.515625 -58.1875 C 310.566406 -73.613281 314.09375 -97.023438 314.09375 -128.421875 C 314.09375 -129.304688 313.828125 -136.441406 313.296875 -149.828125 L 313.296875 -157.578125 C 313.296875 -160.429688 313.472656 -166.003906 313.828125 -174.296875 C 314.179688 -182.597656 314.359375 -187.460938 314.359375 -188.890625 L 310.34375 -265.671875 C 309.09375 -291.523438 307.617188 -306.769531 305.921875 -311.40625 C 304.234375 -316.050781 301.785156 -319.53125 298.578125 -321.84375 C 291.617188 -326.84375 278.421875 -331.304688 258.984375 -335.234375 C 258.085938 -337.722656 257.550781 -340.304688 257.375 -342.984375 C 264.332031 -343.703125 271.195312 -344.0625 277.96875 -344.0625 C 285.101562 -344.0625 292.597656 -343.789062 300.453125 -343.25 C 312.222656 -342.363281 318.640625 -341.921875 319.703125 -341.921875 L 361.984375 -343.25 L 370.28125 -342.984375 L 370 -333.359375 C 348.0625 -330.503906 334.953125 -327.15625 330.671875 -323.3125 C 326.398438 -319.476562 324.265625 -312.390625 324.265625 -302.046875 C 324.265625 -296.523438 324.617188 -284.488281 325.328125 -265.9375 L 327.203125 -210.546875 L 326.9375 -188.609375 L 327.734375 -160.796875 C 327.734375 -125.835938 326.753906 -102.023438 324.796875 -89.359375 C 321.941406 -71.703125 317.882812 -57.703125 312.625 -47.359375 C 307.363281 -37.015625 299.738281 -27.691406 289.75 -19.390625 C 279.757812 -11.097656 266.425781 -4.28125 249.75 1.0625 C 233.070312 6.414062 216.617188 9.09375 200.390625 9.09375 C 174.878906 9.09375 156.507812 7.3125 145.28125 3.75 C 124.757812 -2.5 108.4375 -10.613281 96.3125 -20.59375 C 84.1875 -30.582031 75.804688 -40.570312 71.171875 -50.5625 C 64.921875 -63.757812 61.796875 -83.023438 61.796875 -108.359375 L 61.796875 -126.8125 L 61 -201.71875 L 61.796875 -262.1875 L 61.796875 -302.859375 C 61.796875 -313.203125 60.367188 -320.425781 57.515625 -324.53125 C 55.554688 -327.382812 52.703125 -328.8125 48.953125 -328.8125 L 33.171875 -328.546875 C 21.398438 -328.546875 13.910156 -329.789062 10.703125 -332.28125 C 10.171875 -333.882812 9.90625 -335.3125 9.90625 -336.5625 C 9.90625 -338.164062 10.4375 -339.414062 11.5 -340.3125 C 13.46875 -341.738281 15.878906 -342.453125 18.734375 -342.453125 L 25.6875 -342.453125 L 43.609375 -342.71875 L 85.875 -342.71875 Z M 156.25 -343.515625 "/></g></g><g transform="translate(2860.194985, 1458.562323)"><g><path d="M 3.75 -6.15625 C 9.28125 -9.894531 19.265625 -12.566406 33.703125 -14.171875 C 44.941406 -14.710938 51.632812 -15.695312 53.78125 -17.125 C 55.207031 -18.195312 56.273438 -19.535156 56.984375 -21.140625 C 59.660156 -27.734375 61.625 -45.65625 62.875 -74.90625 C 64.476562 -112.894531 67.0625 -163.460938 70.625 -226.609375 C 73.476562 -274.765625 74.90625 -304.816406 74.90625 -316.765625 L 74.90625 -323.71875 C 62.0625 -326.394531 41.726562 -329.25 13.90625 -332.28125 C 12.125 -334.957031 11.234375 -337.007812 11.234375 -338.4375 C 11.234375 -339.332031 11.859375 -340.9375 13.109375 -343.25 C 16.140625 -344.320312 18.457031 -344.859375 20.0625 -344.859375 C 21.488281 -344.859375 24.609375 -344.5 29.421875 -343.78125 C 38.160156 -342.539062 50.203125 -341.921875 65.546875 -341.921875 C 70.535156 -341.921875 79.097656 -342.273438 91.234375 -342.984375 C 99.796875 -343.515625 104.609375 -343.78125 105.671875 -343.78125 C 108.523438 -343.78125 111.828125 -343.335938 115.578125 -342.453125 C 117.359375 -340.671875 118.695312 -338.976562 119.59375 -337.375 L 130.828125 -312.21875 L 206.546875 -144.734375 L 237.84375 -74.375 C 262.632812 -123.425781 281.894531 -167.035156 295.625 -205.203125 C 296.519531 -208.054688 297.59375 -210.644531 298.84375 -212.96875 C 300.445312 -216 301.960938 -219.382812 303.390625 -223.125 C 304.816406 -226.875 310.613281 -241.144531 320.78125 -265.9375 C 324.882812 -275.925781 328.179688 -284.488281 330.671875 -291.625 C 340.835938 -320.15625 346.816406 -336.472656 348.609375 -340.578125 C 351.992188 -341.828125 354.9375 -342.453125 357.4375 -342.453125 C 360.289062 -342.453125 363.945312 -342.273438 368.40625 -341.921875 C 378.394531 -341.378906 394.625 -341.109375 417.09375 -341.109375 C 431.007812 -341.109375 442.425781 -341.289062 451.34375 -341.65625 C 451.695312 -339.6875 451.875 -338.257812 451.875 -337.375 C 451.875 -336.125 451.609375 -334.425781 451.078125 -332.28125 C 445.367188 -329.25 438.5 -327.554688 430.46875 -327.203125 C 414.59375 -326.304688 404.515625 -325.054688 400.234375 -323.453125 C 395.953125 -321.847656 393.234375 -319.796875 392.078125 -317.296875 C 390.921875 -314.804688 389.894531 -306.601562 389 -292.6875 L 389.265625 -280.375 L 389 -267.546875 C 389 -240.785156 389.710938 -195.835938 391.140625 -132.703125 L 390.875 -80.265625 L 391.140625 -46.546875 C 391.140625 -33.347656 391.765625 -25.546875 393.015625 -23.140625 C 394.265625 -20.734375 397.832031 -18.457031 403.71875 -16.3125 C 413.351562 -13.101562 429.050781 -9.804688 450.8125 -6.421875 C 452.050781 -5.523438 452.671875 -4.363281 452.671875 -2.9375 C 452.671875 -1.332031 452.582031 0.445312 452.40625 2.40625 L 440.109375 2.40625 C 429.578125 2.40625 418.15625 2.09375 405.84375 1.46875 C 393.539062 0.84375 386.945312 0.53125 386.0625 0.53125 C 349.5 0.53125 325.242188 0.890625 313.296875 1.609375 C 305.972656 2.140625 301.332031 2.40625 299.375 2.40625 C 298.125 2.40625 296.785156 2.050781 295.359375 1.34375 L 295.359375 -2.140625 C 295.359375 -3.742188 295.628906 -5.4375 296.171875 -7.21875 C 302.054688 -9.71875 310.082031 -11.414062 320.25 -12.3125 C 331.476562 -15.34375 339.679688 -18.550781 344.859375 -21.9375 C 346.460938 -28.71875 347.265625 -42.539062 347.265625 -63.40625 L 346.46875 -117.453125 C 346.46875 -123.335938 346.78125 -134.304688 347.40625 -150.359375 C 348.03125 -166.410156 348.34375 -192.539062 348.34375 -228.75 C 348.34375 -257.46875 347.628906 -279.226562 346.203125 -294.03125 C 343.171875 -287.78125 337.191406 -274.222656 328.265625 -253.359375 L 324.265625 -243.1875 L 323.71875 -241.59375 L 284.125 -147.953125 L 269.953125 -111.828125 L 251.484375 -67.953125 C 243.460938 -47.796875 236.597656 -29.960938 230.890625 -14.453125 C 228.390625 -7.316406 226.335938 -1.695312 224.734375 2.40625 L 218.578125 2.140625 C 198.421875 -56.710938 174.382812 -117.085938 146.46875 -178.984375 C 118.5625 -240.878906 98.988281 -281.722656 87.75 -301.515625 C 86.320312 -293.847656 84.71875 -271.550781 82.9375 -234.625 C 80.613281 -189.6875 79.453125 -140.191406 79.453125 -86.140625 C 79.453125 -69.203125 80.703125 -50.117188 83.203125 -28.890625 C 83.921875 -22.828125 86.507812 -18.320312 90.96875 -15.375 C 95.425781 -12.4375 106.925781 -10.789062 125.46875 -10.4375 C 132.601562 -10.4375 139.382812 -9.898438 145.8125 -8.828125 C 147.0625 -6.148438 147.6875 -4.1875 147.6875 -2.9375 C 147.6875 -2.050781 147.238281 -0.535156 146.34375 1.609375 L 63.140625 -1.34375 C 57.078125 -1.34375 47.625 -0.894531 34.78125 0 C 27.644531 0.53125 17.390625 0.882812 4.015625 1.0625 Z M 3.75 -6.15625 "/></g></g><g transform="translate(3316.889223, 1458.562323)"><g><path d="M 13.375 -4.28125 C 15.15625 -5.882812 16.671875 -6.863281 17.921875 -7.21875 C 20.953125 -8.113281 26.125 -8.828125 33.4375 -9.359375 C 50.738281 -10.429688 61.441406 -12.035156 65.546875 -14.171875 C 68.046875 -17.742188 69.296875 -22.738281 69.296875 -29.15625 L 69.03125 -47.890625 L 69.296875 -115.84375 L 68.75 -147.953125 L 69.03125 -215.109375 L 67.6875 -291.34375 C 67.507812 -309.539062 66.347656 -319.800781 64.203125 -322.125 C 60.992188 -325.507812 51.453125 -327.46875 35.578125 -328 C 28.804688 -328.175781 22.832031 -328.710938 17.65625 -329.609375 C 15.332031 -330.859375 14.171875 -332.460938 14.171875 -334.421875 C 14.171875 -335.847656 14.617188 -337.546875 15.515625 -339.515625 C 17.117188 -340.398438 18.546875 -340.84375 19.796875 -340.84375 C 22.296875 -340.84375 25.328125 -340.753906 28.890625 -340.578125 C 39.410156 -339.679688 50.289062 -339.234375 61.53125 -339.234375 L 81.328125 -339.78125 L 128.421875 -338.703125 C 151.960938 -338.703125 170.332031 -338.96875 183.53125 -339.5 C 196.726562 -340.039062 205.644531 -340.3125 210.28125 -340.3125 C 214.382812 -340.3125 224.550781 -339.953125 240.78125 -339.234375 L 278.78125 -339.515625 L 283.328125 -338.703125 L 305.53125 -339.515625 L 308.203125 -338.171875 C 309.097656 -336.742188 309.722656 -335.226562 310.078125 -333.625 C 310.078125 -331.125 309.675781 -327.285156 308.875 -322.109375 C 308.070312 -316.941406 307.671875 -313.734375 307.671875 -312.484375 C 307.671875 -293.929688 308.296875 -278.238281 309.546875 -265.40625 C 309.367188 -264.332031 308.832031 -263.617188 307.9375 -263.265625 C 305.976562 -263.265625 304.195312 -263.53125 302.59375 -264.0625 C 300.625 -267.445312 297.988281 -273.421875 294.6875 -281.984375 C 291.394531 -290.546875 286.445312 -300.445312 279.84375 -311.6875 C 275.382812 -319.175781 271.90625 -323.632812 269.40625 -325.0625 C 266.914062 -326.488281 261.742188 -327.203125 253.890625 -327.203125 C 252.285156 -327.203125 244.171875 -327.378906 229.546875 -327.734375 C 225.617188 -327.910156 221.785156 -328 218.046875 -328 L 141.796875 -326.40625 L 135.109375 -326.40625 C 125.296875 -326.40625 119.410156 -325.15625 117.453125 -322.65625 C 114.421875 -318.375 112.90625 -305.800781 112.90625 -284.9375 C 112.90625 -282.789062 113.347656 -261.382812 114.234375 -220.71875 L 114.234375 -183.53125 C 116.203125 -183 118.34375 -182.734375 120.65625 -182.734375 L 125.203125 -182.734375 C 128.234375 -182.734375 132.691406 -182.644531 138.578125 -182.46875 C 147.859375 -182.101562 154.101562 -181.921875 157.3125 -181.921875 C 159.457031 -181.921875 161.332031 -182.007812 162.9375 -182.1875 C 182.195312 -182.90625 206.988281 -183.265625 237.3125 -183.265625 C 246.757812 -184.867188 252.285156 -186.742188 253.890625 -188.890625 C 256.566406 -192.097656 258.570312 -200.476562 259.90625 -214.03125 C 261.25 -227.582031 264.238281 -235.253906 268.875 -237.046875 C 271.195312 -237.046875 273.335938 -236.597656 275.296875 -235.703125 C 275.648438 -234.273438 275.828125 -232.9375 275.828125 -231.6875 C 275.828125 -230.4375 275.648438 -228.382812 275.296875 -225.53125 C 274.410156 -218.9375 273.96875 -198.25 273.96875 -163.46875 C 273.96875 -154.195312 274.457031 -143.851562 275.4375 -132.4375 C 276.414062 -121.019531 276.90625 -114.863281 276.90625 -113.96875 C 276.90625 -112.363281 276.632812 -110.222656 276.09375 -107.546875 C 274.675781 -106.835938 273.519531 -106.484375 272.625 -106.484375 L 270.75 -106.484375 C 267.894531 -111.472656 265.128906 -119.226562 262.453125 -129.75 C 257.816406 -147.769531 252.957031 -159.050781 247.875 -163.59375 C 242.789062 -168.144531 234.539062 -170.421875 223.125 -170.421875 C 220.625 -170.421875 216.070312 -170.285156 209.46875 -170.015625 C 202.875 -169.753906 193.066406 -169.625 180.046875 -169.625 L 162.671875 -169.625 C 137.867188 -169.625 121.632812 -169.085938 113.96875 -168.015625 L 113.703125 -159.1875 L 113.96875 -109.953125 L 113.703125 -78.921875 L 113.96875 -48.6875 C 114.144531 -30.5 115.304688 -19.976562 117.453125 -17.125 C 120.484375 -13.195312 127.082031 -11.234375 137.25 -11.234375 L 153.5625 -11.5 C 154.988281 -11.5 160.5625 -11.363281 170.28125 -11.09375 C 180.007812 -10.832031 192.003906 -10.703125 206.265625 -10.703125 C 240.691406 -10.703125 263.613281 -12.171875 275.03125 -15.109375 C 286.445312 -18.054688 295.851562 -23.273438 303.25 -30.765625 C 310.65625 -38.253906 319.976562 -54.394531 331.21875 -79.1875 C 334.601562 -86.5 337.988281 -90.15625 341.375 -90.15625 C 342.976562 -90.15625 344.765625 -89.441406 346.734375 -88.015625 C 341.554688 -70.359375 338.613281 -58.765625 337.90625 -53.234375 C 335.9375 -40.753906 334.773438 -28.003906 334.421875 -14.984375 C 334.421875 -9.097656 332.992188 -4.191406 330.140625 -0.265625 L 324.265625 -0.265625 L 249.078125 0.53125 L 215.375 0.265625 L 135.109375 1.34375 L 102.46875 1.34375 C 98.363281 1.34375 94.53125 1.429688 90.96875 1.609375 C 58.863281 3.035156 35.226562 3.75 20.0625 3.75 C 17.382812 3.75 15.554688 3.300781 14.578125 2.40625 C 13.597656 1.507812 13.109375 0.171875 13.109375 -1.609375 Z M 13.375 -4.28125 "/></g></g></g></svg>